<svg xmlns="http://www.w3.org/2000/svg" xmlns:xlink="http://www.w3.org/1999/xlink" width="500" zoomAndPan="magnify" viewBox="0 0 375 374.999991" height="500" preserveAspectRatio="xMidYMid meet" version="1.0"><defs><clipPath id="d8f3815dd3"><path d="M 187.5 0 C 83.945312 0 0 83.945312 0 187.5 C 0 291.054688 83.945312 375 187.5 375 C 291.054688 375 375 291.054688 375 187.5 C 375 83.945312 291.054688 0 187.5 0 Z M 187.5 0 " clip-rule="nonzero"/></clipPath><clipPath id="23d46d3adb"><path d="M 229 177 L 328.144531 177 L 328.144531 277 L 229 277 Z M 229 177 " clip-rule="nonzero"/></clipPath></defs><path fill="#6fb4fa" d="M 374.953125 187.535156 C 374.953125 190.605469 374.875 193.671875 374.726562 196.734375 C 374.574219 199.800781 374.351562 202.859375 374.050781 205.914062 C 373.75 208.964844 373.375 212.011719 372.921875 215.046875 C 372.472656 218.082031 371.949219 221.101562 371.351562 224.113281 C 370.75 227.121094 370.078125 230.117188 369.332031 233.09375 C 368.585938 236.066406 367.769531 239.023438 366.878906 241.960938 C 365.988281 244.898438 365.027344 247.808594 363.992188 250.699219 C 362.957031 253.589844 361.855469 256.449219 360.679688 259.285156 C 359.507812 262.121094 358.261719 264.925781 356.949219 267.699219 C 355.640625 270.472656 354.261719 273.210938 352.8125 275.917969 C 351.367188 278.625 349.855469 281.292969 348.277344 283.925781 C 346.699219 286.554688 345.058594 289.148438 343.355469 291.699219 C 341.648438 294.25 339.882812 296.757812 338.054688 299.222656 C 336.226562 301.6875 334.339844 304.105469 332.394531 306.476562 C 330.449219 308.847656 328.445312 311.171875 326.382812 313.445312 C 324.324219 315.71875 322.207031 317.941406 320.039062 320.109375 C 317.867188 322.28125 315.644531 324.394531 313.371094 326.457031 C 311.097656 328.515625 308.777344 330.519531 306.40625 332.46875 C 304.03125 334.414062 301.613281 336.300781 299.148438 338.128906 C 296.683594 339.957031 294.175781 341.722656 291.625 343.425781 C 289.074219 345.132812 286.484375 346.773438 283.851562 348.351562 C 281.21875 349.929688 278.550781 351.441406 275.84375 352.886719 C 273.136719 354.332031 270.398438 355.710938 267.625 357.023438 C 264.851562 358.335938 262.046875 359.578125 259.210938 360.753906 C 256.375 361.925781 253.515625 363.03125 250.625 364.066406 C 247.738281 365.097656 244.824219 366.0625 241.886719 366.953125 C 238.953125 367.84375 235.996094 368.660156 233.019531 369.40625 C 230.042969 370.152344 227.050781 370.824219 224.039062 371.421875 C 221.03125 372.019531 218.007812 372.546875 214.972656 372.996094 C 211.9375 373.445312 208.894531 373.820312 205.839844 374.121094 C 202.785156 374.421875 199.726562 374.648438 196.664062 374.800781 C 193.597656 374.949219 190.53125 375.023438 187.460938 375.023438 C 184.394531 375.023438 181.328125 374.949219 178.261719 374.800781 C 175.199219 374.648438 172.140625 374.421875 169.085938 374.121094 C 166.03125 373.820312 162.988281 373.445312 159.953125 372.996094 C 156.917969 372.546875 153.894531 372.019531 150.886719 371.421875 C 147.875 370.824219 144.882812 370.152344 141.90625 369.40625 C 138.929688 368.660156 135.972656 367.84375 133.039062 366.953125 C 130.101562 366.0625 127.1875 365.097656 124.300781 364.066406 C 121.410156 363.03125 118.546875 361.925781 115.714844 360.753906 C 112.878906 359.578125 110.074219 358.335938 107.300781 357.023438 C 104.527344 355.710938 101.785156 354.332031 99.082031 352.886719 C 96.375 351.441406 93.707031 349.929688 91.074219 348.351562 C 88.441406 346.773438 85.851562 345.132812 83.300781 343.425781 C 80.746094 341.722656 78.238281 339.957031 75.777344 338.128906 C 73.3125 336.300781 70.894531 334.414062 68.519531 332.46875 C 66.148438 330.519531 63.824219 328.515625 61.550781 326.457031 C 59.277344 324.394531 57.058594 322.28125 54.886719 320.109375 C 52.71875 317.941406 50.601562 315.71875 48.542969 313.445312 C 46.480469 311.171875 44.476562 308.847656 42.53125 306.476562 C 40.585938 304.105469 38.699219 301.6875 36.871094 299.222656 C 35.042969 296.757812 33.277344 294.25 31.570312 291.699219 C 29.867188 289.148438 28.226562 286.554688 26.648438 283.925781 C 25.070312 281.292969 23.558594 278.625 22.113281 275.917969 C 20.664062 273.210938 19.285156 270.472656 17.972656 267.699219 C 16.660156 264.925781 15.417969 262.121094 14.246094 259.285156 C 13.070312 256.449219 11.964844 253.589844 10.933594 250.699219 C 9.898438 247.808594 8.9375 244.898438 8.046875 241.960938 C 7.15625 239.023438 6.335938 236.066406 5.59375 233.09375 C 4.847656 230.117188 4.175781 227.121094 3.574219 224.113281 C 2.976562 221.101562 2.453125 218.082031 2.003906 215.046875 C 1.550781 212.011719 1.175781 208.964844 0.875 205.914062 C 0.574219 202.859375 0.347656 199.800781 0.199219 196.734375 C 0.046875 193.671875 -0.0273438 190.605469 -0.0273438 187.535156 C -0.0273438 184.46875 0.046875 181.402344 0.199219 178.335938 C 0.347656 175.269531 0.574219 172.210938 0.875 169.160156 C 1.175781 166.105469 1.550781 163.058594 2.003906 160.023438 C 2.453125 156.988281 2.976562 153.96875 3.574219 150.957031 C 4.175781 147.949219 4.847656 144.957031 5.59375 141.980469 C 6.335938 139.003906 7.15625 136.046875 8.046875 133.109375 C 8.9375 130.171875 9.898438 127.261719 10.933594 124.371094 C 11.964844 121.484375 13.070312 118.621094 14.246094 115.785156 C 15.417969 112.953125 16.660156 110.148438 17.972656 107.375 C 19.285156 104.597656 20.664062 101.859375 22.113281 99.152344 C 23.558594 96.449219 25.070312 93.777344 26.648438 91.148438 C 28.226562 88.515625 29.867188 85.921875 31.570312 83.371094 C 33.273438 80.820312 35.042969 78.3125 36.871094 75.847656 C 38.699219 73.382812 40.585938 70.964844 42.53125 68.59375 C 44.476562 66.222656 46.480469 63.898438 48.542969 61.625 C 50.601562 59.351562 52.71875 57.128906 54.886719 54.960938 C 57.058594 52.789062 59.277344 50.675781 61.550781 48.613281 C 63.824219 46.554688 66.148438 44.550781 68.519531 42.605469 C 70.890625 40.65625 73.308594 38.769531 75.773438 36.941406 C 78.238281 35.113281 80.746094 33.347656 83.296875 31.644531 C 85.851562 29.9375 88.441406 28.296875 91.074219 26.71875 C 93.707031 25.144531 96.375 23.628906 99.082031 22.183594 C 101.785156 20.738281 104.527344 19.359375 107.300781 18.046875 C 110.074219 16.734375 112.878906 15.492188 115.714844 14.316406 C 118.546875 13.144531 121.410156 12.039062 124.300781 11.003906 C 127.1875 9.972656 130.101562 9.011719 133.035156 8.117188 C 135.972656 7.226562 138.929688 6.410156 141.90625 5.664062 C 144.882812 4.917969 147.875 4.246094 150.882812 3.648438 C 153.894531 3.050781 156.917969 2.523438 159.953125 2.074219 C 162.988281 1.625 166.03125 1.25 169.085938 0.949219 C 172.140625 0.648438 175.199219 0.421875 178.261719 0.273438 C 181.328125 0.121094 184.394531 0.046875 187.460938 0.046875 C 190.53125 0.046875 193.597656 0.121094 196.664062 0.273438 C 199.726562 0.421875 202.785156 0.648438 205.839844 0.949219 C 208.894531 1.25 211.9375 1.625 214.972656 2.074219 C 218.007812 2.523438 221.03125 3.050781 224.039062 3.648438 C 227.050781 4.246094 230.042969 4.917969 233.019531 5.664062 C 235.996094 6.410156 238.953125 7.226562 241.886719 8.117188 C 244.824219 9.011719 247.738281 9.972656 250.625 11.003906 C 253.515625 12.039062 256.375 13.144531 259.210938 14.316406 C 262.046875 15.492188 264.851562 16.734375 267.625 18.046875 C 270.398438 19.359375 273.136719 20.738281 275.84375 22.183594 C 278.550781 23.628906 281.21875 25.144531 283.851562 26.71875 C 286.484375 28.296875 289.074219 29.9375 291.625 31.644531 C 294.175781 33.347656 296.683594 35.113281 299.148438 36.941406 C 301.613281 38.769531 304.03125 40.65625 306.40625 42.605469 C 308.777344 44.550781 311.097656 46.554688 313.371094 48.613281 C 315.644531 50.675781 317.867188 52.789062 320.039062 54.960938 C 322.207031 57.128906 324.324219 59.351562 326.382812 61.625 C 328.445312 63.898438 330.449219 66.222656 332.394531 68.59375 C 334.339844 70.964844 336.226562 73.382812 338.054688 75.847656 C 339.882812 78.3125 341.648438 80.820312 343.355469 83.371094 C 345.058594 85.921875 346.699219 88.515625 348.277344 91.148438 C 349.855469 93.777344 351.367188 96.449219 352.8125 99.152344 C 354.261719 101.859375 355.640625 104.597656 356.949219 107.375 C 358.261719 110.148438 359.507812 112.953125 360.679688 115.785156 C 361.855469 118.621094 362.957031 121.484375 363.992188 124.371094 C 365.027344 127.261719 365.988281 130.171875 366.878906 133.109375 C 367.769531 136.046875 368.585938 139.003906 369.332031 141.980469 C 370.078125 144.957031 370.75 147.949219 371.351562 150.957031 C 371.949219 153.96875 372.472656 156.988281 372.921875 160.023438 C 373.375 163.058594 373.75 166.105469 374.050781 169.160156 C 374.351562 172.210938 374.574219 175.269531 374.726562 178.335938 C 374.875 181.402344 374.953125 184.46875 374.953125 187.535156 Z M 374.953125 187.535156 " fill-opacity="0.85" fill-rule="nonzero"/><path fill="#df8942" d="M 275.222656 79.527344 C 275.222656 75.242188 271.714844 71.734375 267.429688 71.734375 L 103.777344 71.734375 C 99.488281 71.734375 95.984375 75.242188 95.984375 79.527344 L 95.984375 305.523438 C 95.984375 309.8125 99.488281 313.316406 103.777344 313.316406 L 267.429688 313.316406 C 271.714844 313.316406 275.222656 309.8125 275.222656 305.523438 Z M 275.222656 79.527344 " fill-opacity="1" fill-rule="nonzero"/><path fill="#fdbe5d" d="M 275.222656 71.734375 C 275.222656 67.449219 271.714844 63.941406 267.429688 63.941406 L 103.777344 63.941406 C 99.488281 63.941406 95.984375 67.449219 95.984375 71.734375 L 95.984375 297.730469 C 95.984375 302.019531 99.488281 305.523438 103.777344 305.523438 L 267.429688 305.523438 C 271.714844 305.523438 275.222656 302.019531 275.222656 297.730469 Z M 275.222656 71.734375 " fill-opacity="1" fill-rule="nonzero"/><path fill="#df8942" d="M 275.222656 71.734375 C 275.222656 67.449219 271.714844 63.941406 267.429688 63.941406 L 103.777344 63.941406 C 99.488281 63.941406 95.984375 67.449219 95.984375 71.734375 L 103.777344 102.90625 L 267.429688 102.90625 Z M 275.222656 71.734375 " fill-opacity="1" fill-rule="nonzero"/><path fill="#edaf53" d="M 275.222656 71.734375 C 275.222656 67.449219 271.714844 63.941406 267.429688 63.941406 L 103.777344 63.941406 C 99.488281 63.941406 95.984375 67.449219 95.984375 71.734375 L 111.570312 95.113281 L 259.636719 95.113281 Z M 275.222656 71.734375 " fill-opacity="1" fill-rule="nonzero"/><path fill="#ffffff" d="M 173.914062 95.113281 L 181.707031 95.113281 L 181.707031 134.078125 L 173.914062 134.078125 Z M 173.914062 95.113281 " fill-opacity="1" fill-rule="nonzero"/><path fill="#ffffff" d="M 189.5 95.113281 L 197.292969 95.113281 L 197.292969 134.078125 L 189.5 134.078125 Z M 189.5 95.113281 " fill-opacity="1" fill-rule="nonzero"/><path fill="#df8942" d="M 201.1875 134.078125 C 201.1875 142.6875 194.210938 149.664062 185.601562 149.664062 C 176.996094 149.664062 170.015625 142.6875 170.015625 134.078125 C 170.015625 125.472656 176.996094 118.492188 185.601562 118.492188 C 194.210938 118.492188 201.1875 125.472656 201.1875 134.078125 Z M 201.1875 134.078125 " fill-opacity="1" fill-rule="nonzero"/><path fill="#edaf53" d="M 193.394531 134.078125 C 193.394531 138.378906 189.90625 141.871094 185.601562 141.871094 C 181.300781 141.871094 177.808594 138.378906 177.808594 134.078125 C 177.808594 129.777344 181.300781 126.285156 185.601562 126.285156 C 189.90625 126.285156 193.394531 129.777344 193.394531 134.078125 Z M 193.394531 134.078125 " fill-opacity="1" fill-rule="nonzero"/><path fill="#edaf53" d="M 142.742188 235.386719 L 228.464844 235.386719 L 228.464844 243.179688 L 142.742188 243.179688 Z M 142.742188 235.386719 " fill-opacity="1" fill-rule="nonzero"/><path fill="#edaf53" d="M 142.742188 250.972656 L 228.464844 250.972656 L 228.464844 258.765625 L 142.742188 258.765625 Z M 142.742188 250.972656 " fill-opacity="1" fill-rule="nonzero"/><path fill="#edaf53" d="M 142.742188 266.558594 L 228.464844 266.558594 L 228.464844 274.351562 L 142.742188 274.351562 Z M 142.742188 266.558594 " fill-opacity="1" fill-rule="nonzero"/><g clip-path="url(#d8f3815dd3)"><rect x="-37.5" width="450" fill="#bfd7b1" y="-37.499999" height="449.999989" fill-opacity="1"/></g><path fill="#f25f5c" d="M 277.765625 166.308594 C 273.636719 144.40625 258.863281 126.300781 238.898438 117.644531 L 238.898438 117.578125 C 234.570312 115.714844 229.980469 114.25 225.253906 113.316406 C 221.0625 112.519531 216.734375 112.054688 212.34375 112.054688 L 152.644531 112.054688 C 148.121094 112.054688 143.726562 112.519531 139.535156 113.316406 C 134.742188 114.316406 130.21875 115.78125 125.890625 117.710938 C 102.464844 127.964844 86.09375 151.398438 86.09375 178.625 L 86.09375 304.910156 L 278.894531 304.910156 L 278.894531 288.601562 Z M 132.480469 143.007812 C 136.140625 143.007812 139.136719 146.003906 139.136719 149.667969 C 139.136719 153.328125 136.140625 156.324219 132.480469 156.324219 C 128.820312 156.324219 125.824219 153.328125 125.824219 149.667969 C 125.824219 146.003906 128.820312 143.007812 132.480469 143.007812 Z M 232.308594 143.007812 C 235.96875 143.007812 238.964844 146.003906 238.964844 149.667969 C 238.964844 153.328125 235.96875 156.324219 232.308594 156.324219 C 228.648438 156.324219 225.652344 153.328125 225.652344 149.667969 C 225.652344 146.003906 228.648438 143.007812 232.308594 143.007812 Z M 232.308594 143.007812 " fill-opacity="1" fill-rule="nonzero"/><path fill="#d85656" d="M 277.765625 166.308594 C 273.636719 144.40625 258.863281 126.300781 238.898438 117.644531 L 238.898438 117.578125 C 234.570312 115.714844 229.980469 114.25 225.253906 113.316406 C 221.0625 112.519531 216.734375 112.054688 212.34375 112.054688 L 182.394531 112.054688 L 182.394531 304.910156 L 278.894531 304.910156 L 278.894531 288.601562 Z M 232.308594 143.007812 C 235.96875 143.007812 238.964844 146.003906 238.964844 149.667969 C 238.964844 153.328125 235.96875 156.324219 232.308594 156.324219 C 228.648438 156.324219 225.652344 153.328125 225.652344 149.667969 C 225.652344 146.003906 228.648438 143.007812 232.308594 143.007812 Z M 232.308594 143.007812 " fill-opacity="1" fill-rule="nonzero"/><g clip-path="url(#23d46d3adb)"><path fill="#ffe066" d="M 328.398438 227.441406 C 328.398438 229.0625 328.316406 230.679688 328.160156 232.296875 C 328 233.910156 327.761719 235.511719 327.445312 237.101562 C 327.128906 238.691406 326.734375 240.261719 326.265625 241.816406 C 325.792969 243.367188 325.25 244.890625 324.628906 246.390625 C 324.007812 247.890625 323.316406 249.351562 322.550781 250.785156 C 321.789062 252.214844 320.953125 253.601562 320.054688 254.953125 C 319.152344 256.300781 318.1875 257.601562 317.160156 258.855469 C 316.132812 260.109375 315.042969 261.308594 313.898438 262.453125 C 312.75 263.601562 311.550781 264.6875 310.296875 265.71875 C 309.046875 266.746094 307.746094 267.710938 306.398438 268.613281 C 305.046875 269.511719 303.660156 270.347656 302.230469 271.109375 C 300.800781 271.875 299.335938 272.566406 297.839844 273.1875 C 296.339844 273.808594 294.816406 274.355469 293.265625 274.824219 C 291.714844 275.296875 290.140625 275.691406 288.550781 276.007812 C 286.960938 276.324219 285.359375 276.558594 283.746094 276.71875 C 282.132812 276.878906 280.515625 276.957031 278.894531 276.957031 C 277.273438 276.957031 275.65625 276.878906 274.042969 276.71875 C 272.429688 276.558594 270.828125 276.324219 269.238281 276.007812 C 267.648438 275.691406 266.078125 275.296875 264.527344 274.824219 C 262.972656 274.355469 261.449219 273.808594 259.953125 273.1875 C 258.453125 272.566406 256.988281 271.875 255.558594 271.109375 C 254.128906 270.347656 252.742188 269.511719 251.394531 268.613281 C 250.046875 267.710938 248.746094 266.746094 247.492188 265.71875 C 246.238281 264.6875 245.039062 263.601562 243.890625 262.453125 C 242.746094 261.308594 241.660156 260.109375 240.628906 258.855469 C 239.601562 257.601562 238.636719 256.300781 237.734375 254.953125 C 236.835938 253.601562 236.003906 252.214844 235.238281 250.785156 C 234.472656 249.351562 233.78125 247.890625 233.160156 246.390625 C 232.542969 244.890625 231.996094 243.367188 231.523438 241.816406 C 231.054688 240.261719 230.660156 238.691406 230.34375 237.101562 C 230.027344 235.511719 229.789062 233.910156 229.632812 232.296875 C 229.472656 230.679688 229.394531 229.0625 229.394531 227.441406 C 229.394531 225.820312 229.472656 224.203125 229.632812 222.589844 C 229.789062 220.972656 230.027344 219.371094 230.34375 217.78125 C 230.660156 216.191406 231.054688 214.621094 231.523438 213.066406 C 231.996094 211.515625 232.542969 209.992188 233.160156 208.492188 C 233.78125 206.996094 234.472656 205.53125 235.238281 204.101562 C 236.003906 202.667969 236.835938 201.28125 237.734375 199.933594 C 238.636719 198.582031 239.601562 197.28125 240.628906 196.027344 C 241.660156 194.777344 242.746094 193.574219 243.890625 192.429688 C 245.039062 191.28125 246.238281 190.195312 247.492188 189.164062 C 248.746094 188.136719 250.046875 187.171875 251.394531 186.269531 C 252.742188 185.371094 254.128906 184.535156 255.558594 183.773438 C 256.988281 183.007812 258.453125 182.316406 259.953125 181.695312 C 261.449219 181.074219 262.972656 180.527344 264.527344 180.058594 C 266.078125 179.585938 267.648438 179.195312 269.238281 178.878906 C 270.828125 178.5625 272.429688 178.324219 274.042969 178.164062 C 275.65625 178.003906 277.273438 177.925781 278.894531 177.925781 C 280.515625 177.925781 282.132812 178.003906 283.746094 178.164062 C 285.359375 178.324219 286.960938 178.5625 288.550781 178.878906 C 290.140625 179.195312 291.714844 179.585938 293.265625 180.058594 C 294.816406 180.527344 296.339844 181.074219 297.839844 181.695312 C 299.335938 182.316406 300.800781 183.007812 302.230469 183.773438 C 303.660156 184.535156 305.046875 185.371094 306.398438 186.269531 C 307.746094 187.171875 309.046875 188.136719 310.296875 189.164062 C 311.550781 190.195312 312.75 191.28125 313.898438 192.429688 C 315.042969 193.574219 316.132812 194.777344 317.160156 196.027344 C 318.1875 197.28125 319.152344 198.582031 320.054688 199.933594 C 320.953125 201.28125 321.789062 202.667969 322.550781 204.101562 C 323.316406 205.53125 324.007812 206.996094 324.628906 208.492188 C 325.25 209.992188 325.792969 211.515625 326.265625 213.066406 C 326.734375 214.621094 327.128906 216.191406 327.445312 217.78125 C 327.761719 219.371094 328 220.972656 328.160156 222.589844 C 328.316406 224.203125 328.398438 225.820312 328.398438 227.441406 Z M 328.398438 227.441406 " fill-opacity="1" fill-rule="nonzero"/></g><path fill="#70c1b3" d="M 312.269531 226.664062 L 312.269531 228.308594 C 312.269531 231.980469 309.289062 234.964844 305.617188 234.964844 L 286.363281 234.964844 L 286.363281 254.164062 C 286.363281 257.839844 283.378906 260.820312 279.707031 260.820312 L 278.082031 260.820312 C 274.410156 260.820312 271.429688 257.839844 271.429688 254.164062 L 271.429688 234.964844 L 252.175781 234.964844 C 248.5 234.964844 245.519531 231.980469 245.519531 228.308594 L 245.519531 226.664062 C 245.519531 222.988281 248.5 220.003906 252.175781 220.003906 L 271.429688 220.003906 L 271.429688 200.714844 C 271.429688 197.039062 274.410156 194.054688 278.082031 194.054688 L 279.707031 194.054688 C 283.378906 194.054688 286.363281 197.039062 286.363281 200.714844 L 286.363281 220.003906 L 305.617188 220.003906 C 309.289062 220.003906 312.269531 222.988281 312.269531 226.664062 Z M 312.269531 226.664062 " fill-opacity="1" fill-rule="nonzero"/><path fill="#50514f" d="M 238.964844 130.894531 L 238.964844 120.042969 C 238.964844 119.242188 238.964844 118.445312 238.898438 117.644531 C 238.898438 116.582031 238.832031 115.515625 238.765625 114.582031 C 237.101562 92.082031 225.386719 71.976562 206.6875 59.328125 C 191.910156 49.410156 172.878906 49.410156 158.101562 59.394531 C 139.402344 71.976562 127.6875 92.148438 126.023438 114.582031 C 125.957031 115.582031 125.890625 116.648438 125.890625 117.710938 C 125.824219 118.511719 125.824219 119.242188 125.824219 120.042969 L 125.824219 130.894531 C 118.105469 133.621094 112.515625 141.011719 112.515625 149.667969 C 112.515625 160.652344 121.5 169.636719 132.480469 169.636719 C 143.460938 169.636719 152.445312 160.652344 152.445312 149.667969 C 152.445312 141.011719 146.855469 133.621094 139.136719 130.894531 L 139.136719 120.042969 C 139.136719 118.578125 139.203125 117.113281 139.335938 115.582031 C 139.402344 114.847656 139.46875 114.117188 139.535156 113.382812 C 141.464844 95.875 150.847656 80.367188 165.558594 70.445312 C 175.804688 63.523438 188.984375 63.523438 199.230469 70.378906 C 213.941406 80.296875 223.324219 95.875 225.253906 113.382812 C 225.320312 114.117188 225.386719 114.847656 225.453125 115.582031 C 225.585938 117.046875 225.652344 118.578125 225.652344 120.042969 L 225.652344 130.894531 C 217.933594 133.621094 212.34375 141.011719 212.34375 149.667969 C 212.34375 160.652344 221.328125 169.636719 232.308594 169.636719 C 243.289062 169.636719 252.273438 160.652344 252.273438 149.667969 C 252.273438 141.011719 246.683594 133.621094 238.964844 130.894531 Z M 132.480469 156.324219 C 128.820312 156.324219 125.824219 153.328125 125.824219 149.667969 C 125.824219 146.003906 128.820312 143.007812 132.480469 143.007812 C 136.140625 143.007812 139.136719 146.003906 139.136719 149.667969 C 139.136719 153.328125 136.140625 156.324219 132.480469 156.324219 Z M 232.308594 156.324219 C 228.648438 156.324219 225.652344 153.328125 225.652344 149.667969 C 225.652344 146.003906 228.648438 143.007812 232.308594 143.007812 C 235.96875 143.007812 238.964844 146.003906 238.964844 149.667969 C 238.964844 153.328125 235.96875 156.324219 232.308594 156.324219 Z M 232.308594 156.324219 " fill-opacity="1" fill-rule="nonzero"/><path fill="#3f3f3e" d="M 238.964844 130.894531 L 238.964844 120.042969 C 238.964844 119.242188 238.964844 118.445312 238.898438 117.644531 C 238.898438 116.582031 238.832031 115.515625 238.765625 114.582031 C 237.101562 92.082031 225.386719 71.976562 206.6875 59.328125 C 199.324219 54.390625 190.914062 51.917969 182.496094 51.90625 L 182.496094 65.253906 C 188.316406 65.265625 194.132812 66.972656 199.230469 70.378906 C 213.941406 80.296875 223.324219 95.875 225.253906 113.382812 C 225.320312 114.117188 225.386719 114.847656 225.453125 115.582031 C 225.585938 117.046875 225.652344 118.578125 225.652344 120.042969 L 225.652344 130.894531 C 217.933594 133.621094 212.34375 141.011719 212.34375 149.667969 C 212.34375 160.652344 221.328125 169.636719 232.308594 169.636719 C 243.289062 169.636719 252.273438 160.652344 252.273438 149.667969 C 252.273438 141.011719 246.683594 133.621094 238.964844 130.894531 Z M 232.308594 156.324219 C 228.648438 156.324219 225.652344 153.328125 225.652344 149.667969 C 225.652344 146.003906 228.648438 143.007812 232.308594 143.007812 C 235.96875 143.007812 238.964844 146.003906 238.964844 149.667969 C 238.964844 153.328125 235.96875 156.324219 232.308594 156.324219 Z M 232.308594 156.324219 " fill-opacity="1" fill-rule="nonzero"/></svg>