<svg xmlns="http://www.w3.org/2000/svg" xmlns:xlink="http://www.w3.org/1999/xlink" width="500" zoomAndPan="magnify" viewBox="0 0 375 374.999991" height="500" preserveAspectRatio="xMidYMid meet" version="1.0"><defs><clipPath id="33fdf80e1d"><path d="M 241 19 L 374.980469 19 L 374.980469 153 L 241 153 Z M 241 19 " clip-rule="nonzero"/></clipPath></defs><path fill="#7a7979" d="M 96.648438 247.003906 L 142.707031 118.585938 L 189.621094 247.003906 Z M 197.898438 110.941406 C 194.074219 100.902344 190.917969 92.875 188.457031 86.851562 C 185.972656 80.839844 182.9375 75.210938 179.328125 69.980469 C 175.714844 64.75 170.976562 60.464844 165.097656 57.144531 C 159.230469 53.820312 151.898438 52.152344 143.140625 52.152344 C 134.5 52.152344 127.253906 53.820312 121.375 57.144531 C 115.507812 60.464844 110.769531 64.808594 107.15625 70.199219 C 103.546875 75.574219 100.152344 82.328125 96.972656 90.460938 C 93.792969 98.597656 91.054688 105.566406 88.800781 111.375 L 9.203125 313.4375 C 5.941406 321.511719 3.613281 327.796875 2.195312 332.335938 C 0.78125 336.859375 0.0742188 341.238281 0.0742188 345.484375 C 0.0742188 352.851562 3.109375 359.425781 9.203125 365.234375 C 15.289062 371.027344 22.28125 373.933594 30.214844 373.933594 C 39.546875 373.933594 46.265625 371.207031 50.382812 365.761719 C 54.484375 360.3125 59.429688 349.804688 65.234375 334.242188 L 80.089844 294.335938 L 206.597656 294.335938 L 221.453125 333.390625 C 223.433594 338.203125 225.808594 343.757812 228.566406 350.054688 C 231.328125 356.355469 233.90625 361.023438 236.316406 364.058594 C 238.71875 367.105469 241.695312 369.503906 245.222656 371.28125 C 248.761719 373.042969 253.007812 373.933594 257.964844 373.933594 C 266.457031 373.933594 273.703125 370.921875 279.714844 364.910156 C 285.738281 358.898438 288.738281 352.289062 288.738281 345.0625 C 288.738281 338.128906 285.558594 327.019531 279.1875 311.746094 L 197.898438 110.941406 " fill-opacity="1" fill-rule="nonzero"/><g clip-path="url(#33fdf80e1d)"><path fill="#7a7979" d="M 353.828125 64.628906 L 329.773438 64.628906 L 329.773438 40.585938 C 329.773438 28.753906 320.1875 19.167969 308.367188 19.167969 C 296.539062 19.167969 286.949219 28.753906 286.949219 40.585938 L 286.949219 64.628906 L 262.917969 64.628906 C 251.089844 64.628906 241.5 74.214844 241.5 86.035156 C 241.5 97.863281 251.089844 107.453125 262.917969 107.453125 L 286.949219 107.453125 L 286.949219 131.484375 C 286.949219 143.3125 296.539062 152.902344 308.367188 152.902344 C 320.1875 152.902344 329.773438 143.3125 329.773438 131.484375 L 329.773438 107.453125 L 353.828125 107.453125 C 365.648438 107.453125 375.234375 97.863281 375.234375 86.035156 C 375.234375 74.214844 365.648438 64.628906 353.828125 64.628906 " fill-opacity="1" fill-rule="nonzero"/></g></svg>