<svg xmlns="http://www.w3.org/2000/svg" xmlns:xlink="http://www.w3.org/1999/xlink" width="500" zoomAndPan="magnify" viewBox="0 0 375 374.999991" height="500" preserveAspectRatio="xMidYMid meet" version="1.0"><defs><clipPath id="2b5c80e27a"><path d="M 187.5 0 C 83.945312 0 0 83.945312 0 187.5 C 0 291.054688 83.945312 375 187.5 375 C 291.054688 375 375 291.054688 375 187.5 C 375 83.945312 291.054688 0 187.5 0 Z M 187.5 0 " clip-rule="nonzero"/></clipPath><clipPath id="8dd4cd6d2c"><path d="M 120 202 L 268 202 L 268 270.984375 L 120 270.984375 Z M 120 202 " clip-rule="nonzero"/></clipPath><clipPath id="8cb8e591d9"><path d="M 120 202 L 195 202 L 195 270.984375 L 120 270.984375 Z M 120 202 " clip-rule="nonzero"/></clipPath><clipPath id="00c4eb76f8"><path d="M 194 203 L 268 203 L 268 270.984375 L 194 270.984375 Z M 194 203 " clip-rule="nonzero"/></clipPath></defs><path fill="#6fb4fa" d="M 374.953125 187.535156 C 374.953125 190.605469 374.875 193.671875 374.726562 196.734375 C 374.574219 199.800781 374.351562 202.859375 374.050781 205.914062 C 373.75 208.964844 373.375 212.011719 372.921875 215.046875 C 372.472656 218.082031 371.949219 221.101562 371.351562 224.113281 C 370.75 227.121094 370.078125 230.117188 369.332031 233.09375 C 368.585938 236.066406 367.769531 239.023438 366.878906 241.960938 C 365.988281 244.898438 365.027344 247.808594 363.992188 250.699219 C 362.957031 253.589844 361.855469 256.449219 360.679688 259.285156 C 359.507812 262.121094 358.261719 264.925781 356.949219 267.699219 C 355.640625 270.472656 354.261719 273.210938 352.8125 275.917969 C 351.367188 278.625 349.855469 281.292969 348.277344 283.925781 C 346.699219 286.554688 345.058594 289.148438 343.355469 291.699219 C 341.648438 294.25 339.882812 296.757812 338.054688 299.222656 C 336.226562 301.6875 334.339844 304.105469 332.394531 306.476562 C 330.449219 308.847656 328.445312 311.171875 326.382812 313.445312 C 324.324219 315.71875 322.207031 317.941406 320.039062 320.109375 C 317.867188 322.28125 315.644531 324.394531 313.371094 326.457031 C 311.097656 328.515625 308.777344 330.519531 306.40625 332.46875 C 304.03125 334.414062 301.613281 336.300781 299.148438 338.128906 C 296.683594 339.957031 294.175781 341.722656 291.625 343.425781 C 289.074219 345.132812 286.484375 346.773438 283.851562 348.351562 C 281.21875 349.929688 278.550781 351.441406 275.84375 352.886719 C 273.136719 354.332031 270.398438 355.710938 267.625 357.023438 C 264.851562 358.335938 262.046875 359.578125 259.210938 360.753906 C 256.375 361.925781 253.515625 363.03125 250.625 364.066406 C 247.738281 365.097656 244.824219 366.0625 241.886719 366.953125 C 238.953125 367.84375 235.996094 368.660156 233.019531 369.40625 C 230.042969 370.152344 227.050781 370.824219 224.039062 371.421875 C 221.03125 372.019531 218.007812 372.546875 214.972656 372.996094 C 211.9375 373.445312 208.894531 373.820312 205.839844 374.121094 C 202.785156 374.421875 199.726562 374.648438 196.664062 374.800781 C 193.597656 374.949219 190.53125 375.023438 187.460938 375.023438 C 184.394531 375.023438 181.328125 374.949219 178.261719 374.800781 C 175.199219 374.648438 172.140625 374.421875 169.085938 374.121094 C 166.03125 373.820312 162.988281 373.445312 159.953125 372.996094 C 156.917969 372.546875 153.894531 372.019531 150.886719 371.421875 C 147.875 370.824219 144.882812 370.152344 141.90625 369.40625 C 138.929688 368.660156 135.972656 367.84375 133.039062 366.953125 C 130.101562 366.0625 127.1875 365.097656 124.300781 364.066406 C 121.410156 363.03125 118.546875 361.925781 115.714844 360.753906 C 112.878906 359.578125 110.074219 358.335938 107.300781 357.023438 C 104.527344 355.710938 101.785156 354.332031 99.082031 352.886719 C 96.375 351.441406 93.707031 349.929688 91.074219 348.351562 C 88.441406 346.773438 85.851562 345.132812 83.300781 343.425781 C 80.746094 341.722656 78.238281 339.957031 75.777344 338.128906 C 73.3125 336.300781 70.894531 334.414062 68.519531 332.46875 C 66.148438 330.519531 63.824219 328.515625 61.550781 326.457031 C 59.277344 324.394531 57.058594 322.28125 54.886719 320.109375 C 52.71875 317.941406 50.601562 315.71875 48.542969 313.445312 C 46.480469 311.171875 44.476562 308.847656 42.53125 306.476562 C 40.585938 304.105469 38.699219 301.6875 36.871094 299.222656 C 35.042969 296.757812 33.277344 294.25 31.570312 291.699219 C 29.867188 289.148438 28.226562 286.554688 26.648438 283.925781 C 25.070312 281.292969 23.558594 278.625 22.113281 275.917969 C 20.664062 273.210938 19.285156 270.472656 17.972656 267.699219 C 16.660156 264.925781 15.417969 262.121094 14.246094 259.285156 C 13.070312 256.449219 11.964844 253.589844 10.933594 250.699219 C 9.898438 247.808594 8.9375 244.898438 8.046875 241.960938 C 7.15625 239.023438 6.335938 236.066406 5.59375 233.09375 C 4.847656 230.117188 4.175781 227.121094 3.574219 224.113281 C 2.976562 221.101562 2.453125 218.082031 2.003906 215.046875 C 1.550781 212.011719 1.175781 208.964844 0.875 205.914062 C 0.574219 202.859375 0.347656 199.800781 0.199219 196.734375 C 0.046875 193.671875 -0.0273438 190.605469 -0.0273438 187.535156 C -0.0273438 184.46875 0.046875 181.402344 0.199219 178.335938 C 0.347656 175.269531 0.574219 172.210938 0.875 169.160156 C 1.175781 166.105469 1.550781 163.058594 2.003906 160.023438 C 2.453125 156.988281 2.976562 153.96875 3.574219 150.957031 C 4.175781 147.949219 4.847656 144.957031 5.59375 141.980469 C 6.335938 139.003906 7.15625 136.046875 8.046875 133.109375 C 8.9375 130.171875 9.898438 127.261719 10.933594 124.371094 C 11.964844 121.484375 13.070312 118.621094 14.246094 115.785156 C 15.417969 112.953125 16.660156 110.148438 17.972656 107.375 C 19.285156 104.597656 20.664062 101.859375 22.113281 99.152344 C 23.558594 96.449219 25.070312 93.777344 26.648438 91.148438 C 28.226562 88.515625 29.867188 85.921875 31.570312 83.371094 C 33.273438 80.820312 35.042969 78.3125 36.871094 75.847656 C 38.699219 73.382812 40.585938 70.964844 42.53125 68.59375 C 44.476562 66.222656 46.480469 63.898438 48.542969 61.625 C 50.601562 59.351562 52.71875 57.128906 54.886719 54.960938 C 57.058594 52.789062 59.277344 50.675781 61.550781 48.613281 C 63.824219 46.554688 66.148438 44.550781 68.519531 42.605469 C 70.890625 40.65625 73.308594 38.769531 75.773438 36.941406 C 78.238281 35.113281 80.746094 33.347656 83.296875 31.644531 C 85.851562 29.9375 88.441406 28.296875 91.074219 26.71875 C 93.707031 25.144531 96.375 23.628906 99.082031 22.183594 C 101.785156 20.738281 104.527344 19.359375 107.300781 18.046875 C 110.074219 16.734375 112.878906 15.492188 115.714844 14.316406 C 118.546875 13.144531 121.410156 12.039062 124.300781 11.003906 C 127.1875 9.972656 130.101562 9.011719 133.035156 8.117188 C 135.972656 7.226562 138.929688 6.410156 141.90625 5.664062 C 144.882812 4.917969 147.875 4.246094 150.882812 3.648438 C 153.894531 3.050781 156.917969 2.523438 159.953125 2.074219 C 162.988281 1.625 166.03125 1.25 169.085938 0.949219 C 172.140625 0.648438 175.199219 0.421875 178.261719 0.273438 C 181.328125 0.121094 184.394531 0.046875 187.460938 0.046875 C 190.53125 0.046875 193.597656 0.121094 196.664062 0.273438 C 199.726562 0.421875 202.785156 0.648438 205.839844 0.949219 C 208.894531 1.25 211.9375 1.625 214.972656 2.074219 C 218.007812 2.523438 221.03125 3.050781 224.039062 3.648438 C 227.050781 4.246094 230.042969 4.917969 233.019531 5.664062 C 235.996094 6.410156 238.953125 7.226562 241.886719 8.117188 C 244.824219 9.011719 247.738281 9.972656 250.625 11.003906 C 253.515625 12.039062 256.375 13.144531 259.210938 14.316406 C 262.046875 15.492188 264.851562 16.734375 267.625 18.046875 C 270.398438 19.359375 273.136719 20.738281 275.84375 22.183594 C 278.550781 23.628906 281.21875 25.144531 283.851562 26.71875 C 286.484375 28.296875 289.074219 29.9375 291.625 31.644531 C 294.175781 33.347656 296.683594 35.113281 299.148438 36.941406 C 301.613281 38.769531 304.03125 40.65625 306.40625 42.605469 C 308.777344 44.550781 311.097656 46.554688 313.371094 48.613281 C 315.644531 50.675781 317.867188 52.789062 320.039062 54.960938 C 322.207031 57.128906 324.324219 59.351562 326.382812 61.625 C 328.445312 63.898438 330.449219 66.222656 332.394531 68.59375 C 334.339844 70.964844 336.226562 73.382812 338.054688 75.847656 C 339.882812 78.3125 341.648438 80.820312 343.355469 83.371094 C 345.058594 85.921875 346.699219 88.515625 348.277344 91.148438 C 349.855469 93.777344 351.367188 96.449219 352.8125 99.152344 C 354.261719 101.859375 355.640625 104.597656 356.949219 107.375 C 358.261719 110.148438 359.507812 112.953125 360.679688 115.785156 C 361.855469 118.621094 362.957031 121.484375 363.992188 124.371094 C 365.027344 127.261719 365.988281 130.171875 366.878906 133.109375 C 367.769531 136.046875 368.585938 139.003906 369.332031 141.980469 C 370.078125 144.957031 370.75 147.949219 371.351562 150.957031 C 371.949219 153.96875 372.472656 156.988281 372.921875 160.023438 C 373.375 163.058594 373.75 166.105469 374.050781 169.160156 C 374.351562 172.210938 374.574219 175.269531 374.726562 178.335938 C 374.875 181.402344 374.953125 184.46875 374.953125 187.535156 Z M 374.953125 187.535156 " fill-opacity="0.85" fill-rule="nonzero"/><path fill="#df8942" d="M 275.222656 79.527344 C 275.222656 75.242188 271.714844 71.734375 267.429688 71.734375 L 103.777344 71.734375 C 99.488281 71.734375 95.984375 75.242188 95.984375 79.527344 L 95.984375 305.523438 C 95.984375 309.8125 99.488281 313.316406 103.777344 313.316406 L 267.429688 313.316406 C 271.714844 313.316406 275.222656 309.8125 275.222656 305.523438 Z M 275.222656 79.527344 " fill-opacity="1" fill-rule="nonzero"/><path fill="#fdbe5d" d="M 275.222656 71.734375 C 275.222656 67.449219 271.714844 63.941406 267.429688 63.941406 L 103.777344 63.941406 C 99.488281 63.941406 95.984375 67.449219 95.984375 71.734375 L 95.984375 297.730469 C 95.984375 302.019531 99.488281 305.523438 103.777344 305.523438 L 267.429688 305.523438 C 271.714844 305.523438 275.222656 302.019531 275.222656 297.730469 Z M 275.222656 71.734375 " fill-opacity="1" fill-rule="nonzero"/><path fill="#df8942" d="M 275.222656 71.734375 C 275.222656 67.449219 271.714844 63.941406 267.429688 63.941406 L 103.777344 63.941406 C 99.488281 63.941406 95.984375 67.449219 95.984375 71.734375 L 103.777344 102.90625 L 267.429688 102.90625 Z M 275.222656 71.734375 " fill-opacity="1" fill-rule="nonzero"/><path fill="#edaf53" d="M 275.222656 71.734375 C 275.222656 67.449219 271.714844 63.941406 267.429688 63.941406 L 103.777344 63.941406 C 99.488281 63.941406 95.984375 67.449219 95.984375 71.734375 L 111.570312 95.113281 L 259.636719 95.113281 Z M 275.222656 71.734375 " fill-opacity="1" fill-rule="nonzero"/><path fill="#ffffff" d="M 173.914062 95.113281 L 181.707031 95.113281 L 181.707031 134.078125 L 173.914062 134.078125 Z M 173.914062 95.113281 " fill-opacity="1" fill-rule="nonzero"/><path fill="#ffffff" d="M 189.5 95.113281 L 197.292969 95.113281 L 197.292969 134.078125 L 189.5 134.078125 Z M 189.5 95.113281 " fill-opacity="1" fill-rule="nonzero"/><path fill="#df8942" d="M 201.1875 134.078125 C 201.1875 142.6875 194.210938 149.664062 185.601562 149.664062 C 176.996094 149.664062 170.015625 142.6875 170.015625 134.078125 C 170.015625 125.472656 176.996094 118.492188 185.601562 118.492188 C 194.210938 118.492188 201.1875 125.472656 201.1875 134.078125 Z M 201.1875 134.078125 " fill-opacity="1" fill-rule="nonzero"/><path fill="#edaf53" d="M 193.394531 134.078125 C 193.394531 138.378906 189.90625 141.871094 185.601562 141.871094 C 181.300781 141.871094 177.808594 138.378906 177.808594 134.078125 C 177.808594 129.777344 181.300781 126.285156 185.601562 126.285156 C 189.90625 126.285156 193.394531 129.777344 193.394531 134.078125 Z M 193.394531 134.078125 " fill-opacity="1" fill-rule="nonzero"/><path fill="#edaf53" d="M 142.742188 235.386719 L 228.464844 235.386719 L 228.464844 243.179688 L 142.742188 243.179688 Z M 142.742188 235.386719 " fill-opacity="1" fill-rule="nonzero"/><path fill="#edaf53" d="M 142.742188 250.972656 L 228.464844 250.972656 L 228.464844 258.765625 L 142.742188 258.765625 Z M 142.742188 250.972656 " fill-opacity="1" fill-rule="nonzero"/><path fill="#edaf53" d="M 142.742188 266.558594 L 228.464844 266.558594 L 228.464844 274.351562 L 142.742188 274.351562 Z M 142.742188 266.558594 " fill-opacity="1" fill-rule="nonzero"/><g clip-path="url(#2b5c80e27a)"><rect x="-37.5" width="450" fill="#bfd7b1" y="-37.499999" height="449.999989" fill-opacity="1"/></g><path fill="#ffe8ba" d="M 106.765625 181.203125 L 81.742188 181.550781 C 82.183594 186.429688 79.332031 191.558594 75.171875 195.519531 L 64.703125 209.25 L 63.773438 217.035156 L 77.304688 229.011719 L 95.457031 243.207031 L 128.257812 231.371094 L 128.257812 209.871094 L 116.71875 198.59375 C 110.707031 195.835938 107.238281 186.175781 106.765625 181.203125 " fill-opacity="1" fill-rule="evenodd"/><path fill="#f8d9a1" d="M 106.765625 181.203125 L 81.742188 181.46875 C 81.789062 181.851562 81.796875 182.238281 81.777344 182.621094 L 82.914062 181.457031 C 99.257812 216.949219 129.0625 240.238281 122.027344 209.578125 C 120.792969 204.195312 109.179688 195.929688 107.214844 183.25 L 107.21875 183.25 C 106.988281 182.503906 106.839844 181.808594 106.765625 181.203125 " fill-opacity="1" fill-rule="evenodd"/><path fill="#eb7063" d="M 94.117188 222.535156 L 94.214844 222.449219 C 99.890625 218.488281 106.171875 212.980469 109.644531 206.941406 L 111.222656 204.1875 L 114.335938 204.648438 C 116.160156 204.914062 117.929688 205.621094 119.554688 206.515625 C 118.421875 203.285156 116.117188 201.363281 115.058594 200.621094 L 113.203125 199.320312 L 113.074219 197.074219 C 113.054688 196.664062 113.03125 196.300781 113.023438 196.203125 C 113.011719 196.101562 112.992188 195.957031 112.945312 195.726562 L 110.9375 193.441406 C 118.5 196.191406 133.375 199.933594 138.773438 202.828125 C 140.503906 203.742188 142.140625 204.925781 143.640625 206.328125 C 148.023438 210.402344 151.601562 216.515625 153.398438 222.859375 C 155.265625 229.457031 155.246094 236.46875 152.3125 242.058594 C 151.570312 243.476562 150.664062 244.78125 149.582031 245.945312 L 149.546875 245.964844 C 147.640625 247.980469 145.53125 249.398438 143.210938 250.320312 C 140.90625 251.238281 138.492188 251.648438 135.945312 251.648438 L 52.480469 251.648438 C 49.933594 251.648438 47.519531 251.238281 45.214844 250.320312 C 42.894531 249.398438 40.78125 247.980469 38.878906 245.964844 L 38.839844 245.945312 C 37.757812 244.78125 36.851562 243.476562 36.109375 242.058594 C 33.179688 236.46875 33.160156 229.457031 35.027344 222.859375 C 36.824219 216.515625 40.402344 210.402344 44.78125 206.328125 C 46.285156 204.925781 47.917969 203.742188 49.652344 202.828125 C 55.046875 199.933594 69.738281 195.996094 77.304688 193.246094 L 75.273438 195.726562 C 75.226562 195.957031 75.203125 196.101562 75.195312 196.203125 C 75.183594 196.300781 75.164062 196.664062 75.140625 197.074219 L 75.015625 199.320312 L 73.160156 200.621094 C 72.097656 201.363281 69.796875 203.285156 68.660156 206.515625 C 70.289062 205.621094 72.058594 204.914062 73.878906 204.648438 L 76.988281 204.1875 L 78.570312 206.941406 C 82.042969 212.980469 88.328125 218.488281 94.003906 222.449219 L 94.117188 222.535156 " fill-opacity="1" fill-rule="nonzero"/><path fill="#7db242" d="M 94.460938 222.277344 L 94.625 222.160156 C 100.1875 218.222656 106.253906 212.839844 109.644531 206.941406 L 111.222656 204.1875 L 114.335938 204.648438 C 116.160156 204.914062 117.929688 205.621094 119.554688 206.515625 C 118.421875 203.285156 116.117188 201.363281 115.058594 200.621094 L 113.203125 199.320312 L 113.074219 197.074219 C 113.054688 196.664062 113.03125 196.300781 113.023438 196.203125 C 113.011719 196.101562 112.992188 195.957031 112.945312 195.726562 L 110.9375 193.441406 C 118.5 196.191406 133.375 199.933594 138.773438 202.828125 C 140.503906 203.742188 142.140625 204.925781 143.640625 206.328125 C 148.023438 210.402344 151.601562 216.515625 153.398438 222.859375 C 155.265625 229.457031 155.246094 236.46875 152.3125 242.058594 C 151.570312 243.476562 150.664062 244.78125 149.582031 245.945312 L 149.546875 245.964844 C 147.640625 247.980469 145.53125 249.398438 143.210938 250.320312 C 140.90625 251.238281 138.492188 251.648438 135.945312 251.648438 L 94.460938 251.648438 L 94.460938 222.277344 " fill-opacity="1" fill-rule="nonzero"/><path fill="#9bcc66" d="M 94.117188 222.535156 L 94.214844 222.449219 L 94.460938 222.277344 L 94.460938 251.648438 L 52.480469 251.648438 C 49.933594 251.648438 47.519531 251.238281 45.214844 250.320312 C 42.894531 249.398438 40.78125 247.980469 38.878906 245.964844 L 38.839844 245.945312 C 37.757812 244.78125 36.851562 243.476562 36.109375 242.058594 C 33.179688 236.46875 33.160156 229.457031 35.027344 222.859375 C 36.824219 216.515625 40.402344 210.402344 44.78125 206.328125 C 46.285156 204.925781 47.917969 203.742188 49.652344 202.828125 C 55.046875 199.933594 69.738281 195.996094 77.304688 193.246094 L 75.273438 195.726562 C 75.226562 195.957031 75.203125 196.101562 75.195312 196.203125 C 75.183594 196.300781 75.164062 196.664062 75.140625 197.074219 L 75.015625 199.320312 L 73.160156 200.621094 C 72.097656 201.363281 69.796875 203.285156 68.660156 206.515625 C 70.289062 205.621094 72.058594 204.914062 73.878906 204.648438 L 76.988281 204.1875 L 78.570312 206.941406 C 82.042969 212.980469 88.328125 218.488281 94.003906 222.449219 L 94.117188 222.535156 " fill-opacity="1" fill-rule="nonzero"/><path fill="#f2d99e" d="M 124.738281 153.464844 C 123.496094 158.589844 120.242188 162.734375 119.527344 162.664062 C 118.8125 162.59375 117.386719 152.535156 118.621094 147.410156 C 119.972656 141.757812 127.824219 140.710938 124.738281 153.464844 " fill-opacity="1" fill-rule="evenodd"/><path fill="#f2d99e" d="M 69.226562 153.464844 C 70.46875 158.589844 73.726562 162.734375 74.441406 162.664062 C 75.15625 162.59375 76.578125 152.535156 75.347656 147.410156 C 73.996094 141.757812 66.144531 140.710938 69.226562 153.464844 " fill-opacity="1" fill-rule="evenodd"/><path fill="#ffe8ba" d="M 96.535156 120.582031 C 87.75 120.582031 78.660156 126.058594 74.605469 136.148438 C 72.644531 141.019531 72.957031 147.984375 72.957031 153.996094 C 72.957031 172.445312 83.511719 187.402344 96.535156 187.402344 C 109.554688 187.402344 120.109375 172.445312 120.109375 153.996094 C 120.109375 135.539062 109.554688 120.582031 96.535156 120.582031 " fill-opacity="1" fill-rule="evenodd"/><path fill="#ffe8ba" d="M 96.605469 187.402344 C 109.59375 187.347656 120.109375 172.414062 120.109375 153.996094 C 120.109375 135.574219 109.59375 120.636719 96.605469 120.582031 L 96.605469 187.402344 " fill-opacity="1" fill-rule="evenodd"/><path fill="#616161" d="M 96.097656 138.984375 L 96.046875 138.957031 C 91.9375 136.777344 83.097656 139.300781 80.023438 131.316406 C 74.664062 135.546875 75.644531 136.128906 73.894531 144.640625 C 71.289062 141.894531 66.761719 143.261719 69.226562 153.464844 C 70.199219 157.476562 72.410156 160.890625 73.664062 162.148438 C 75.082031 170.160156 78.542969 177.019531 83.214844 181.558594 L 83.210938 181.558594 C 71.527344 199.121094 75.792969 168.902344 69.816406 177.753906 C 66.34375 138.191406 63.320312 111.742188 95.886719 108.675781 L 96.097656 108.65625 L 96.097656 138.984375 " fill-opacity="1" fill-rule="evenodd"/><path fill="#757575" d="M 119.359375 145.589844 C 112.054688 140.851562 93.84375 140.929688 86.398438 137.007812 L 96.097656 108.65625 C 96.382812 108.632812 96.65625 108.601562 96.945312 108.578125 C 107.164062 108.25 114.058594 112.105469 118.382812 119.925781 L 118.382812 119.929688 L 118.386719 119.933594 C 121.613281 125.773438 123.414062 133.824219 124.105469 143.992188 C 122.710938 142.746094 120.578125 143.574219 119.359375 145.589844 " fill-opacity="1" fill-rule="evenodd"/><path fill="#616161" d="M 109.394531 182 C 114.234375 177.527344 117.84375 170.601562 119.34375 162.46875 C 119.410156 162.589844 119.46875 162.660156 119.527344 162.664062 C 120.1875 162.730469 123.035156 159.171875 124.4375 154.570312 C 124.4375 161.738281 124.050781 169.714844 123.351562 178.480469 C 116.207031 165.738281 124.007812 198.78125 109.394531 182 " fill-opacity="1" fill-rule="evenodd"/><path fill="#ffe8ba" d="M 293.484375 181.203125 L 268.464844 181.550781 C 268.90625 186.429688 266.054688 191.558594 261.894531 195.519531 L 251.425781 209.25 L 250.496094 217.035156 L 264.023438 229.011719 L 282.171875 243.207031 L 314.980469 231.371094 L 314.980469 209.871094 L 303.441406 198.59375 C 297.425781 195.835938 293.957031 186.175781 293.484375 181.203125 " fill-opacity="1" fill-rule="evenodd"/><path fill="#f8d9a1" d="M 293.484375 181.203125 L 268.464844 181.46875 C 268.511719 181.851562 268.519531 182.238281 268.496094 182.621094 L 269.632812 181.457031 C 285.976562 216.949219 315.785156 240.238281 308.75 209.578125 C 307.515625 204.195312 295.902344 195.929688 293.9375 183.25 C 293.710938 182.503906 293.558594 181.808594 293.484375 181.203125 " fill-opacity="1" fill-rule="evenodd"/><path fill="#eb7063" d="M 280.839844 222.535156 L 280.933594 222.449219 C 286.609375 218.488281 292.894531 212.980469 296.363281 206.941406 L 297.945312 204.1875 L 301.054688 204.648438 C 302.878906 204.914062 304.652344 205.621094 306.273438 206.515625 C 305.144531 203.285156 302.839844 201.363281 301.777344 200.621094 L 299.925781 199.320312 L 299.796875 197.074219 C 299.769531 196.664062 299.75 196.300781 299.742188 196.203125 C 299.730469 196.101562 299.710938 195.957031 299.667969 195.726562 L 297.65625 193.441406 C 305.222656 196.191406 320.097656 199.933594 325.492188 202.828125 C 327.226562 203.742188 328.859375 204.925781 330.363281 206.328125 C 334.742188 210.402344 338.324219 216.515625 340.117188 222.859375 C 341.984375 229.457031 341.96875 236.46875 339.035156 242.058594 C 338.292969 243.476562 337.386719 244.78125 336.304688 245.945312 L 336.265625 245.964844 C 334.363281 247.980469 332.25 249.398438 329.933594 250.320312 C 327.625 251.238281 325.210938 251.648438 322.667969 251.648438 L 239.199219 251.648438 C 236.652344 251.648438 234.238281 251.238281 231.933594 250.320312 C 229.613281 249.398438 227.503906 247.980469 225.597656 245.964844 L 225.5625 245.945312 C 224.480469 244.78125 223.574219 243.476562 222.832031 242.058594 C 219.898438 236.46875 219.882812 229.457031 221.75 222.859375 C 223.542969 216.515625 227.121094 210.402344 231.503906 206.328125 C 233.003906 204.925781 234.640625 203.742188 236.371094 202.828125 C 241.769531 199.933594 256.457031 195.996094 264.023438 193.246094 L 261.992188 195.726562 C 261.949219 195.957031 261.925781 196.101562 261.914062 196.203125 C 261.90625 196.300781 261.886719 196.664062 261.863281 197.074219 L 261.734375 199.320312 L 259.882812 200.621094 C 258.820312 201.363281 256.515625 203.285156 255.382812 206.515625 C 257.007812 205.621094 258.78125 204.914062 260.601562 204.648438 L 263.710938 204.1875 L 265.292969 206.941406 C 268.765625 212.980469 275.046875 218.488281 280.726562 222.449219 L 280.839844 222.535156 " fill-opacity="1" fill-rule="nonzero"/><path fill="#eb7063" d="M 281.179688 222.277344 L 281.34375 222.160156 C 286.910156 218.222656 292.976562 212.839844 296.363281 206.941406 L 297.945312 204.1875 L 301.054688 204.648438 C 302.878906 204.914062 304.652344 205.621094 306.273438 206.515625 C 305.144531 203.285156 302.839844 201.363281 301.777344 200.621094 L 299.925781 199.320312 L 299.796875 197.074219 C 299.769531 196.664062 299.75 196.300781 299.742188 196.203125 C 299.730469 196.101562 299.710938 195.957031 299.667969 195.726562 L 297.65625 193.441406 C 305.222656 196.191406 320.097656 199.933594 325.492188 202.828125 C 327.226562 203.742188 328.859375 204.925781 330.363281 206.328125 C 334.742188 210.402344 338.324219 216.515625 340.117188 222.859375 C 341.984375 229.457031 341.96875 236.46875 339.035156 242.058594 C 338.292969 243.476562 337.386719 244.78125 336.304688 245.945312 L 336.265625 245.964844 C 334.363281 247.980469 332.25 249.398438 329.933594 250.320312 C 327.625 251.238281 325.210938 251.648438 322.667969 251.648438 L 281.179688 251.648438 L 281.179688 222.277344 " fill-opacity="1" fill-rule="nonzero"/><path fill="#e36359" d="M 280.839844 222.535156 L 280.933594 222.449219 L 281.179688 222.277344 L 281.179688 251.648438 L 239.199219 251.648438 C 236.652344 251.648438 234.238281 251.238281 231.933594 250.320312 C 229.613281 249.398438 227.503906 247.980469 225.597656 245.964844 L 225.5625 245.945312 C 224.480469 244.78125 223.574219 243.476562 222.832031 242.058594 C 219.898438 236.46875 219.882812 229.457031 221.75 222.859375 C 223.542969 216.515625 227.121094 210.402344 231.503906 206.328125 C 233.003906 204.925781 234.640625 203.742188 236.371094 202.828125 C 241.769531 199.933594 256.457031 195.996094 264.023438 193.246094 L 261.992188 195.726562 C 261.949219 195.957031 261.925781 196.101562 261.914062 196.203125 C 261.90625 196.300781 261.886719 196.664062 261.863281 197.074219 L 261.734375 199.320312 L 259.882812 200.621094 C 258.820312 201.363281 256.515625 203.285156 255.382812 206.515625 C 257.007812 205.621094 258.78125 204.914062 260.601562 204.648438 L 263.710938 204.1875 L 265.292969 206.941406 C 268.765625 212.980469 275.046875 218.488281 280.726562 222.449219 L 280.839844 222.535156 " fill-opacity="1" fill-rule="nonzero"/><path fill="#f2d99e" d="M 255.195312 153.464844 C 256.4375 158.589844 259.691406 162.734375 260.40625 162.664062 C 261.121094 162.59375 262.546875 152.535156 261.3125 147.410156 C 259.960938 141.757812 252.109375 140.710938 255.195312 153.464844 " fill-opacity="1" fill-rule="evenodd"/><path fill="#f2d99e" d="M 310.707031 153.464844 C 309.464844 158.589844 306.207031 162.734375 305.492188 162.664062 C 304.777344 162.59375 303.359375 152.535156 304.585938 147.410156 C 305.9375 141.757812 313.789062 140.710938 310.707031 153.464844 " fill-opacity="1" fill-rule="evenodd"/><path fill="#ffe8ba" d="M 283.398438 120.582031 C 296.421875 120.582031 306.976562 135.539062 306.976562 153.996094 C 306.976562 172.445312 296.421875 187.402344 283.398438 187.402344 C 270.378906 187.402344 259.824219 172.445312 259.824219 153.996094 C 259.824219 135.539062 270.378906 120.582031 283.398438 120.582031 " fill-opacity="1" fill-rule="evenodd"/><path fill="#ffe8ba" d="M 283.328125 187.402344 C 270.339844 187.347656 259.824219 172.414062 259.824219 153.996094 C 259.824219 135.574219 270.339844 120.636719 283.328125 120.582031 L 283.328125 187.402344 " fill-opacity="1" fill-rule="evenodd"/><path fill="#d17d47" d="M 270.539062 182 L 270.542969 182 C 265.699219 177.527344 262.089844 170.601562 260.585938 162.46875 C 260.523438 162.589844 260.464844 162.660156 260.40625 162.664062 C 259.746094 162.730469 256.898438 159.171875 255.496094 154.570312 C 255.496094 161.738281 255.882812 169.714844 256.582031 178.480469 C 263.726562 165.738281 255.925781 198.78125 270.539062 182 Z M 260.574219 145.589844 C 271.925781 138.226562 286.191406 147.273438 294.855469 124.785156 C 300.214844 129.019531 304.289062 136.128906 306.039062 144.640625 C 308.644531 141.894531 313.171875 143.261719 310.707031 153.464844 C 309.734375 157.476562 307.523438 160.890625 306.269531 162.148438 C 304.851562 170.160156 301.390625 177.019531 296.722656 181.558594 C 308.40625 199.121094 304.140625 168.902344 310.117188 177.753906 C 313.625 137.769531 316.679688 111.175781 282.988281 108.578125 C 272.769531 108.25 265.878906 112.105469 261.550781 119.925781 L 261.546875 119.929688 L 261.546875 119.933594 C 258.320312 125.773438 256.519531 133.824219 255.828125 143.992188 C 257.222656 142.746094 259.355469 143.574219 260.574219 145.589844 " fill-opacity="1" fill-rule="evenodd"/><path fill="#c77340" d="M 283.835938 138.984375 L 283.886719 138.957031 C 287.996094 136.777344 291.777344 132.773438 294.855469 124.785156 C 300.214844 129.019531 304.289062 136.128906 306.039062 144.640625 C 308.644531 141.894531 313.171875 143.261719 310.707031 153.464844 C 309.734375 157.476562 307.523438 160.890625 306.269531 162.148438 C 304.851562 170.160156 301.390625 177.019531 296.722656 181.558594 C 308.40625 199.121094 304.140625 168.902344 310.117188 177.753906 C 313.589844 138.191406 316.613281 111.742188 284.046875 108.675781 L 283.835938 108.65625 L 283.835938 138.984375 " fill-opacity="1" fill-rule="evenodd"/><path fill="#d17d47" d="M 260.574219 145.589844 C 267.878906 140.851562 276.386719 142.902344 283.835938 138.984375 L 283.835938 108.65625 C 283.550781 108.632812 283.277344 108.601562 282.988281 108.578125 C 272.769531 108.25 265.878906 112.105469 261.550781 119.925781 L 261.546875 119.929688 L 261.546875 119.933594 C 258.320312 125.773438 256.519531 133.824219 255.828125 143.992188 C 257.222656 142.746094 259.355469 143.574219 260.574219 145.589844 " fill-opacity="1" fill-rule="evenodd"/><path fill="#d17d47" d="M 270.539062 182 L 270.542969 182 C 265.699219 177.527344 262.089844 170.601562 260.585938 162.46875 C 260.523438 162.589844 260.464844 162.660156 260.40625 162.664062 C 259.746094 162.730469 256.898438 159.171875 255.496094 154.570312 C 255.496094 161.738281 255.882812 169.714844 256.582031 178.480469 C 263.726562 165.738281 255.925781 198.78125 270.539062 182 " fill-opacity="1" fill-rule="evenodd"/><path fill="#e8d1a1" d="M 228.234375 149.042969 C 233.371094 150.039062 228.375 174.925781 222.417969 173.773438 C 219.664062 173.242188 218.5 167.300781 219.816406 160.507812 C 221.132812 153.714844 223.09375 148.050781 228.234375 149.042969 " fill-opacity="1" fill-rule="evenodd"/><path fill="#e8d1a1" d="M 159.949219 149.042969 C 154.8125 150.039062 159.804688 174.925781 165.765625 173.773438 C 168.519531 173.242188 169.683594 167.300781 168.367188 160.507812 C 167.046875 153.714844 165.085938 148.050781 159.949219 149.042969 " fill-opacity="1" fill-rule="evenodd"/><path fill="#f8d9a1" d="M 173.078125 185.261719 L 214.972656 185.261719 C 212.765625 199.957031 212.433594 214.652344 214.972656 229.34375 L 173.078125 229.34375 C 175.957031 214.875 175.738281 200.167969 173.078125 185.261719 " fill-opacity="1" fill-rule="evenodd"/><path fill="#edd196" d="M 223.78125 143.148438 C 224.554688 147.523438 221.339844 153.996094 221.339844 158.808594 C 221.339844 184.875 209.152344 206.007812 194.117188 206.007812 C 179.085938 206.007812 166.894531 184.875 166.894531 158.808594 C 166.894531 99.457031 216.058594 99.367188 223.78125 143.148438 " fill-opacity="1" fill-rule="evenodd"/><path fill="#ffe8ba" d="M 193.71875 108.175781 C 206.800781 108.175781 221.746094 120.398438 225.382812 139.714844 C 226.207031 144.089844 222.773438 150.5625 222.773438 155.375 C 222.773438 181.441406 209.765625 202.574219 193.71875 202.574219 C 177.671875 202.574219 164.664062 181.441406 164.664062 155.375 C 164.664062 129.304688 177.671875 108.175781 193.71875 108.175781 " fill-opacity="1" fill-rule="evenodd"/><path fill="#594a4a" d="M 223.492188 159.765625 C 218.453125 171.382812 236.027344 118.027344 199.082031 126.5 C 177.078125 131.550781 167.070312 105.894531 164.78125 159.65625 C 139.554688 81.984375 254.027344 86.953125 223.492188 159.765625 " fill-opacity="1" fill-rule="evenodd"/><path fill="#616161" d="M 194.914062 127.125 C 175.804688 128.53125 166.921875 109.414062 164.78125 159.65625 C 152.402344 121.542969 173.660156 103.34375 194.914062 103.277344 L 194.914062 127.125 " fill-opacity="1" fill-rule="evenodd"/><path fill="#616161" d="M 223.492188 159.765625 C 218.453125 171.382812 236.027344 118.027344 199.082031 126.5 C 197.691406 126.820312 196.351562 127.015625 195.054688 127.117188 C 195.011719 127.121094 194.960938 127.121094 194.914062 127.125 L 194.914062 103.277344 L 195.109375 103.277344 C 217.109375 103.324219 238.996094 122.789062 223.492188 159.765625 " fill-opacity="1" fill-rule="evenodd"/><g clip-path="url(#8dd4cd6d2c)"><path fill="#94a3a3" d="M 221.445312 205.496094 C 233.265625 209.546875 252.855469 216.273438 258.542969 224.800781 L 258.9375 225.484375 C 260.953125 229.761719 262.179688 234.867188 263.429688 240.066406 C 264.457031 244.359375 265.503906 248.71875 267.0625 252.4375 L 267.476562 254.496094 C 267.476562 259.046875 265.636719 263.167969 262.652344 266.152344 C 259.667969 269.136719 255.550781 270.976562 250.996094 270.976562 L 137.058594 270.976562 C 132.503906 270.976562 128.382812 269.136719 125.402344 266.152344 C 122.417969 263.167969 120.578125 259.046875 120.578125 254.496094 C 120.578125 251.832031 121.605469 247.359375 122.992188 242.601562 C 124.832031 236.292969 127.382812 229.171875 128.816406 225.675781 L 128.917969 225.40625 C 133.167969 216.378906 155.511719 209.007812 166.582031 205.355469 C 168.363281 204.769531 169.855469 204.277344 170.558594 204.023438 L 175.035156 202.578125 C 185.441406 220.160156 200.597656 218.410156 213.28125 203.191406 L 217.300781 204.0625 C 217.964844 204.296875 219.625 204.867188 221.445312 205.496094 " fill-opacity="1" fill-rule="nonzero"/></g><g clip-path="url(#8cb8e591d9)"><path fill="#4fc2f8" d="M 194.027344 270.976562 L 137.058594 270.976562 C 132.503906 270.976562 128.382812 269.136719 125.402344 266.152344 C 122.417969 263.167969 120.578125 259.046875 120.578125 254.496094 C 120.578125 251.832031 121.605469 247.359375 122.992188 242.601562 C 124.832031 236.292969 127.382812 229.171875 128.816406 225.675781 L 128.917969 225.40625 C 133.167969 216.378906 155.511719 209.007812 166.582031 205.355469 C 168.363281 204.769531 169.855469 204.277344 170.558594 204.023438 L 175.035156 202.578125 C 180.429688 211.6875 187.089844 215.605469 194.027344 215.152344 L 194.027344 270.976562 " fill-opacity="1" fill-rule="nonzero"/></g><g clip-path="url(#00c4eb76f8)"><path fill="#29b5f5" d="M 221.445312 205.496094 C 233.265625 209.546875 252.855469 216.273438 258.542969 224.800781 L 258.9375 225.484375 C 260.953125 229.761719 262.179688 234.867188 263.429688 240.066406 C 264.457031 244.359375 265.503906 248.71875 267.0625 252.4375 L 267.476562 254.496094 C 267.476562 259.046875 265.636719 263.167969 262.652344 266.152344 C 259.667969 269.136719 255.550781 270.976562 250.996094 270.976562 L 194.027344 270.976562 L 194.027344 215.152344 C 194.09375 215.148438 194.164062 215.140625 194.230469 215.132812 C 200.621094 214.640625 207.230469 210.449219 213.28125 203.191406 L 217.300781 204.0625 C 217.964844 204.296875 219.625 204.867188 221.445312 205.496094 " fill-opacity="1" fill-rule="nonzero"/></g><path fill="#29b5f5" d="M 170.558594 204.023438 L 175.035156 202.578125 C 185.441406 220.160156 200.597656 218.410156 213.28125 203.191406 L 217.300781 204.0625 C 203.523438 225.214844 181.328125 226.996094 170.558594 204.023438 " fill-opacity="1" fill-rule="nonzero"/></svg>