<svg xmlns="http://www.w3.org/2000/svg" xmlns:xlink="http://www.w3.org/1999/xlink" width="500" zoomAndPan="magnify" viewBox="0 0 375 374.999991" height="500" preserveAspectRatio="xMidYMid meet" version="1.0"><defs><clipPath id="52db227981"><path d="M 0 52.5 L 289 52.5 L 289 374.878906 L 0 374.878906 Z M 0 52.5 " clip-rule="nonzero"/></clipPath></defs><g clip-path="url(#52db227981)"><path fill="#7a7979" d="M 96.523438 247.695312 L 142.574219 119.320312 L 189.460938 247.695312 Z M 197.746094 111.683594 C 193.925781 101.632812 190.765625 93.601562 188.300781 87.59375 C 185.824219 81.585938 182.785156 75.960938 179.171875 70.71875 C 175.566406 65.488281 170.816406 61.214844 164.953125 57.890625 C 159.078125 54.5625 151.765625 52.898438 142.992188 52.898438 C 134.363281 52.898438 127.109375 54.5625 121.234375 57.890625 C 115.371094 61.214844 110.632812 65.558594 107.015625 70.933594 C 103.414062 76.320312 100.027344 83.070312 96.832031 91.207031 C 93.648438 99.332031 90.933594 106.296875 88.671875 112.101562 L 9.097656 314.117188 C 5.84375 322.183594 3.507812 328.464844 2.097656 333.003906 C 0.683594 337.527344 -0.0351562 341.917969 -0.0351562 346.15625 C -0.0351562 353.515625 3.007812 360.097656 9.097656 365.890625 C 15.175781 371.695312 22.179688 374.589844 30.101562 374.589844 C 39.4375 374.589844 46.148438 371.859375 50.265625 366.414062 C 54.359375 360.984375 59.3125 350.476562 65.117188 334.90625 L 79.96875 295.015625 L 206.445312 295.015625 L 221.296875 334.054688 C 223.269531 338.867188 225.640625 344.417969 228.40625 350.714844 C 231.15625 357.019531 233.742188 361.675781 236.148438 364.714844 C 238.554688 367.769531 241.523438 370.171875 245.050781 371.933594 C 248.59375 373.703125 252.832031 374.589844 257.785156 374.589844 C 266.28125 374.589844 273.523438 371.585938 279.542969 365.578125 C 285.550781 359.558594 288.554688 352.953125 288.554688 345.734375 C 288.554688 338.792969 285.371094 327.6875 279.003906 312.417969 L 197.746094 111.683594 " fill-opacity="1" fill-rule="nonzero"/></g><path fill="#7a7979" d="M 353.625 65.367188 L 262.742188 65.367188 C 250.917969 65.367188 241.332031 74.941406 241.332031 86.777344 C 241.332031 98.589844 250.917969 108.175781 262.742188 108.175781 L 353.625 108.175781 C 365.449219 108.175781 375.035156 98.589844 375.035156 86.777344 C 375.035156 74.941406 365.449219 65.367188 353.625 65.367188 " fill-opacity="1" fill-rule="nonzero"/></svg>