<svg xmlns="http://www.w3.org/2000/svg" xmlns:xlink="http://www.w3.org/1999/xlink" width="500" zoomAndPan="magnify" viewBox="0 0 375 374.999991" height="500" preserveAspectRatio="xMidYMid meet" version="1.0"><defs><clipPath id="fd2a4aee20"><path d="M 106 270 L 169 270 L 169 332.929688 L 106 332.929688 Z M 106 270 " clip-rule="nonzero"/></clipPath><clipPath id="8fe374a8f6"><path d="M 289 270 L 351.902344 270 L 351.902344 332.929688 L 289 332.929688 Z M 289 270 " clip-rule="nonzero"/></clipPath></defs><path fill="#7ed957" d="M 118.796875 226.339844 C 119.195312 228.171875 119.636719 230.019531 120.117188 231.886719 C 122.386719 240.898438 129.515625 245.898438 138.492188 245.878906 C 200.90625 245.773438 264.308594 245.773438 328.695312 245.878906 C 342.28125 245.914062 341.929688 266.578125 328.605469 266.542969 C 264.832031 266.332031 202.402344 266.363281 141.328125 266.632812 C 134.039062 266.667969 128.308594 265.875 124.128906 264.253906 C 115.855469 261.050781 109.425781 255.777344 104.839844 248.429688 C 100.984375 242.253906 99.699219 235.917969 98.148438 228.648438 C 87.285156 177.789062 76.390625 127.035156 65.464844 76.375 C 63.652344 68.035156 55.5 62.734375 46.914062 63.015625 C 42.566406 63.15625 36.542969 63.933594 32.761719 61.574219 C 23.625 55.886719 27.074219 42.707031 37.847656 42.421875 C 44.21875 42.265625 51.101562 41.859375 57.332031 43.425781 C 73.261719 47.441406 83.347656 59.53125 86.570312 75.375 C 87.683594 80.851562 88.761719 86.058594 89.808594 90.984375 C 89.878906 91.328125 90.050781 91.613281 90.324219 91.832031 C 90.597656 92.054688 90.914062 92.164062 91.269531 92.164062 C 166.90625 92.117188 242.507812 92.117188 318.0625 92.164062 C 325.175781 92.164062 328.695312 97.570312 328.675781 103.886719 C 328.664062 134.691406 328.671875 162.78125 328.695312 188.164062 C 328.710938 209.023438 313.3125 225.039062 292.277344 225.058594 C 239.332031 225.082031 181.855469 225.074219 119.851562 225.039062 C 118.960938 225.039062 118.609375 225.472656 118.796875 226.339844 Z M 298.808594 203.179688 C 303.71875 201.1875 307.820312 195.785156 307.820312 190.277344 C 307.820312 164.355469 307.824219 138.738281 307.835938 113.429688 C 307.835938 113.074219 307.660156 112.898438 307.308594 112.898438 L 95.773438 112.933594 C 94.976562 112.933594 94.660156 113.328125 94.824219 114.113281 L 113.902344 203.089844 C 113.980469 203.449219 114.164062 203.746094 114.453125 203.976562 C 114.738281 204.207031 115.066406 204.324219 115.433594 204.320312 C 174.011719 204.285156 231.6875 204.28125 288.457031 204.304688 C 293.480469 204.304688 296.929688 203.929688 298.808594 203.179688 Z M 298.808594 203.179688 " fill-opacity="1" fill-rule="nonzero"/><g clip-path="url(#fd2a4aee20)"><path fill="#7ed957" d="M 168.625 301.886719 C 168.625 302.90625 168.578125 303.921875 168.476562 304.9375 C 168.375 305.953125 168.226562 306.957031 168.027344 307.957031 C 167.828125 308.957031 167.582031 309.945312 167.285156 310.921875 C 166.992188 311.894531 166.648438 312.855469 166.257812 313.796875 C 165.867188 314.738281 165.433594 315.65625 164.953125 316.558594 C 164.472656 317.457031 163.949219 318.328125 163.382812 319.175781 C 162.816406 320.023438 162.210938 320.839844 161.5625 321.628906 C 160.917969 322.417969 160.234375 323.171875 159.511719 323.890625 C 158.792969 324.613281 158.035156 325.296875 157.25 325.941406 C 156.460938 326.589844 155.644531 327.195312 154.796875 327.761719 C 153.949219 328.328125 153.074219 328.851562 152.175781 329.332031 C 151.277344 329.8125 150.359375 330.246094 149.417969 330.636719 C 148.472656 331.027344 147.515625 331.371094 146.539062 331.667969 C 145.566406 331.960938 144.578125 332.210938 143.578125 332.410156 C 142.578125 332.609375 141.570312 332.757812 140.558594 332.855469 C 139.542969 332.957031 138.527344 333.007812 137.507812 333.007812 C 136.488281 333.007812 135.472656 332.957031 134.457031 332.855469 C 133.441406 332.757812 132.4375 332.609375 131.4375 332.410156 C 130.4375 332.210938 129.449219 331.960938 128.472656 331.667969 C 127.5 331.371094 126.539062 331.027344 125.597656 330.636719 C 124.65625 330.246094 123.738281 329.8125 122.835938 329.332031 C 121.9375 328.851562 121.066406 328.328125 120.21875 327.761719 C 119.371094 327.195312 118.554688 326.589844 117.765625 325.941406 C 116.976562 325.296875 116.222656 324.613281 115.503906 323.890625 C 114.78125 323.171875 114.097656 322.417969 113.453125 321.628906 C 112.804688 320.839844 112.199219 320.023438 111.632812 319.175781 C 111.066406 318.328125 110.542969 317.457031 110.0625 316.558594 C 109.582031 315.65625 109.148438 314.738281 108.757812 313.796875 C 108.367188 312.855469 108.023438 311.894531 107.726562 310.921875 C 107.433594 309.945312 107.183594 308.957031 106.984375 307.957031 C 106.785156 306.957031 106.636719 305.953125 106.539062 304.9375 C 106.4375 303.921875 106.386719 302.90625 106.386719 301.886719 C 106.386719 300.867188 106.4375 299.851562 106.539062 298.835938 C 106.636719 297.824219 106.785156 296.816406 106.984375 295.816406 C 107.183594 294.816406 107.433594 293.828125 107.726562 292.855469 C 108.023438 291.878906 108.367188 290.921875 108.757812 289.976562 C 109.148438 289.035156 109.582031 288.117188 110.0625 287.21875 C 110.542969 286.320312 111.066406 285.445312 111.632812 284.597656 C 112.199219 283.75 112.804688 282.933594 113.453125 282.144531 C 114.097656 281.359375 114.78125 280.601562 115.503906 279.882812 C 116.222656 279.160156 116.976562 278.476562 117.765625 277.832031 C 118.554688 277.183594 119.371094 276.578125 120.21875 276.011719 C 121.066406 275.445312 121.9375 274.921875 122.835938 274.441406 C 123.738281 273.960938 124.65625 273.527344 125.597656 273.136719 C 126.539062 272.746094 127.5 272.402344 128.472656 272.109375 C 129.449219 271.8125 130.4375 271.566406 131.4375 271.367188 C 132.4375 271.167969 133.441406 271.019531 134.457031 270.917969 C 135.472656 270.816406 136.488281 270.769531 137.507812 270.769531 C 138.527344 270.769531 139.542969 270.816406 140.558594 270.917969 C 141.570312 271.019531 142.578125 271.167969 143.578125 271.367188 C 144.578125 271.566406 145.566406 271.8125 146.539062 272.109375 C 147.515625 272.402344 148.472656 272.746094 149.417969 273.136719 C 150.359375 273.527344 151.277344 273.960938 152.175781 274.441406 C 153.074219 274.921875 153.949219 275.445312 154.796875 276.011719 C 155.644531 276.578125 156.460938 277.183594 157.25 277.832031 C 158.035156 278.476562 158.792969 279.160156 159.511719 279.882812 C 160.234375 280.601562 160.917969 281.359375 161.5625 282.144531 C 162.210938 282.933594 162.816406 283.75 163.382812 284.597656 C 163.949219 285.445312 164.472656 286.320312 164.953125 287.21875 C 165.433594 288.117188 165.867188 289.035156 166.257812 289.976562 C 166.648438 290.921875 166.992188 291.878906 167.285156 292.855469 C 167.582031 293.828125 167.828125 294.816406 168.027344 295.816406 C 168.226562 296.816406 168.375 297.824219 168.476562 298.835938 C 168.578125 299.851562 168.625 300.867188 168.625 301.886719 Z M 147.875 301.90625 C 147.875 301.222656 147.808594 300.550781 147.675781 299.882812 C 147.542969 299.214844 147.347656 298.566406 147.085938 297.9375 C 146.824219 297.308594 146.503906 296.710938 146.128906 296.144531 C 145.75 295.578125 145.320312 295.054688 144.839844 294.574219 C 144.355469 294.09375 143.832031 293.664062 143.265625 293.285156 C 142.699219 292.90625 142.101562 292.585938 141.472656 292.328125 C 140.84375 292.066406 140.199219 291.871094 139.53125 291.738281 C 138.863281 291.605469 138.1875 291.539062 137.507812 291.539062 C 136.828125 291.539062 136.152344 291.605469 135.484375 291.738281 C 134.816406 291.871094 134.167969 292.066406 133.539062 292.328125 C 132.910156 292.585938 132.3125 292.90625 131.746094 293.285156 C 131.179688 293.664062 130.65625 294.09375 130.175781 294.574219 C 129.695312 295.054688 129.265625 295.578125 128.886719 296.144531 C 128.507812 296.710938 128.191406 297.308594 127.929688 297.9375 C 127.667969 298.566406 127.472656 299.214844 127.339844 299.882812 C 127.207031 300.550781 127.140625 301.222656 127.140625 301.90625 C 127.140625 302.585938 127.207031 303.257812 127.339844 303.925781 C 127.472656 304.59375 127.667969 305.242188 127.929688 305.871094 C 128.191406 306.5 128.507812 307.097656 128.886719 307.664062 C 129.265625 308.230469 129.695312 308.753906 130.175781 309.234375 C 130.65625 309.71875 131.179688 310.148438 131.746094 310.523438 C 132.3125 310.902344 132.910156 311.222656 133.539062 311.484375 C 134.167969 311.742188 134.816406 311.941406 135.484375 312.074219 C 136.152344 312.207031 136.828125 312.273438 137.507812 312.273438 C 138.1875 312.273438 138.863281 312.207031 139.53125 312.074219 C 140.199219 311.941406 140.84375 311.742188 141.472656 311.484375 C 142.101562 311.222656 142.699219 310.902344 143.265625 310.523438 C 143.832031 310.148438 144.355469 309.71875 144.839844 309.234375 C 145.320312 308.753906 145.75 308.230469 146.128906 307.664062 C 146.503906 307.097656 146.824219 306.5 147.085938 305.871094 C 147.347656 305.242188 147.542969 304.59375 147.675781 303.925781 C 147.808594 303.257812 147.875 302.585938 147.875 301.90625 Z M 147.875 301.90625 " fill-opacity="1" fill-rule="nonzero"/></g><g clip-path="url(#8fe374a8f6)"><path fill="#7ed957" d="M 351.382812 301.90625 C 351.382812 302.925781 351.332031 303.941406 351.234375 304.953125 C 351.132812 305.96875 350.984375 306.976562 350.785156 307.976562 C 350.585938 308.976562 350.339844 309.964844 350.042969 310.9375 C 349.746094 311.914062 349.402344 312.871094 349.015625 313.8125 C 348.625 314.753906 348.1875 315.675781 347.707031 316.574219 C 347.226562 317.472656 346.703125 318.347656 346.136719 319.195312 C 345.570312 320.042969 344.964844 320.859375 344.320312 321.648438 C 343.671875 322.433594 342.988281 323.1875 342.269531 323.910156 C 341.546875 324.628906 340.792969 325.3125 340.003906 325.960938 C 339.21875 326.605469 338.398438 327.214844 337.550781 327.78125 C 336.707031 328.347656 335.832031 328.871094 334.933594 329.351562 C 334.035156 329.832031 333.113281 330.265625 332.171875 330.65625 C 331.230469 331.046875 330.273438 331.386719 329.296875 331.683594 C 328.320312 331.980469 327.335938 332.226562 326.335938 332.425781 C 325.335938 332.625 324.328125 332.773438 323.3125 332.875 C 322.300781 332.972656 321.28125 333.023438 320.261719 333.023438 C 319.246094 333.023438 318.226562 332.972656 317.214844 332.875 C 316.199219 332.773438 315.191406 332.625 314.191406 332.425781 C 313.191406 332.226562 312.207031 331.980469 311.230469 331.683594 C 310.253906 331.386719 309.296875 331.046875 308.355469 330.65625 C 307.414062 330.265625 306.492188 329.832031 305.59375 329.351562 C 304.695312 328.871094 303.820312 328.347656 302.972656 327.78125 C 302.128906 327.214844 301.308594 326.605469 300.523438 325.960938 C 299.734375 325.3125 298.980469 324.628906 298.257812 323.910156 C 297.539062 323.1875 296.855469 322.433594 296.207031 321.648438 C 295.5625 320.859375 294.953125 320.042969 294.386719 319.195312 C 293.824219 318.347656 293.300781 317.472656 292.820312 316.574219 C 292.339844 315.675781 291.902344 314.753906 291.511719 313.8125 C 291.121094 312.871094 290.78125 311.914062 290.484375 310.9375 C 290.1875 309.964844 289.941406 308.976562 289.742188 307.976562 C 289.542969 306.976562 289.394531 305.96875 289.292969 304.957031 C 289.195312 303.941406 289.144531 302.925781 289.144531 301.90625 C 289.144531 300.886719 289.195312 299.867188 289.292969 298.855469 C 289.394531 297.839844 289.542969 296.832031 289.742188 295.832031 C 289.941406 294.835938 290.1875 293.847656 290.484375 292.871094 C 290.78125 291.894531 291.121094 290.9375 291.511719 289.996094 C 291.902344 289.054688 292.339844 288.132812 292.820312 287.234375 C 293.300781 286.335938 293.824219 285.464844 294.386719 284.617188 C 294.953125 283.769531 295.5625 282.949219 296.207031 282.164062 C 296.855469 281.375 297.539062 280.621094 298.257812 279.898438 C 298.980469 279.179688 299.734375 278.496094 300.523438 277.847656 C 301.308594 277.203125 302.128906 276.597656 302.972656 276.03125 C 303.820312 275.464844 304.695312 274.941406 305.59375 274.460938 C 306.492188 273.980469 307.414062 273.542969 308.355469 273.152344 C 309.296875 272.765625 310.253906 272.421875 311.230469 272.125 C 312.207031 271.828125 313.191406 271.582031 314.191406 271.382812 C 315.191406 271.183594 316.199219 271.035156 317.214844 270.933594 C 318.226562 270.835938 319.246094 270.785156 320.261719 270.785156 C 321.28125 270.785156 322.300781 270.835938 323.3125 270.933594 C 324.328125 271.035156 325.335938 271.183594 326.335938 271.382812 C 327.335938 271.582031 328.320312 271.828125 329.296875 272.125 C 330.273438 272.421875 331.230469 272.765625 332.171875 273.152344 C 333.113281 273.542969 334.035156 273.980469 334.933594 274.460938 C 335.832031 274.941406 336.707031 275.464844 337.550781 276.03125 C 338.398438 276.597656 339.21875 277.203125 340.003906 277.847656 C 340.792969 278.496094 341.546875 279.179688 342.269531 279.898438 C 342.988281 280.621094 343.671875 281.375 344.320312 282.164062 C 344.964844 282.949219 345.570312 283.769531 346.136719 284.617188 C 346.703125 285.464844 347.226562 286.335938 347.707031 287.234375 C 348.1875 288.132812 348.625 289.054688 349.015625 289.996094 C 349.402344 290.9375 349.746094 291.894531 350.042969 292.871094 C 350.339844 293.847656 350.585938 294.835938 350.785156 295.832031 C 350.984375 296.832031 351.132812 297.839844 351.234375 298.855469 C 351.332031 299.867188 351.382812 300.886719 351.382812 301.90625 Z M 330.648438 301.886719 C 330.648438 301.207031 330.582031 300.53125 330.449219 299.863281 C 330.316406 299.195312 330.121094 298.546875 329.859375 297.917969 C 329.597656 297.289062 329.28125 296.695312 328.902344 296.128906 C 328.523438 295.5625 328.09375 295.039062 327.613281 294.554688 C 327.128906 294.074219 326.605469 293.644531 326.039062 293.265625 C 325.476562 292.890625 324.878906 292.570312 324.25 292.308594 C 323.621094 292.046875 322.972656 291.851562 322.304688 291.71875 C 321.636719 291.585938 320.960938 291.519531 320.28125 291.519531 C 319.601562 291.519531 318.925781 291.585938 318.257812 291.71875 C 317.589844 291.851562 316.941406 292.046875 316.3125 292.308594 C 315.683594 292.570312 315.085938 292.890625 314.519531 293.265625 C 313.957031 293.644531 313.433594 294.074219 312.949219 294.554688 C 312.46875 295.039062 312.039062 295.5625 311.660156 296.128906 C 311.28125 296.695312 310.964844 297.289062 310.703125 297.917969 C 310.441406 298.546875 310.246094 299.195312 310.113281 299.863281 C 309.980469 300.53125 309.914062 301.207031 309.914062 301.886719 C 309.914062 302.566406 309.980469 303.242188 310.113281 303.910156 C 310.246094 304.578125 310.441406 305.226562 310.703125 305.855469 C 310.964844 306.484375 311.28125 307.082031 311.660156 307.648438 C 312.039062 308.214844 312.46875 308.738281 312.949219 309.21875 C 313.433594 309.699219 313.957031 310.128906 314.519531 310.507812 C 315.085938 310.886719 315.683594 311.203125 316.3125 311.464844 C 316.941406 311.726562 317.589844 311.921875 318.257812 312.054688 C 318.925781 312.1875 319.601562 312.253906 320.28125 312.253906 C 320.960938 312.253906 321.636719 312.1875 322.304688 312.054688 C 322.972656 311.921875 323.621094 311.726562 324.25 311.464844 C 324.878906 311.203125 325.476562 310.886719 326.039062 310.507812 C 326.605469 310.128906 327.128906 309.699219 327.613281 309.21875 C 328.09375 308.738281 328.523438 308.214844 328.902344 307.648438 C 329.28125 307.082031 329.597656 306.484375 329.859375 305.855469 C 330.121094 305.226562 330.316406 304.578125 330.449219 303.910156 C 330.582031 303.242188 330.648438 302.566406 330.648438 301.886719 Z M 330.648438 301.886719 " fill-opacity="1" fill-rule="nonzero"/></g></svg>