<svg xmlns="http://www.w3.org/2000/svg" xmlns:xlink="http://www.w3.org/1999/xlink" width="500" zoomAndPan="magnify" viewBox="0 0 375 374.999991" height="500" preserveAspectRatio="xMidYMid meet" version="1.0"><defs><g/><clipPath id="c9d069f6be"><path d="M 105.332031 15.988281 L 269.582031 15.988281 L 269.582031 241.738281 L 105.332031 241.738281 Z M 105.332031 15.988281 " clip-rule="nonzero"/></clipPath><clipPath id="dff8f46e11"><path d="M 183.476562 179.523438 L 183.476562 153.410156 C 182.882812 153.347656 182.289062 153.214844 181.761719 153.082031 C 180.707031 152.882812 179.71875 152.621094 178.792969 152.289062 C 177.804688 152.027344 176.816406 151.632812 175.894531 151.171875 C 175.300781 150.90625 174.707031 150.640625 174.179688 150.3125 C 173.191406 151.367188 172.132812 152.355469 171.078125 153.214844 C 169.628906 154.335938 168.113281 155.324219 166.53125 156.179688 C 164.550781 157.238281 162.441406 158.027344 160.199219 158.621094 C 158.089844 159.148438 155.847656 159.414062 153.539062 159.414062 C 149.714844 159.414062 146.085938 158.621094 142.789062 157.300781 C 139.359375 155.851562 136.261719 153.742188 133.691406 151.171875 C 131.117188 148.597656 129.007812 145.5 127.625 142.070312 C 126.238281 138.773438 125.449219 135.144531 125.449219 131.320312 L 125.511719 130.199219 C 124.789062 129.144531 124.0625 128.089844 123.46875 127.035156 C 122.808594 125.78125 122.28125 124.527344 121.753906 123.144531 C 121.226562 121.628906 120.765625 120.046875 120.5 118.460938 C 120.238281 116.878906 120.105469 115.296875 120.105469 113.648438 C 120.105469 110.878906 120.5 108.175781 121.292969 105.605469 C 122.019531 102.964844 123.207031 100.527344 124.65625 98.285156 C 125.910156 96.4375 127.359375 94.65625 129.007812 93.140625 C 130.328125 91.886719 131.777344 90.832031 133.292969 89.84375 L 133.03125 88.988281 C 132.765625 88.328125 132.570312 87.601562 132.371094 86.941406 C 132.109375 85.753906 131.84375 84.566406 131.710938 83.382812 C 131.582031 82.195312 131.449219 81.007812 131.449219 79.820312 C 131.449219 76.0625 132.238281 72.433594 133.625 69.070312 C 135.007812 65.644531 137.121094 62.542969 139.691406 59.972656 C 142.261719 57.398438 145.363281 55.289062 148.792969 53.90625 C 152.089844 52.519531 155.714844 51.792969 159.539062 51.792969 C 159.933594 51.792969 160.398438 51.792969 160.925781 51.792969 L 161.648438 51.859375 C 162.574219 49.75 163.695312 47.773438 165.011719 45.992188 C 166.59375 43.882812 168.441406 41.96875 170.550781 40.386719 C 172.992188 38.605469 175.695312 37.15625 178.597656 36.167969 C 181.367188 35.175781 184.398438 34.714844 187.5 34.714844 C 190.597656 34.714844 193.632812 35.175781 196.402344 36.167969 C 199.367188 37.15625 202.007812 38.605469 204.445312 40.386719 C 206.554688 41.96875 208.402344 43.882812 209.984375 45.992188 C 211.304688 47.773438 212.492188 49.75 213.347656 51.859375 L 214.074219 51.792969 C 214.601562 51.792969 215.0625 51.792969 215.457031 51.792969 C 219.285156 51.792969 222.910156 52.519531 226.207031 53.90625 C 229.636719 55.289062 232.734375 57.398438 235.308594 59.972656 C 237.878906 62.542969 239.988281 65.644531 241.441406 69.070312 C 242.757812 72.433594 243.550781 76.0625 243.550781 79.820312 C 243.550781 81.007812 243.484375 82.195312 243.285156 83.382812 C 243.15625 84.566406 242.890625 85.753906 242.628906 86.941406 C 242.429688 87.667969 242.230469 88.328125 242.035156 88.988281 L 241.703125 89.84375 C 243.21875 90.832031 244.671875 91.953125 246.054688 93.140625 C 247.636719 94.65625 249.089844 96.4375 250.34375 98.285156 C 251.792969 100.527344 252.980469 102.964844 253.769531 105.605469 C 254.496094 108.175781 254.957031 110.878906 254.957031 113.648438 C 254.957031 115.296875 254.761719 116.878906 254.496094 118.460938 C 254.234375 120.046875 253.835938 121.628906 253.242188 123.144531 C 252.78125 124.527344 252.1875 125.78125 251.527344 127.035156 C 250.9375 128.089844 250.277344 129.144531 249.484375 130.199219 L 249.550781 131.320312 C 249.550781 135.144531 248.824219 138.773438 247.441406 142.070312 C 245.988281 145.5 243.945312 148.597656 241.308594 151.171875 C 236.230469 156.246094 229.242188 159.414062 221.527344 159.414062 C 219.21875 159.414062 216.976562 159.148438 214.800781 158.621094 C 212.625 158.027344 210.511719 157.238281 208.46875 156.179688 C 206.886719 155.324219 205.371094 154.335938 203.984375 153.214844 C 202.863281 152.355469 201.808594 151.367188 200.886719 150.3125 C 200.292969 150.640625 199.699219 150.90625 199.105469 151.171875 C 198.183594 151.632812 197.191406 152.027344 196.269531 152.289062 C 195.28125 152.621094 194.292969 152.882812 193.300781 153.082031 C 192.707031 153.214844 192.113281 153.347656 191.523438 153.410156 L 191.523438 179.460938 C 196.664062 176.558594 202.074219 174.25 207.875 172.667969 C 214.207031 170.886719 220.933594 169.898438 227.789062 169.898438 C 230.957031 169.898438 234.121094 170.09375 237.21875 170.492188 C 240.386719 170.953125 243.484375 171.546875 246.582031 172.335938 C 249.089844 172.996094 251.59375 173.789062 253.96875 174.710938 C 255.882812 175.4375 257.726562 176.292969 259.574219 177.152344 C 260.167969 174.578125 260.628906 172.007812 261.023438 169.371094 C 261.421875 166.269531 261.617188 163.039062 261.617188 159.742188 L 261.617188 98.152344 C 261.617188 88.195312 259.640625 78.632812 256.011719 69.929688 C 252.253906 60.828125 246.714844 52.652344 239.855469 45.792969 C 233 39.003906 224.824219 33.464844 215.789062 29.703125 C 207.085938 26.078125 197.523438 24.03125 187.5 24.03125 C 177.542969 24.03125 167.980469 26.078125 159.277344 29.703125 C 150.175781 33.464844 142 39.003906 135.140625 45.792969 C 128.347656 52.652344 122.808594 60.828125 119.050781 69.929688 C 115.425781 78.632812 113.378906 88.195312 113.378906 98.152344 L 113.378906 159.742188 C 113.378906 163.039062 113.644531 166.269531 114.039062 169.371094 C 114.371094 172.007812 114.832031 174.578125 115.488281 177.152344 C 117.46875 176.226562 119.445312 175.304688 121.558594 174.578125 C 124.128906 173.589844 126.765625 172.734375 129.46875 172.074219 C 132.371094 171.347656 135.339844 170.820312 138.304688 170.425781 C 141.273438 170.09375 144.242188 169.898438 147.207031 169.898438 C 150.96875 169.898438 154.792969 170.226562 158.550781 170.753906 C 162.308594 171.347656 166.003906 172.273438 169.628906 173.390625 C 172.398438 174.316406 175.167969 175.371094 177.804688 176.625 C 179.785156 177.480469 181.628906 178.46875 183.476562 179.523438 Z M 136.394531 213.289062 C 136.855469 213.089844 137.316406 212.957031 137.777344 212.824219 C 138.570312 212.5625 139.296875 212.363281 140.085938 212.167969 C 141.273438 211.902344 142.460938 211.703125 143.648438 211.574219 C 144.835938 211.441406 146.019531 211.375 147.207031 211.375 C 148.59375 211.375 150.042969 211.441406 151.496094 211.640625 C 152.878906 211.835938 154.265625 212.101562 155.648438 212.496094 C 156.703125 212.824219 157.757812 213.15625 158.8125 213.550781 C 159.34375 213.75 159.871094 214.011719 160.460938 214.210938 C 161.253906 212.296875 162.242188 210.320312 163.230469 208.472656 C 164.222656 206.628906 165.277344 204.78125 166.464844 203.066406 C 165.539062 202.605469 164.617188 202.210938 163.628906 201.8125 C 162.242188 201.285156 160.792969 200.757812 159.277344 200.363281 C 157.296875 199.769531 155.320312 199.375 153.339844 199.109375 C 151.363281 198.847656 149.320312 198.714844 147.207031 198.714844 C 145.164062 198.714844 143.121094 198.847656 141.074219 199.109375 C 139.03125 199.375 137.054688 199.835938 135.074219 200.363281 C 133.558594 200.824219 132.042969 201.351562 130.523438 201.945312 C 129.535156 202.339844 128.546875 202.738281 127.625 203.265625 C 128.613281 204.582031 129.601562 205.902344 130.65625 207.222656 C 132.109375 208.871094 133.625 210.519531 135.140625 212.101562 Z M 157.691406 221.792969 C 157.164062 221.597656 156.636719 221.332031 156.175781 221.132812 C 155.253906 220.804688 154.394531 220.476562 153.539062 220.277344 C 152.550781 220.015625 151.496094 219.75 150.441406 219.617188 C 149.382812 219.484375 148.328125 219.421875 147.207031 219.421875 C 146.285156 219.421875 145.429688 219.484375 144.503906 219.550781 L 143.976562 219.617188 C 145.691406 220.9375 147.539062 222.125 149.382812 223.246094 C 151.625 224.628906 153.933594 225.816406 156.308594 226.9375 C 156.507812 226.144531 156.636719 225.421875 156.835938 224.628906 C 157.101562 223.707031 157.363281 222.785156 157.691406 221.792969 Z M 123.207031 196.472656 C 124.523438 195.746094 125.910156 195.152344 127.292969 194.558594 C 129.140625 193.769531 131.050781 193.175781 132.898438 192.648438 C 135.207031 191.988281 137.582031 191.460938 140.019531 191.132812 C 142.394531 190.800781 144.835938 190.601562 147.207031 190.601562 C 149.582031 190.601562 152.023438 190.800781 154.394531 191.132812 C 156.769531 191.460938 159.144531 191.921875 161.453125 192.582031 C 163.363281 193.109375 165.210938 193.769531 166.992188 194.492188 C 168.441406 195.085938 169.894531 195.746094 171.277344 196.472656 C 172.53125 195.023438 173.78125 193.570312 175.101562 192.253906 C 176.683594 190.601562 178.332031 189.019531 180.113281 187.570312 L 180.574219 187.109375 C 178.730469 185.988281 176.816406 185 174.902344 184.140625 C 172.398438 182.953125 169.828125 181.898438 167.121094 181.042969 C 163.957031 180.050781 160.660156 179.261719 157.296875 178.734375 C 154 178.207031 150.636719 177.941406 147.207031 177.941406 C 144.570312 177.941406 141.867188 178.140625 139.230469 178.46875 C 136.589844 178.800781 133.953125 179.261719 131.382812 179.921875 C 128.875 180.515625 126.371094 181.304688 123.863281 182.230469 C 121.820312 183.085938 119.777344 183.941406 117.796875 184.933594 C 118.523438 186.910156 119.378906 188.890625 120.304688 190.867188 C 121.160156 192.78125 122.148438 194.625 123.207031 196.472656 Z M 197.523438 233.203125 C 198.511719 230.367188 199.832031 227.730469 201.414062 225.355469 C 203.257812 222.652344 205.5 220.277344 208.074219 218.234375 C 210.84375 216.058594 213.941406 214.277344 217.371094 213.15625 C 220.667969 211.96875 224.164062 211.375 227.789062 211.375 C 228.910156 211.375 230.097656 211.441406 231.21875 211.574219 C 232.339844 211.703125 233.527344 211.835938 234.648438 212.101562 C 235.503906 212.296875 236.296875 212.496094 237.085938 212.761719 C 237.617188 212.957031 238.144531 213.089844 238.671875 213.289062 L 239.855469 212.101562 C 241.441406 210.519531 242.890625 208.871094 244.339844 207.222656 C 245.398438 205.902344 246.453125 204.582031 247.441406 203.265625 C 246.453125 202.738281 245.460938 202.339844 244.472656 201.945312 C 242.957031 201.351562 241.441406 200.824219 239.921875 200.363281 C 237.945312 199.835938 235.96875 199.375 233.921875 199.109375 C 231.945312 198.847656 229.898438 198.714844 227.789062 198.714844 C 222.25 198.714844 216.910156 199.703125 211.964844 201.550781 C 206.886719 203.527344 202.203125 206.363281 198.246094 209.925781 C 194.554688 213.222656 191.390625 217.113281 188.949219 221.464844 C 186.773438 225.222656 185.191406 229.378906 184.269531 233.796875 L 185.058594 233.863281 C 185.785156 233.863281 186.574219 233.863281 187.5 233.863281 C 189.34375 233.863281 191.191406 233.796875 192.972656 233.664062 C 194.488281 233.53125 196.003906 233.398438 197.523438 233.203125 Z M 231.085938 219.617188 L 230.425781 219.550781 C 229.570312 219.484375 228.714844 219.421875 227.789062 219.421875 C 225.085938 219.421875 222.449219 219.882812 219.941406 220.738281 C 217.4375 221.597656 215.128906 222.914062 213.019531 224.5625 C 211.503906 225.75 210.117188 227.203125 208.863281 228.785156 C 208.269531 229.507812 207.742188 230.367188 207.214844 231.222656 C 211.566406 229.972656 215.722656 228.386719 219.613281 226.476562 C 223.636719 224.5625 227.460938 222.253906 231.085938 219.617188 Z M 176.222656 233.003906 C 177.277344 227.53125 179.191406 222.386719 181.828125 217.707031 C 184.730469 212.496094 188.488281 207.8125 192.839844 203.921875 C 197.589844 199.703125 203.128906 196.339844 209.128906 194.03125 C 214.929688 191.855469 221.261719 190.601562 227.789062 190.601562 C 230.230469 190.601562 232.605469 190.800781 235.042969 191.132812 C 237.417969 191.460938 239.792969 191.988281 242.097656 192.648438 C 244.011719 193.175781 245.859375 193.769531 247.703125 194.558594 C 249.089844 195.152344 250.472656 195.746094 251.859375 196.472656 C 252.847656 194.625 253.835938 192.78125 254.761719 190.867188 C 255.617188 188.890625 256.476562 186.910156 257.199219 184.933594 C 255.355469 184.007812 253.441406 183.152344 251.527344 182.425781 C 249.222656 181.503906 246.914062 180.777344 244.539062 180.117188 C 241.769531 179.394531 239 178.867188 236.230469 178.46875 C 233.460938 178.140625 230.625 177.941406 227.789062 177.941406 C 219.875 177.941406 212.226562 179.394531 205.171875 181.964844 C 197.851562 184.667969 191.125 188.691406 185.324219 193.636719 C 179.71875 198.449219 174.96875 204.121094 171.277344 210.585938 C 167.847656 216.519531 165.277344 223.046875 163.890625 229.972656 C 165.9375 230.695312 167.980469 231.289062 170.023438 231.816406 C 172.070312 232.277344 174.113281 232.675781 176.222656 233.003906 Z M 187.5 15.988281 C 198.578125 15.988281 209.195312 18.230469 218.820312 22.253906 C 228.910156 26.40625 237.945312 32.539062 245.527344 40.125 C 253.113281 47.707031 259.246094 56.742188 263.464844 66.828125 C 267.488281 76.523438 269.664062 87.074219 269.664062 98.152344 L 269.664062 159.742188 C 269.664062 170.820312 267.488281 181.4375 263.464844 191.132812 C 259.246094 201.152344 253.113281 210.1875 245.527344 217.835938 C 237.945312 225.421875 228.910156 231.488281 218.820312 235.707031 C 209.195312 239.730469 198.578125 241.972656 187.5 241.972656 C 176.421875 241.972656 165.871094 239.730469 156.175781 235.707031 C 146.085938 231.488281 137.054688 225.421875 129.46875 217.835938 C 121.886719 210.1875 115.753906 201.152344 111.597656 191.132812 C 107.578125 181.4375 105.335938 170.820312 105.335938 159.742188 L 105.335938 98.152344 C 105.335938 87.074219 107.578125 76.523438 111.597656 66.828125 C 115.753906 56.742188 121.886719 47.707031 129.46875 40.125 C 137.054688 32.539062 146.085938 26.40625 156.175781 22.253906 C 165.871094 18.230469 176.421875 15.988281 187.5 15.988281 Z M 183.476562 145.234375 L 183.476562 140.683594 C 181.628906 137.191406 178.664062 134.421875 175.035156 132.179688 C 171.476562 130.003906 167.320312 128.355469 163.167969 127.167969 L 152.746094 138.574219 L 146.8125 133.167969 L 154.132812 125.121094 C 151.757812 124.726562 149.515625 124.398438 147.472656 124.199219 C 142.066406 123.605469 138.242188 123.605469 138.242188 123.605469 L 136.855469 123.605469 L 136.855469 115.5625 L 138.242188 115.5625 C 138.636719 115.5625 153.539062 115.628906 167.714844 120.308594 L 162.703125 104.152344 L 170.421875 101.777344 L 177.410156 124.398438 C 178.859375 125.1875 180.3125 126.113281 181.628906 127.035156 C 182.289062 127.496094 182.882812 127.957031 183.476562 128.417969 L 183.476562 113.320312 L 167.253906 95.117188 L 153.867188 95.117188 L 146.019531 109.429688 L 138.964844 105.605469 L 144.703125 95.117188 L 140.613281 95.117188 L 140.21875 95.316406 C 138.4375 96.042969 136.722656 97.097656 135.273438 98.351562 C 133.820312 99.601562 132.503906 101.054688 131.449219 102.703125 C 130.394531 104.285156 129.535156 106.066406 129.007812 107.910156 C 128.414062 109.757812 128.152344 111.671875 128.152344 113.648438 C 128.152344 114.835938 128.28125 116.023438 128.414062 117.078125 C 128.679688 118.265625 128.941406 119.386719 129.339844 120.441406 C 129.667969 121.496094 130.195312 122.550781 130.722656 123.539062 C 131.316406 124.527344 131.976562 125.453125 132.699219 126.375 L 133.757812 127.695312 C 133.691406 128.550781 133.625 129.410156 133.558594 130.332031 L 133.558594 131.320312 C 133.558594 134.089844 134.085938 136.664062 135.007812 138.96875 C 136.0625 141.410156 137.515625 143.652344 139.359375 145.5 C 142.988281 149.125 148 151.367188 153.539062 151.367188 C 155.1875 151.367188 156.835938 151.171875 158.351562 150.773438 C 159.933594 150.378906 161.386719 149.785156 162.769531 149.058594 C 164.222656 148.335938 165.539062 147.410156 166.792969 146.355469 C 167.980469 145.300781 169.035156 144.046875 169.957031 142.730469 L 172.332031 139.300781 L 175.628906 141.804688 C 176.488281 142.398438 177.410156 142.992188 178.332031 143.453125 C 179.257812 143.917969 180.246094 144.3125 181.234375 144.640625 C 181.894531 144.90625 182.488281 145.039062 183.148438 145.167969 Z M 140.878906 87.074219 L 160.066406 87.074219 L 148.792969 74.347656 L 154.792969 69.003906 L 166.992188 82.65625 L 168.835938 75.007812 L 176.617188 76.851562 L 173.453125 89.976562 L 183.476562 101.1875 L 183.476562 76.785156 L 170.882812 62.082031 L 177.015625 56.871094 L 187.5 69.136719 L 197.984375 56.871094 L 204.117188 62.082031 L 191.523438 76.785156 L 191.523438 101.1875 L 201.542969 89.976562 L 198.378906 76.851562 L 206.160156 75.007812 L 208.074219 82.65625 L 220.273438 69.003906 L 226.273438 74.347656 L 214.929688 87.074219 L 234.121094 87.074219 L 234.382812 86.414062 C 234.582031 85.886719 234.714844 85.425781 234.847656 84.898438 C 235.042969 84.105469 235.242188 83.25 235.308594 82.390625 C 235.4375 81.601562 235.503906 80.742188 235.503906 79.820312 C 235.503906 77.117188 234.910156 74.546875 233.988281 72.171875 C 232.933594 69.730469 231.484375 67.554688 229.636719 65.707031 C 227.789062 63.863281 225.546875 62.34375 223.109375 61.355469 C 220.800781 60.367188 218.226562 59.839844 215.457031 59.839844 C 215.0625 59.839844 214.667969 59.839844 214.402344 59.839844 C 214.074219 59.839844 213.746094 59.90625 213.480469 59.90625 C 213.152344 59.972656 212.820312 59.972656 212.425781 60.039062 C 212.09375 60.105469 211.765625 60.167969 211.4375 60.234375 L 207.808594 60.960938 L 206.753906 57.335938 C 206.160156 55.222656 205.238281 53.246094 204.050781 51.53125 C 202.796875 49.683594 201.347656 48.101562 199.566406 46.785156 C 197.917969 45.53125 195.941406 44.476562 193.894531 43.816406 C 191.917969 43.089844 189.742188 42.761719 187.5 42.761719 C 185.257812 42.761719 183.148438 43.089844 181.101562 43.816406 C 179.058594 44.476562 177.144531 45.53125 175.433594 46.785156 C 173.71875 48.101562 172.199219 49.683594 170.949219 51.53125 C 169.761719 53.246094 168.835938 55.222656 168.242188 57.335938 L 167.253906 60.960938 L 163.5625 60.234375 C 163.296875 60.167969 162.96875 60.105469 162.574219 60.039062 C 162.175781 59.972656 161.847656 59.972656 161.582031 59.90625 C 161.253906 59.90625 160.925781 59.839844 160.59375 59.839844 C 160.332031 59.839844 159.933594 59.839844 159.539062 59.839844 C 156.835938 59.839844 154.199219 60.367188 151.890625 61.355469 C 149.449219 62.34375 147.273438 63.863281 145.363281 65.707031 C 143.515625 67.554688 142.066406 69.730469 141.074219 72.171875 C 140.085938 74.546875 139.558594 77.117188 139.558594 79.820312 C 139.558594 80.742188 139.558594 81.601562 139.691406 82.390625 C 139.824219 83.25 139.953125 84.105469 140.152344 84.898438 C 140.285156 85.425781 140.480469 85.886719 140.613281 86.414062 Z M 234.449219 95.117188 L 230.296875 95.117188 L 236.03125 105.605469 L 228.976562 109.429688 L 221.195312 95.117188 L 207.742188 95.117188 L 191.523438 113.320312 L 191.523438 128.417969 C 192.113281 127.957031 192.707031 127.496094 193.367188 127.035156 C 194.753906 126.113281 196.136719 125.1875 197.589844 124.398438 L 204.578125 101.777344 L 212.292969 104.152344 L 207.28125 120.308594 C 214.007812 118.066406 220.933594 116.878906 226.339844 116.285156 C 232.472656 115.5625 236.691406 115.5625 236.757812 115.5625 L 238.144531 115.5625 L 238.207031 123.605469 L 236.757812 123.605469 C 236.757812 123.605469 232.933594 123.605469 227.59375 124.199219 C 225.480469 124.398438 223.238281 124.726562 220.867188 125.121094 L 228.1875 133.167969 L 222.25 138.574219 L 211.832031 127.167969 C 207.675781 128.355469 203.523438 130.003906 199.960938 132.179688 C 196.402344 134.421875 193.367188 137.191406 191.523438 140.683594 L 191.523438 145.234375 L 191.917969 145.167969 C 192.511719 145.039062 193.105469 144.90625 193.765625 144.640625 C 194.753906 144.3125 195.742188 143.917969 196.664062 143.453125 C 197.589844 142.992188 198.511719 142.398438 199.367188 141.804688 L 202.664062 139.300781 L 205.039062 142.730469 C 205.964844 144.046875 207.019531 145.300781 208.269531 146.355469 C 209.457031 147.410156 210.777344 148.335938 212.226562 149.058594 C 213.613281 149.785156 215.128906 150.378906 216.710938 150.773438 C 218.226562 151.171875 219.8125 151.367188 221.527344 151.367188 C 224.230469 151.367188 226.800781 150.773438 229.175781 149.851562 C 231.613281 148.796875 233.789062 147.34375 235.636719 145.5 C 237.484375 143.652344 239 141.410156 239.988281 138.96875 C 240.976562 136.664062 241.507812 134.089844 241.507812 131.320312 L 241.507812 130.332031 C 241.441406 129.410156 241.308594 128.550781 241.242188 127.628906 L 242.296875 126.375 C 243.023438 125.453125 243.683594 124.527344 244.277344 123.539062 C 244.867188 122.550781 245.332031 121.496094 245.726562 120.441406 C 246.054688 119.386719 246.386719 118.265625 246.582031 117.078125 C 246.78125 116.023438 246.847656 114.835938 246.847656 113.648438 C 246.847656 111.671875 246.582031 109.757812 246.054688 107.910156 C 245.460938 106.066406 244.671875 104.285156 243.617188 102.703125 C 242.5625 101.054688 241.242188 99.601562 239.726562 98.351562 C 238.273438 97.097656 236.625 96.042969 234.847656 95.316406 Z M 234.449219 95.117188 " clip-rule="nonzero"/></clipPath><linearGradient x1="-332.944859" gradientTransform="matrix(0.0659423, 0, 0, 0.0659423, 105.335062, 15.98819)" y1="3021.590939" x2="2825.874707" gradientUnits="userSpaceOnUse" y2="404.444327" id="81c52a255a"><stop stop-opacity="1" stop-color="rgb(49.398804%, 85.099792%, 34.098816%)" offset="0"/><stop stop-opacity="1" stop-color="rgb(49.398804%, 85.099792%, 34.098816%)" offset="0.125"/><stop stop-opacity="1" stop-color="rgb(49.398804%, 85.099792%, 34.098816%)" offset="0.15625"/><stop stop-opacity="1" stop-color="rgb(49.398804%, 85.099792%, 34.098816%)" offset="0.171875"/><stop stop-opacity="1" stop-color="rgb(49.398804%, 85.098267%, 34.098816%)" offset="0.179688"/><stop stop-opacity="1" stop-color="rgb(49.641418%, 84.921265%, 34.207153%)" offset="0.183594"/><stop stop-opacity="1" stop-color="rgb(49.884033%, 84.744263%, 34.315491%)" offset="0.1875"/><stop stop-opacity="1" stop-color="rgb(50.125122%, 84.567261%, 34.423828%)" offset="0.191406"/><stop stop-opacity="1" stop-color="rgb(50.367737%, 84.390259%, 34.532166%)" offset="0.195313"/><stop stop-opacity="1" stop-color="rgb(50.608826%, 84.213257%, 34.638977%)" offset="0.199219"/><stop stop-opacity="1" stop-color="rgb(50.849915%, 84.036255%, 34.747314%)" offset="0.203125"/><stop stop-opacity="1" stop-color="rgb(51.091003%, 83.859253%, 34.855652%)" offset="0.207031"/><stop stop-opacity="1" stop-color="rgb(51.333618%, 83.682251%, 34.963989%)" offset="0.210938"/><stop stop-opacity="1" stop-color="rgb(51.574707%, 83.505249%, 35.070801%)" offset="0.214844"/><stop stop-opacity="1" stop-color="rgb(51.815796%, 83.329773%, 35.179138%)" offset="0.21875"/><stop stop-opacity="1" stop-color="rgb(52.056885%, 83.152771%, 35.287476%)" offset="0.222656"/><stop stop-opacity="1" stop-color="rgb(52.2995%, 82.975769%, 35.395813%)" offset="0.226562"/><stop stop-opacity="1" stop-color="rgb(52.540588%, 82.798767%, 35.502625%)" offset="0.230469"/><stop stop-opacity="1" stop-color="rgb(52.781677%, 82.621765%, 35.610962%)" offset="0.234375"/><stop stop-opacity="1" stop-color="rgb(53.022766%, 82.444763%, 35.719299%)" offset="0.238281"/><stop stop-opacity="1" stop-color="rgb(53.265381%, 82.267761%, 35.827637%)" offset="0.242188"/><stop stop-opacity="1" stop-color="rgb(53.50647%, 82.090759%, 35.934448%)" offset="0.246094"/><stop stop-opacity="1" stop-color="rgb(53.747559%, 81.913757%, 36.042786%)" offset="0.25"/><stop stop-opacity="1" stop-color="rgb(53.988647%, 81.736755%, 36.151123%)" offset="0.253906"/><stop stop-opacity="1" stop-color="rgb(54.231262%, 81.561279%, 36.25946%)" offset="0.257812"/><stop stop-opacity="1" stop-color="rgb(54.472351%, 81.384277%, 36.366272%)" offset="0.261719"/><stop stop-opacity="1" stop-color="rgb(54.714966%, 81.207275%, 36.474609%)" offset="0.265625"/><stop stop-opacity="1" stop-color="rgb(54.956055%, 81.030273%, 36.582947%)" offset="0.269531"/><stop stop-opacity="1" stop-color="rgb(55.197144%, 80.853271%, 36.691284%)" offset="0.273438"/><stop stop-opacity="1" stop-color="rgb(55.438232%, 80.67627%, 36.798096%)" offset="0.277344"/><stop stop-opacity="1" stop-color="rgb(55.680847%, 80.499268%, 36.906433%)" offset="0.28125"/><stop stop-opacity="1" stop-color="rgb(55.921936%, 80.322266%, 37.014771%)" offset="0.285156"/><stop stop-opacity="1" stop-color="rgb(56.163025%, 80.145264%, 37.123108%)" offset="0.289062"/><stop stop-opacity="1" stop-color="rgb(56.404114%, 79.968262%, 37.229919%)" offset="0.292969"/><stop stop-opacity="1" stop-color="rgb(56.646729%, 79.79126%, 37.338257%)" offset="0.296875"/><stop stop-opacity="1" stop-color="rgb(56.887817%, 79.614258%, 37.446594%)" offset="0.300781"/><stop stop-opacity="1" stop-color="rgb(57.128906%, 79.438782%, 37.554932%)" offset="0.304688"/><stop stop-opacity="1" stop-color="rgb(57.369995%, 79.26178%, 37.661743%)" offset="0.308594"/><stop stop-opacity="1" stop-color="rgb(57.61261%, 79.084778%, 37.770081%)" offset="0.3125"/><stop stop-opacity="1" stop-color="rgb(57.853699%, 78.907776%, 37.878418%)" offset="0.316406"/><stop stop-opacity="1" stop-color="rgb(58.096313%, 78.730774%, 37.986755%)" offset="0.320312"/><stop stop-opacity="1" stop-color="rgb(58.337402%, 78.553772%, 38.093567%)" offset="0.324219"/><stop stop-opacity="1" stop-color="rgb(58.578491%, 78.37677%, 38.201904%)" offset="0.328125"/><stop stop-opacity="1" stop-color="rgb(58.81958%, 78.199768%, 38.310242%)" offset="0.332031"/><stop stop-opacity="1" stop-color="rgb(59.062195%, 78.022766%, 38.418579%)" offset="0.335938"/><stop stop-opacity="1" stop-color="rgb(59.303284%, 77.845764%, 38.525391%)" offset="0.339844"/><stop stop-opacity="1" stop-color="rgb(59.544373%, 77.668762%, 38.633728%)" offset="0.34375"/><stop stop-opacity="1" stop-color="rgb(59.785461%, 77.49176%, 38.742065%)" offset="0.347656"/><stop stop-opacity="1" stop-color="rgb(60.028076%, 77.316284%, 38.850403%)" offset="0.351562"/><stop stop-opacity="1" stop-color="rgb(60.269165%, 77.139282%, 38.957214%)" offset="0.355469"/><stop stop-opacity="1" stop-color="rgb(60.510254%, 76.96228%, 39.065552%)" offset="0.359375"/><stop stop-opacity="1" stop-color="rgb(60.751343%, 76.785278%, 39.173889%)" offset="0.363281"/><stop stop-opacity="1" stop-color="rgb(60.993958%, 76.608276%, 39.282227%)" offset="0.367188"/><stop stop-opacity="1" stop-color="rgb(61.235046%, 76.431274%, 39.389038%)" offset="0.371094"/><stop stop-opacity="1" stop-color="rgb(61.476135%, 76.254272%, 39.497375%)" offset="0.375"/><stop stop-opacity="1" stop-color="rgb(61.717224%, 76.077271%, 39.605713%)" offset="0.378906"/><stop stop-opacity="1" stop-color="rgb(61.959839%, 75.900269%, 39.71405%)" offset="0.382813"/><stop stop-opacity="1" stop-color="rgb(62.200928%, 75.723267%, 39.820862%)" offset="0.386719"/><stop stop-opacity="1" stop-color="rgb(62.443542%, 75.547791%, 39.929199%)" offset="0.390625"/><stop stop-opacity="1" stop-color="rgb(62.684631%, 75.370789%, 40.037537%)" offset="0.394531"/><stop stop-opacity="1" stop-color="rgb(62.92572%, 75.193787%, 40.145874%)" offset="0.398438"/><stop stop-opacity="1" stop-color="rgb(63.166809%, 75.016785%, 40.252686%)" offset="0.402344"/><stop stop-opacity="1" stop-color="rgb(63.409424%, 74.839783%, 40.361023%)" offset="0.40625"/><stop stop-opacity="1" stop-color="rgb(63.650513%, 74.662781%, 40.46936%)" offset="0.410156"/><stop stop-opacity="1" stop-color="rgb(63.891602%, 74.485779%, 40.577698%)" offset="0.414063"/><stop stop-opacity="1" stop-color="rgb(64.13269%, 74.308777%, 40.684509%)" offset="0.417969"/><stop stop-opacity="1" stop-color="rgb(64.375305%, 74.131775%, 40.792847%)" offset="0.421875"/><stop stop-opacity="1" stop-color="rgb(64.616394%, 73.954773%, 40.901184%)" offset="0.425781"/><stop stop-opacity="1" stop-color="rgb(64.857483%, 73.777771%, 41.009521%)" offset="0.429687"/><stop stop-opacity="1" stop-color="rgb(65.098572%, 73.600769%, 41.116333%)" offset="0.433594"/><stop stop-opacity="1" stop-color="rgb(65.341187%, 73.425293%, 41.22467%)" offset="0.4375"/><stop stop-opacity="1" stop-color="rgb(65.582275%, 73.248291%, 41.333008%)" offset="0.441406"/><stop stop-opacity="1" stop-color="rgb(65.823364%, 73.071289%, 41.441345%)" offset="0.445312"/><stop stop-opacity="1" stop-color="rgb(66.064453%, 72.894287%, 41.548157%)" offset="0.449219"/><stop stop-opacity="1" stop-color="rgb(66.307068%, 72.717285%, 41.656494%)" offset="0.453125"/><stop stop-opacity="1" stop-color="rgb(66.548157%, 72.540283%, 41.763306%)" offset="0.457031"/><stop stop-opacity="1" stop-color="rgb(66.790771%, 72.363281%, 41.871643%)" offset="0.460938"/><stop stop-opacity="1" stop-color="rgb(67.03186%, 72.186279%, 41.97998%)" offset="0.464844"/><stop stop-opacity="1" stop-color="rgb(67.272949%, 72.009277%, 42.088318%)" offset="0.46875"/><stop stop-opacity="1" stop-color="rgb(67.514038%, 71.832275%, 42.195129%)" offset="0.472656"/><stop stop-opacity="1" stop-color="rgb(67.756653%, 71.656799%, 42.303467%)" offset="0.476563"/><stop stop-opacity="1" stop-color="rgb(67.997742%, 71.479797%, 42.411804%)" offset="0.480469"/><stop stop-opacity="1" stop-color="rgb(68.238831%, 71.302795%, 42.520142%)" offset="0.484375"/><stop stop-opacity="1" stop-color="rgb(68.479919%, 71.125793%, 42.626953%)" offset="0.488281"/><stop stop-opacity="1" stop-color="rgb(68.722534%, 70.948792%, 42.735291%)" offset="0.492188"/><stop stop-opacity="1" stop-color="rgb(68.963623%, 70.77179%, 42.843628%)" offset="0.496094"/><stop stop-opacity="1" stop-color="rgb(69.204712%, 70.594788%, 42.951965%)" offset="0.5"/><stop stop-opacity="1" stop-color="rgb(69.445801%, 70.417786%, 43.058777%)" offset="0.503906"/><stop stop-opacity="1" stop-color="rgb(69.688416%, 70.240784%, 43.167114%)" offset="0.507812"/><stop stop-opacity="1" stop-color="rgb(69.929504%, 70.063782%, 43.275452%)" offset="0.511719"/><stop stop-opacity="1" stop-color="rgb(70.170593%, 69.88678%, 43.383789%)" offset="0.515625"/><stop stop-opacity="1" stop-color="rgb(70.411682%, 69.709778%, 43.490601%)" offset="0.519531"/><stop stop-opacity="1" stop-color="rgb(70.654297%, 69.534302%, 43.598938%)" offset="0.523438"/><stop stop-opacity="1" stop-color="rgb(70.895386%, 69.3573%, 43.707275%)" offset="0.527344"/><stop stop-opacity="1" stop-color="rgb(71.138%, 69.180298%, 43.815613%)" offset="0.53125"/><stop stop-opacity="1" stop-color="rgb(71.379089%, 69.003296%, 43.922424%)" offset="0.535156"/><stop stop-opacity="1" stop-color="rgb(71.620178%, 68.826294%, 44.030762%)" offset="0.539062"/><stop stop-opacity="1" stop-color="rgb(71.861267%, 68.649292%, 44.139099%)" offset="0.542969"/><stop stop-opacity="1" stop-color="rgb(72.103882%, 68.47229%, 44.247437%)" offset="0.546875"/><stop stop-opacity="1" stop-color="rgb(72.344971%, 68.295288%, 44.354248%)" offset="0.550781"/><stop stop-opacity="1" stop-color="rgb(72.58606%, 68.118286%, 44.462585%)" offset="0.554688"/><stop stop-opacity="1" stop-color="rgb(72.827148%, 67.941284%, 44.570923%)" offset="0.558594"/><stop stop-opacity="1" stop-color="rgb(73.069763%, 67.764282%, 44.67926%)" offset="0.5625"/><stop stop-opacity="1" stop-color="rgb(73.310852%, 67.58728%, 44.786072%)" offset="0.566406"/><stop stop-opacity="1" stop-color="rgb(73.551941%, 67.411804%, 44.894409%)" offset="0.570312"/><stop stop-opacity="1" stop-color="rgb(73.79303%, 67.234802%, 45.002747%)" offset="0.574219"/><stop stop-opacity="1" stop-color="rgb(74.035645%, 67.0578%, 45.111084%)" offset="0.578125"/><stop stop-opacity="1" stop-color="rgb(74.276733%, 66.880798%, 45.217896%)" offset="0.582031"/><stop stop-opacity="1" stop-color="rgb(74.517822%, 66.703796%, 45.326233%)" offset="0.585938"/><stop stop-opacity="1" stop-color="rgb(74.758911%, 66.526794%, 45.43457%)" offset="0.589844"/><stop stop-opacity="1" stop-color="rgb(75.001526%, 66.349792%, 45.542908%)" offset="0.59375"/><stop stop-opacity="1" stop-color="rgb(75.242615%, 66.172791%, 45.649719%)" offset="0.597656"/><stop stop-opacity="1" stop-color="rgb(75.485229%, 65.995789%, 45.758057%)" offset="0.601562"/><stop stop-opacity="1" stop-color="rgb(75.726318%, 65.818787%, 45.866394%)" offset="0.605469"/><stop stop-opacity="1" stop-color="rgb(75.967407%, 65.643311%, 45.974731%)" offset="0.609375"/><stop stop-opacity="1" stop-color="rgb(76.208496%, 65.466309%, 46.081543%)" offset="0.613281"/><stop stop-opacity="1" stop-color="rgb(76.451111%, 65.289307%, 46.18988%)" offset="0.617188"/><stop stop-opacity="1" stop-color="rgb(76.6922%, 65.112305%, 46.298218%)" offset="0.621094"/><stop stop-opacity="1" stop-color="rgb(76.933289%, 64.935303%, 46.406555%)" offset="0.625"/><stop stop-opacity="1" stop-color="rgb(77.174377%, 64.758301%, 46.513367%)" offset="0.628906"/><stop stop-opacity="1" stop-color="rgb(77.416992%, 64.581299%, 46.621704%)" offset="0.632812"/><stop stop-opacity="1" stop-color="rgb(77.658081%, 64.404297%, 46.730042%)" offset="0.636719"/><stop stop-opacity="1" stop-color="rgb(77.89917%, 64.227295%, 46.838379%)" offset="0.640625"/><stop stop-opacity="1" stop-color="rgb(78.140259%, 64.050293%, 46.94519%)" offset="0.644531"/><stop stop-opacity="1" stop-color="rgb(78.382874%, 63.873291%, 47.053528%)" offset="0.648438"/><stop stop-opacity="1" stop-color="rgb(78.623962%, 63.696289%, 47.161865%)" offset="0.652344"/><stop stop-opacity="1" stop-color="rgb(78.865051%, 63.520813%, 47.270203%)" offset="0.65625"/><stop stop-opacity="1" stop-color="rgb(79.10614%, 63.343811%, 47.377014%)" offset="0.660156"/><stop stop-opacity="1" stop-color="rgb(79.348755%, 63.166809%, 47.485352%)" offset="0.664062"/><stop stop-opacity="1" stop-color="rgb(79.589844%, 62.989807%, 47.593689%)" offset="0.667969"/><stop stop-opacity="1" stop-color="rgb(79.832458%, 62.812805%, 47.702026%)" offset="0.671875"/><stop stop-opacity="1" stop-color="rgb(80.073547%, 62.635803%, 47.808838%)" offset="0.675781"/><stop stop-opacity="1" stop-color="rgb(80.314636%, 62.458801%, 47.917175%)" offset="0.679688"/><stop stop-opacity="1" stop-color="rgb(80.555725%, 62.281799%, 48.025513%)" offset="0.683594"/><stop stop-opacity="1" stop-color="rgb(80.79834%, 62.104797%, 48.13385%)" offset="0.6875"/><stop stop-opacity="1" stop-color="rgb(81.039429%, 61.927795%, 48.240662%)" offset="0.691406"/><stop stop-opacity="1" stop-color="rgb(81.280518%, 61.752319%, 48.348999%)" offset="0.695312"/><stop stop-opacity="1" stop-color="rgb(81.521606%, 61.575317%, 48.457336%)" offset="0.699219"/><stop stop-opacity="1" stop-color="rgb(81.764221%, 61.398315%, 48.565674%)" offset="0.703125"/><stop stop-opacity="1" stop-color="rgb(82.00531%, 61.221313%, 48.672485%)" offset="0.707031"/><stop stop-opacity="1" stop-color="rgb(82.246399%, 61.044312%, 48.780823%)" offset="0.710938"/><stop stop-opacity="1" stop-color="rgb(82.487488%, 60.86731%, 48.88916%)" offset="0.714844"/><stop stop-opacity="1" stop-color="rgb(82.730103%, 60.690308%, 48.997498%)" offset="0.71875"/><stop stop-opacity="1" stop-color="rgb(82.971191%, 60.513306%, 49.104309%)" offset="0.722656"/><stop stop-opacity="1" stop-color="rgb(83.21228%, 60.336304%, 49.212646%)" offset="0.726562"/><stop stop-opacity="1" stop-color="rgb(83.453369%, 60.159302%, 49.320984%)" offset="0.730469"/><stop stop-opacity="1" stop-color="rgb(83.695984%, 59.9823%, 49.429321%)" offset="0.734375"/><stop stop-opacity="1" stop-color="rgb(83.937073%, 59.805298%, 49.536133%)" offset="0.738281"/><stop stop-opacity="1" stop-color="rgb(84.179688%, 59.629822%, 49.64447%)" offset="0.742188"/><stop stop-opacity="1" stop-color="rgb(84.420776%, 59.45282%, 49.752808%)" offset="0.746094"/><stop stop-opacity="1" stop-color="rgb(84.661865%, 59.275818%, 49.861145%)" offset="0.75"/><stop stop-opacity="1" stop-color="rgb(84.902954%, 59.098816%, 49.967957%)" offset="0.753906"/><stop stop-opacity="1" stop-color="rgb(85.145569%, 58.921814%, 50.076294%)" offset="0.757812"/><stop stop-opacity="1" stop-color="rgb(85.386658%, 58.744812%, 50.184631%)" offset="0.761719"/><stop stop-opacity="1" stop-color="rgb(85.627747%, 58.56781%, 50.292969%)" offset="0.765625"/><stop stop-opacity="1" stop-color="rgb(85.868835%, 58.390808%, 50.39978%)" offset="0.769531"/><stop stop-opacity="1" stop-color="rgb(86.11145%, 58.213806%, 50.508118%)" offset="0.773438"/><stop stop-opacity="1" stop-color="rgb(86.352539%, 58.036804%, 50.616455%)" offset="0.777344"/><stop stop-opacity="1" stop-color="rgb(86.593628%, 57.859802%, 50.724792%)" offset="0.78125"/><stop stop-opacity="1" stop-color="rgb(86.834717%, 57.6828%, 50.831604%)" offset="0.785156"/><stop stop-opacity="1" stop-color="rgb(87.077332%, 57.507324%, 50.939941%)" offset="0.789063"/><stop stop-opacity="1" stop-color="rgb(87.31842%, 57.330322%, 51.048279%)" offset="0.792969"/><stop stop-opacity="1" stop-color="rgb(87.559509%, 57.15332%, 51.156616%)" offset="0.796875"/><stop stop-opacity="1" stop-color="rgb(87.800598%, 56.976318%, 51.263428%)" offset="0.800781"/><stop stop-opacity="1" stop-color="rgb(88.043213%, 56.799316%, 51.371765%)" offset="0.804688"/><stop stop-opacity="1" stop-color="rgb(88.284302%, 56.622314%, 51.480103%)" offset="0.808594"/><stop stop-opacity="1" stop-color="rgb(88.526917%, 56.445312%, 51.58844%)" offset="0.8125"/><stop stop-opacity="1" stop-color="rgb(88.763428%, 56.271362%, 51.693726%)" offset="0.816406"/><stop stop-opacity="1" stop-color="rgb(88.999939%, 56.098938%, 51.799011%)" offset="0.820312"/><stop stop-opacity="1" stop-color="rgb(88.999939%, 56.098938%, 51.799011%)" offset="0.828125"/><stop stop-opacity="1" stop-color="rgb(88.999939%, 56.098938%, 51.799011%)" offset="0.84375"/><stop stop-opacity="1" stop-color="rgb(88.999939%, 56.098938%, 51.799011%)" offset="0.875"/><stop stop-opacity="1" stop-color="rgb(88.999939%, 56.098938%, 51.799011%)" offset="1"/></linearGradient></defs><g clip-path="url(#c9d069f6be)"><g clip-path="url(#dff8f46e11)"><path fill="url(#81c52a255a)" d="M 105.335938 15.988281 L 105.335938 241.738281 L 269.582031 241.738281 L 269.582031 15.988281 Z M 105.335938 15.988281 " fill-rule="nonzero"/></g></g><g fill="#e38f84" fill-opacity="1"><g transform="translate(100.206922, 304.194541)"><g><path d="M 24.515625 -31.578125 L 24.046875 -24.1875 L 23.859375 -24.140625 C 22.617188 -26.003906 20.507812 -27.210938 17.53125 -27.765625 C 16.59375 -27.941406 15.691406 -28.03125 14.828125 -28.03125 C 13.960938 -28.03125 13.222656 -27.953125 12.609375 -27.796875 C 11.992188 -27.648438 11.472656 -27.4375 11.046875 -27.15625 C 10.117188 -26.550781 9.65625 -25.765625 9.65625 -24.796875 C 9.65625 -23.523438 10.054688 -22.566406 10.859375 -21.921875 C 11.867188 -21.148438 13.535156 -20.609375 15.859375 -20.296875 C 18.191406 -19.992188 20.0625 -19.570312 21.46875 -19.03125 C 22.882812 -18.5 24.046875 -17.820312 24.953125 -17 C 26.660156 -15.457031 27.515625 -13.28125 27.515625 -10.46875 C 27.515625 -6.769531 26.125 -3.925781 23.34375 -1.9375 C 20.957031 -0.226562 17.953125 0.625 14.328125 0.625 C 11.410156 0.625 8.53125 0.0703125 5.6875 -1.03125 C 4.75 -1.394531 3.925781 -1.820312 3.21875 -2.3125 L 3.5 -10.71875 L 3.59375 -10.78125 C 5.675781 -7.195312 9.085938 -5.40625 13.828125 -5.40625 C 17.203125 -5.40625 19.429688 -6.21875 20.515625 -7.84375 C 20.890625 -8.394531 21.078125 -9.007812 21.078125 -9.6875 C 21.078125 -10.375 20.96875 -10.9375 20.75 -11.375 C 20.53125 -11.820312 20.171875 -12.203125 19.671875 -12.515625 C 18.691406 -13.160156 17.050781 -13.585938 14.75 -13.796875 C 12.457031 -14.015625 10.582031 -14.425781 9.125 -15.03125 C 7.664062 -15.632812 6.503906 -16.382812 5.640625 -17.28125 C 4.054688 -18.882812 3.265625 -21.128906 3.265625 -24.015625 C 3.265625 -26.992188 4.3125 -29.40625 6.40625 -31.25 C 8.539062 -33.132812 11.410156 -34.078125 15.015625 -34.078125 C 18.628906 -34.078125 21.796875 -33.242188 24.515625 -31.578125 Z M 24.515625 -31.578125 "/></g></g></g><g fill="#e38f84" fill-opacity="1"><g transform="translate(137.409176, 304.194541)"><g><path d="M 21.140625 -6.03125 C 22.179688 -6.03125 22.90625 -6.132812 23.3125 -6.34375 L 23.40625 -6.3125 L 23.15625 0 L 4.328125 0 L 4.328125 -33.625 C 4.773438 -33.59375 5.273438 -33.566406 5.828125 -33.546875 L 7.59375 -33.5 C 8.769531 -33.457031 10.046875 -33.4375 11.421875 -33.4375 C 15.253906 -33.4375 19.050781 -33.503906 22.8125 -33.640625 C 22.625 -32.171875 22.53125 -30.203125 22.53125 -27.734375 C 22.53125 -27.460938 22.546875 -27.265625 22.578125 -27.140625 L 22.53125 -27.0625 C 21.65625 -27.3125 20.414062 -27.4375 18.8125 -27.4375 L 10.890625 -27.4375 L 10.890625 -21.015625 L 16.84375 -21.015625 C 18.6875 -21.015625 19.796875 -21.066406 20.171875 -21.171875 L 20.25 -14.96875 C 19.4375 -15.050781 18.394531 -15.09375 17.125 -15.09375 L 10.890625 -15.09375 L 10.890625 -6.03125 Z M 21.140625 -6.03125 "/></g></g></g><g fill="#e38f84" fill-opacity="1"><g transform="translate(170.413117, 304.194541)"><g><path d="M 18.640625 0.09375 C 18.097656 0.03125 17.21875 0 16 0 L 13.234375 0 C 12.773438 0 12.363281 0.015625 12 0.046875 L 11.96875 0 C 12.039062 -0.113281 12.078125 -0.242188 12.078125 -0.390625 C 12.078125 -0.546875 12.0625 -0.707031 12.03125 -0.875 C 12.007812 -1.039062 11.9375 -1.34375 11.8125 -1.78125 C 11.695312 -2.21875 11.515625 -2.847656 11.265625 -3.671875 L 10.203125 -7.046875 L 0.859375 -33.546875 C 1.898438 -33.472656 3.222656 -33.4375 4.828125 -33.4375 C 6.441406 -33.4375 7.472656 -33.503906 7.921875 -33.640625 L 15.484375 -10.78125 L 22.125 -33.546875 C 23.132812 -33.472656 24.375 -33.4375 25.84375 -33.4375 C 27.863281 -33.4375 29.039062 -33.503906 29.375 -33.640625 L 20.1875 -7.109375 C 20.1875 -7.109375 19.894531 -6.128906 19.3125 -4.171875 C 18.820312 -2.492188 18.578125 -1.40625 18.578125 -0.90625 C 18.578125 -0.414062 18.613281 -0.101562 18.6875 0.03125 Z M 18.640625 0.09375 "/></g></g></g><g fill="#e38f84" fill-opacity="1"><g transform="translate(207.615371, 304.194541)"><g><path d="M 21.140625 -6.03125 C 22.179688 -6.03125 22.90625 -6.132812 23.3125 -6.34375 L 23.40625 -6.3125 L 23.15625 0 L 4.328125 0 L 4.328125 -33.625 C 4.773438 -33.59375 5.273438 -33.566406 5.828125 -33.546875 L 7.59375 -33.5 C 8.769531 -33.457031 10.046875 -33.4375 11.421875 -33.4375 C 15.253906 -33.4375 19.050781 -33.503906 22.8125 -33.640625 C 22.625 -32.171875 22.53125 -30.203125 22.53125 -27.734375 C 22.53125 -27.460938 22.546875 -27.265625 22.578125 -27.140625 L 22.53125 -27.0625 C 21.65625 -27.3125 20.414062 -27.4375 18.8125 -27.4375 L 10.890625 -27.4375 L 10.890625 -21.015625 L 16.84375 -21.015625 C 18.6875 -21.015625 19.796875 -21.066406 20.171875 -21.171875 L 20.25 -14.96875 C 19.4375 -15.050781 18.394531 -15.09375 17.125 -15.09375 L 10.890625 -15.09375 L 10.890625 -6.03125 Z M 21.140625 -6.03125 "/></g></g></g><g fill="#e38f84" fill-opacity="1"><g transform="translate(240.619313, 304.194541)"><g><path d="M 4.546875 0 C 4.648438 -0.570312 4.703125 -1.191406 4.703125 -1.859375 L 4.703125 -33.4375 L 9.734375 -33.4375 L 23.0625 -12.46875 L 23.0625 -31.734375 C 23.0625 -32.660156 22.976562 -33.226562 22.8125 -33.4375 L 29.59375 -33.4375 C 29.507812 -32.769531 29.46875 -32.035156 29.46875 -31.234375 L 29.46875 0 L 24.234375 0 L 11.109375 -20.140625 L 11.109375 0 Z M 4.546875 0 "/></g></g></g><g fill="#e38f84" fill-opacity="1"><g transform="translate(281.994745, 304.194541)"><g/></g></g><g fill="#8d9776" fill-opacity="1"><g transform="translate(104.311003, 351.863443)"><g><path d="M 11.75 -0.21875 C 12.570312 -0.21875 13.347656 -0.328125 14.078125 -0.546875 C 14.804688 -0.773438 15.441406 -1.050781 15.984375 -1.375 C 16.484375 -1.675781 16.859375 -2.007812 17.109375 -2.375 C 17.359375 -2.75 17.554688 -3.195312 17.703125 -3.71875 L 18.5625 -6.984375 C 18.78125 -7.804688 18.890625 -8.453125 18.890625 -8.921875 C 18.890625 -9.546875 18.664062 -9.960938 18.21875 -10.171875 C 17.769531 -10.378906 16.953125 -10.507812 15.765625 -10.5625 L 15.953125 -11.3125 C 17.265625 -11.226562 19 -11.1875 21.15625 -11.1875 C 22.863281 -11.1875 24.164062 -11.226562 25.0625 -11.3125 L 24.875 -10.5625 C 24.28125 -10.507812 23.835938 -10.410156 23.546875 -10.265625 C 23.265625 -10.117188 23.019531 -9.835938 22.8125 -9.421875 C 22.601562 -9.015625 22.375 -8.328125 22.125 -7.359375 L 20.15625 0 L 19.40625 0 C 19.488281 -0.300781 19.53125 -0.625 19.53125 -0.96875 C 19.53125 -1.738281 19.34375 -2.125 18.96875 -2.125 C 18.820312 -2.125 18.65625 -2.082031 18.46875 -2 C 18.28125 -1.925781 17.972656 -1.753906 17.546875 -1.484375 C 16.503906 -0.835938 15.472656 -0.34375 14.453125 0 C 13.441406 0.34375 12.367188 0.515625 11.234375 0.515625 C 8.203125 0.515625 5.878906 -0.21875 4.265625 -1.6875 C 2.660156 -3.164062 1.859375 -5.269531 1.859375 -8 C 1.859375 -10.875 2.554688 -13.769531 3.953125 -16.6875 C 5.359375 -19.613281 7.304688 -22.035156 9.796875 -23.953125 C 12.285156 -25.878906 15.066406 -26.84375 18.140625 -26.84375 C 19.628906 -26.84375 20.8125 -26.640625 21.6875 -26.234375 C 22.570312 -25.828125 23.425781 -25.226562 24.25 -24.4375 C 24.46875 -24.207031 24.675781 -24.09375 24.875 -24.09375 C 25.125 -24.09375 25.363281 -24.265625 25.59375 -24.609375 C 25.832031 -24.960938 26.085938 -25.535156 26.359375 -26.328125 L 27.1875 -26.328125 C 26.363281 -24.191406 25.566406 -21.34375 24.796875 -17.78125 L 23.984375 -17.78125 C 24.109375 -18.84375 24.171875 -19.769531 24.171875 -20.5625 C 24.171875 -21.707031 24 -22.613281 23.65625 -23.28125 C 23.132812 -24.195312 22.363281 -24.910156 21.34375 -25.421875 C 20.332031 -25.929688 19.191406 -26.1875 17.921875 -26.1875 C 15.367188 -26.1875 13.128906 -25.101562 11.203125 -22.9375 C 9.285156 -20.78125 7.820312 -18.175781 6.8125 -15.125 C 5.8125 -12.082031 5.3125 -9.296875 5.3125 -6.765625 C 5.3125 -4.535156 5.835938 -2.882812 6.890625 -1.8125 C 7.953125 -0.75 9.570312 -0.21875 11.75 -0.21875 Z M 11.75 -0.21875 "/></g></g></g><g fill="#8d9776" fill-opacity="1"><g transform="translate(136.027346, 351.863443)"><g><path d="M 16.921875 -6.0625 L 17.625 -6.0625 L 16.703125 -3.34375 C 16.203125 -1.976562 15.566406 -0.992188 14.796875 -0.390625 C 14.023438 0.210938 13.234375 0.515625 12.421875 0.515625 C 11.953125 0.515625 11.539062 0.425781 11.1875 0.25 C 10.84375 0.0820312 10.570312 -0.148438 10.375 -0.453125 C 10.15625 -0.816406 10.046875 -1.25 10.046875 -1.75 C 10.046875 -2.269531 10.128906 -2.851562 10.296875 -3.5 C 10.472656 -4.144531 10.585938 -4.550781 10.640625 -4.71875 L 11.3125 -7.40625 C 10.113281 -4.625 8.898438 -2.609375 7.671875 -1.359375 C 6.453125 -0.109375 5.171875 0.515625 3.828125 0.515625 C 2.691406 0.515625 1.820312 0.109375 1.21875 -0.703125 C 0.625 -1.523438 0.328125 -2.617188 0.328125 -3.984375 C 0.328125 -5.984375 0.859375 -8.222656 1.921875 -10.703125 C 2.992188 -13.179688 4.382812 -15.289062 6.09375 -17.03125 C 7.8125 -18.769531 9.550781 -19.640625 11.3125 -19.640625 C 11.976562 -19.640625 12.519531 -19.390625 12.9375 -18.890625 C 13.363281 -18.390625 13.613281 -17.695312 13.6875 -16.8125 L 14.28125 -19.109375 C 15.644531 -19.160156 16.785156 -19.335938 17.703125 -19.640625 L 13.046875 -3.203125 C 13.023438 -3.097656 12.976562 -2.898438 12.90625 -2.609375 C 12.832031 -2.328125 12.796875 -2.066406 12.796875 -1.828125 C 12.796875 -1.203125 13.066406 -0.890625 13.609375 -0.890625 C 14.703125 -0.890625 15.65625 -2.15625 16.46875 -4.6875 Z M 4.90625 -0.671875 C 5.601562 -0.671875 6.429688 -1.203125 7.390625 -2.265625 C 8.359375 -3.335938 9.304688 -4.757812 10.234375 -6.53125 C 11.171875 -8.300781 11.9375 -10.191406 12.53125 -12.203125 L 13.203125 -14.84375 C 13.222656 -15.039062 13.234375 -15.3125 13.234375 -15.65625 C 13.234375 -16.675781 13.050781 -17.472656 12.6875 -18.046875 C 12.332031 -18.628906 11.832031 -18.921875 11.1875 -18.921875 C 10.125 -18.921875 9 -18.097656 7.8125 -16.453125 C 6.625 -14.804688 5.625 -12.773438 4.8125 -10.359375 C 4.007812 -7.941406 3.609375 -5.664062 3.609375 -3.53125 C 3.609375 -2.519531 3.71875 -1.789062 3.9375 -1.34375 C 4.164062 -0.894531 4.488281 -0.671875 4.90625 -0.671875 Z M 4.90625 -0.671875 "/></g></g></g><g fill="#8d9776" fill-opacity="1"><g transform="translate(160.976761, 351.863443)"><g><path d="M 14.6875 -19.640625 C 15.351562 -19.640625 15.882812 -19.4375 16.28125 -19.03125 C 16.6875 -18.632812 16.890625 -18.128906 16.890625 -17.515625 C 16.890625 -16.773438 16.628906 -16.144531 16.109375 -15.625 C 15.585938 -15.101562 14.976562 -14.84375 14.28125 -14.84375 C 13.832031 -14.84375 13.472656 -14.957031 13.203125 -15.1875 C 12.929688 -15.425781 12.796875 -15.753906 12.796875 -16.171875 C 12.796875 -16.742188 12.941406 -17.226562 13.234375 -17.625 C 13.535156 -18.019531 13.945312 -18.332031 14.46875 -18.5625 C 14.363281 -18.65625 14.226562 -18.703125 14.0625 -18.703125 C 12.71875 -18.703125 11.257812 -17.257812 9.6875 -14.375 C 8.113281 -11.488281 6.632812 -7.675781 5.25 -2.9375 L 4.5 0 L 1.265625 0 L 5.734375 -15.953125 C 5.898438 -16.492188 5.984375 -16.976562 5.984375 -17.40625 C 5.984375 -17.976562 5.722656 -18.265625 5.203125 -18.265625 C 4.660156 -18.265625 4.160156 -17.972656 3.703125 -17.390625 C 3.242188 -16.804688 2.78125 -15.832031 2.3125 -14.46875 L 1.828125 -13.09375 L 1.109375 -13.09375 L 2.046875 -15.8125 C 2.941406 -18.363281 4.441406 -19.640625 6.546875 -19.640625 C 7.960938 -19.640625 8.671875 -18.921875 8.671875 -17.484375 C 8.671875 -16.785156 8.492188 -15.765625 8.140625 -14.421875 L 6.953125 -9.75 C 8.296875 -13.34375 9.554688 -15.890625 10.734375 -17.390625 C 11.910156 -18.890625 13.226562 -19.640625 14.6875 -19.640625 Z M 14.6875 -19.640625 "/></g></g></g><g fill="#8d9776" fill-opacity="1"><g transform="translate(182.319613, 351.863443)"><g><path d="M 17.546875 -6.03125 L 18.265625 -6.03125 L 17.40625 -3.3125 C 16.976562 -1.945312 16.367188 -0.96875 15.578125 -0.375 C 14.785156 0.21875 13.957031 0.515625 13.09375 0.515625 C 12.320312 0.515625 11.738281 0.316406 11.34375 -0.078125 C 10.945312 -0.472656 10.75 -1.039062 10.75 -1.78125 C 10.75 -2.476562 10.910156 -3.445312 11.234375 -4.6875 L 11.75 -6.578125 C 10.582031 -4.078125 9.390625 -2.269531 8.171875 -1.15625 C 6.960938 -0.0390625 5.675781 0.515625 4.3125 0.515625 C 3.09375 0.515625 2.144531 0.109375 1.46875 -0.703125 C 0.789062 -1.523438 0.453125 -2.753906 0.453125 -4.390625 C 0.453125 -6.441406 0.988281 -8.671875 2.0625 -11.078125 C 3.144531 -13.484375 4.609375 -15.507812 6.453125 -17.15625 C 8.296875 -18.8125 10.296875 -19.640625 12.453125 -19.640625 C 12.953125 -19.640625 13.410156 -19.476562 13.828125 -19.15625 C 14.253906 -18.832031 14.550781 -18.394531 14.71875 -17.84375 L 16.578125 -24.796875 C 16.679688 -25.117188 16.734375 -25.457031 16.734375 -25.8125 C 16.734375 -26.300781 16.539062 -26.664062 16.15625 -26.90625 C 15.769531 -27.144531 15.117188 -27.265625 14.203125 -27.265625 L 14.421875 -28.046875 C 15.742188 -28.066406 16.929688 -28.203125 17.984375 -28.453125 C 19.035156 -28.703125 20.046875 -29.070312 21.015625 -29.5625 L 13.71875 -3.15625 C 13.570312 -2.5625 13.5 -2.140625 13.5 -1.890625 C 13.5 -1.203125 13.796875 -0.859375 14.390625 -0.859375 C 14.890625 -0.859375 15.347656 -1.140625 15.765625 -1.703125 C 16.191406 -2.273438 16.640625 -3.257812 17.109375 -4.65625 Z M 5.390625 -0.671875 C 6.140625 -0.671875 6.992188 -1.191406 7.953125 -2.234375 C 8.921875 -3.273438 9.875 -4.664062 10.8125 -6.40625 C 11.757812 -8.15625 12.546875 -10.023438 13.171875 -12.015625 L 14.46875 -16.890625 C 14.320312 -17.523438 14.066406 -18 13.703125 -18.3125 C 13.347656 -18.625 12.945312 -18.78125 12.5 -18.78125 C 10.988281 -18.78125 9.5625 -17.976562 8.21875 -16.375 C 6.875 -14.78125 5.789062 -12.804688 4.96875 -10.453125 C 4.15625 -8.097656 3.75 -5.914062 3.75 -3.90625 C 3.75 -1.75 4.296875 -0.671875 5.390625 -0.671875 Z M 5.390625 -0.671875 "/></g></g></g><g fill="#8d9776" fill-opacity="1"><g transform="translate(207.97545, 351.863443)"><g><path d="M 15.46875 -17.1875 C 15.46875 -15.175781 14.335938 -13.410156 12.078125 -11.890625 C 9.828125 -10.378906 7.25 -9.15625 4.34375 -8.21875 C 4.070312 -6.976562 3.9375 -5.773438 3.9375 -4.609375 C 3.9375 -2.234375 4.796875 -1.046875 6.515625 -1.046875 C 8.640625 -1.046875 10.546875 -2.285156 12.234375 -4.765625 L 12.828125 -4.46875 C 12.035156 -3.101562 10.960938 -1.929688 9.609375 -0.953125 C 8.265625 0.0234375 6.847656 0.515625 5.359375 0.515625 C 3.816406 0.515625 2.613281 0.0703125 1.75 -0.8125 C 0.882812 -1.707031 0.453125 -3.007812 0.453125 -4.71875 C 0.453125 -6.601562 1 -8.726562 2.09375 -11.09375 C 3.195312 -13.46875 4.691406 -15.484375 6.578125 -17.140625 C 8.460938 -18.804688 10.507812 -19.640625 12.71875 -19.640625 C 13.507812 -19.640625 14.164062 -19.425781 14.6875 -19 C 15.207031 -18.582031 15.46875 -17.976562 15.46875 -17.1875 Z M 11.90625 -18.921875 C 11.101562 -18.921875 10.210938 -18.457031 9.234375 -17.53125 C 8.253906 -16.601562 7.335938 -15.367188 6.484375 -13.828125 C 5.628906 -12.296875 4.976562 -10.660156 4.53125 -8.921875 C 6.882812 -9.742188 8.570312 -10.539062 9.59375 -11.3125 C 10.507812 -12.03125 11.222656 -12.898438 11.734375 -13.921875 C 12.242188 -14.953125 12.5 -16.0625 12.5 -17.25 C 12.5 -17.925781 12.445312 -18.375 12.34375 -18.59375 C 12.25 -18.8125 12.101562 -18.921875 11.90625 -18.921875 Z M 11.90625 -18.921875 "/></g></g></g><g fill="#8d9776" fill-opacity="1"><g transform="translate(229.429838, 351.863443)"><g><path d="M 19.703125 -6.03125 L 18.78125 -3.3125 C 17.882812 -0.757812 16.382812 0.515625 14.28125 0.515625 C 13.164062 0.515625 12.382812 0.15625 11.9375 -0.5625 C 11.738281 -0.851562 11.640625 -1.257812 11.640625 -1.78125 C 11.640625 -2.457031 11.847656 -3.425781 12.265625 -4.6875 L 15.8125 -15.328125 C 16.050781 -16.140625 16.171875 -16.742188 16.171875 -17.140625 C 16.171875 -18.003906 15.773438 -18.4375 14.984375 -18.4375 C 14.046875 -18.4375 12.972656 -17.75 11.765625 -16.375 C 10.566406 -15 9.382812 -13.109375 8.21875 -10.703125 C 7.050781 -8.304688 6.046875 -5.644531 5.203125 -2.71875 L 4.53125 0 L 1.296875 0 L 5.765625 -15.953125 C 5.941406 -16.597656 6.03125 -17.054688 6.03125 -17.328125 C 6.03125 -17.953125 5.753906 -18.265625 5.203125 -18.265625 C 4.660156 -18.265625 4.175781 -17.988281 3.75 -17.4375 C 3.332031 -16.894531 2.863281 -15.90625 2.34375 -14.46875 L 1.859375 -13.09375 L 1.15625 -13.09375 L 2.078125 -15.8125 C 2.972656 -18.363281 4.453125 -19.640625 6.515625 -19.640625 C 7.304688 -19.640625 7.867188 -19.445312 8.203125 -19.0625 C 8.535156 -18.675781 8.703125 -18.132812 8.703125 -17.4375 C 8.703125 -16.769531 8.53125 -15.765625 8.1875 -14.421875 L 6.875 -9.328125 C 8.46875 -13.078125 9.988281 -15.734375 11.4375 -17.296875 C 12.882812 -18.859375 14.476562 -19.640625 16.21875 -19.640625 C 18.21875 -19.640625 19.21875 -18.707031 19.21875 -16.84375 C 19.21875 -16.03125 19.035156 -15.085938 18.671875 -14.015625 L 15.0625 -3.15625 C 14.863281 -2.5625 14.765625 -2.09375 14.765625 -1.75 C 14.765625 -1.15625 15.0625 -0.859375 15.65625 -0.859375 C 16.15625 -0.859375 16.632812 -1.132812 17.09375 -1.6875 C 17.550781 -2.25 18.023438 -3.238281 18.515625 -4.65625 L 19 -6.03125 Z M 19.703125 -6.03125 "/></g></g></g><g fill="#8d9776" fill-opacity="1"><g transform="translate(256.498552, 351.863443)"><g><path d="M 2.1875 -0.5625 C 2.4375 -0.4375 2.675781 -0.347656 2.90625 -0.296875 C 3.144531 -0.242188 3.476562 -0.21875 3.90625 -0.21875 C 5.019531 -0.21875 5.921875 -0.550781 6.609375 -1.21875 C 7.304688 -1.894531 7.65625 -2.835938 7.65625 -4.046875 C 7.65625 -4.847656 7.503906 -5.625 7.203125 -6.375 C 6.910156 -7.132812 6.421875 -8 5.734375 -8.96875 C 4.890625 -10.101562 4.273438 -11.035156 3.890625 -11.765625 C 3.503906 -12.492188 3.3125 -13.359375 3.3125 -14.359375 C 3.3125 -15.367188 3.570312 -16.273438 4.09375 -17.078125 C 4.613281 -17.890625 5.3125 -18.519531 6.1875 -18.96875 C 7.070312 -19.414062 8.035156 -19.640625 9.078125 -19.640625 C 10.359375 -19.640625 11.429688 -19.394531 12.296875 -18.90625 C 13.171875 -18.425781 13.609375 -17.59375 13.609375 -16.40625 C 13.609375 -15.957031 13.460938 -15.519531 13.171875 -15.09375 C 12.890625 -14.675781 12.46875 -14.46875 11.90625 -14.46875 C 11.476562 -14.46875 11.117188 -14.613281 10.828125 -14.90625 C 10.546875 -15.207031 10.40625 -15.582031 10.40625 -16.03125 C 10.40625 -16.820312 10.753906 -17.648438 11.453125 -18.515625 C 10.984375 -18.816406 10.363281 -18.96875 9.59375 -18.96875 C 8.65625 -18.96875 7.878906 -18.648438 7.265625 -18.015625 C 6.660156 -17.378906 6.359375 -16.519531 6.359375 -15.4375 C 6.359375 -14.789062 6.46875 -14.238281 6.6875 -13.78125 C 6.914062 -13.320312 7.328125 -12.644531 7.921875 -11.75 L 8.59375 -10.78125 C 9.332031 -9.644531 9.878906 -8.664062 10.234375 -7.84375 C 10.597656 -7.03125 10.78125 -6.1875 10.78125 -5.3125 C 10.78125 -4.195312 10.488281 -3.191406 9.90625 -2.296875 C 9.320312 -1.410156 8.539062 -0.71875 7.5625 -0.21875 C 6.582031 0.269531 5.523438 0.515625 4.390625 0.515625 C 2.972656 0.515625 1.78125 0.210938 0.8125 -0.390625 C -0.144531 -0.992188 -0.625 -1.914062 -0.625 -3.15625 C -0.625 -3.582031 -0.503906 -3.96875 -0.265625 -4.3125 C -0.0351562 -4.65625 0.320312 -4.828125 0.8125 -4.828125 C 1.363281 -4.828125 1.773438 -4.601562 2.046875 -4.15625 C 2.316406 -3.71875 2.453125 -3.160156 2.453125 -2.484375 C 2.453125 -2.066406 2.363281 -1.425781 2.1875 -0.5625 Z M 2.1875 -0.5625 "/></g></g></g><g fill="#8d9776" fill-opacity="1"><g transform="translate(276.171586, 351.863443)"><g/></g></g></svg>