<svg xmlns="http://www.w3.org/2000/svg" xmlns:xlink="http://www.w3.org/1999/xlink" width="500" zoomAndPan="magnify" viewBox="0 0 375 374.999991" height="500" preserveAspectRatio="xMidYMid meet" version="1.0"><defs><g/><clipPath id="47ed68f26e"><path d="M 138.890625 86.144531 L 236.390625 86.144531 L 236.390625 219.644531 L 138.890625 219.644531 Z M 138.890625 86.144531 " clip-rule="nonzero"/></clipPath><clipPath id="833d6974f7"><path d="M 185.121094 182.890625 L 185.121094 167.441406 C 184.769531 167.402344 184.417969 167.324219 184.105469 167.246094 C 183.480469 167.128906 182.898438 166.972656 182.351562 166.777344 C 181.765625 166.625 181.179688 166.390625 180.632812 166.117188 C 180.28125 165.960938 179.933594 165.804688 179.621094 165.609375 C 179.035156 166.234375 178.410156 166.816406 177.785156 167.324219 C 176.929688 167.988281 176.03125 168.574219 175.09375 169.082031 C 173.925781 169.703125 172.675781 170.171875 171.351562 170.523438 C 170.101562 170.835938 168.773438 170.992188 167.410156 170.992188 C 165.148438 170.992188 163 170.523438 161.050781 169.742188 C 159.023438 168.886719 157.1875 167.636719 155.667969 166.117188 C 154.144531 164.59375 152.898438 162.761719 152.078125 160.734375 C 151.257812 158.78125 150.792969 156.636719 150.792969 154.375 L 150.832031 153.710938 C 150.402344 153.085938 149.972656 152.460938 149.621094 151.839844 C 149.230469 151.097656 148.917969 150.355469 148.605469 149.535156 C 148.292969 148.640625 148.023438 147.703125 147.867188 146.765625 C 147.710938 145.832031 147.632812 144.894531 147.632812 143.917969 C 147.632812 142.28125 147.867188 140.679688 148.332031 139.160156 C 148.761719 137.597656 149.464844 136.15625 150.324219 134.828125 C 151.066406 133.738281 151.921875 132.683594 152.898438 131.785156 C 153.679688 131.046875 154.535156 130.421875 155.433594 129.835938 L 155.277344 129.328125 C 155.121094 128.9375 155.003906 128.511719 154.886719 128.121094 C 154.730469 127.417969 154.574219 126.714844 154.496094 126.011719 C 154.417969 125.3125 154.339844 124.609375 154.339844 123.90625 C 154.339844 121.683594 154.808594 119.539062 155.628906 117.546875 C 156.449219 115.519531 157.695312 113.6875 159.21875 112.164062 C 160.738281 110.644531 162.574219 109.394531 164.601562 108.574219 C 166.550781 107.757812 168.695312 107.328125 170.960938 107.328125 C 171.195312 107.328125 171.464844 107.328125 171.777344 107.328125 L 172.207031 107.367188 C 172.753906 106.117188 173.417969 104.949219 174.199219 103.894531 C 175.132812 102.648438 176.226562 101.515625 177.472656 100.578125 C 178.917969 99.527344 180.515625 98.667969 182.234375 98.082031 C 183.871094 97.496094 185.667969 97.222656 187.5 97.222656 C 189.332031 97.222656 191.128906 97.496094 192.765625 98.082031 C 194.523438 98.667969 196.082031 99.527344 197.527344 100.578125 C 198.773438 101.515625 199.867188 102.648438 200.800781 103.894531 C 201.582031 104.949219 202.285156 106.117188 202.792969 107.367188 L 203.222656 107.328125 C 203.53125 107.328125 203.804688 107.328125 204.039062 107.328125 C 206.300781 107.328125 208.449219 107.757812 210.398438 108.574219 C 212.425781 109.394531 214.261719 110.644531 215.78125 112.164062 C 217.304688 113.6875 218.550781 115.519531 219.410156 117.546875 C 220.191406 119.539062 220.660156 121.683594 220.660156 123.90625 C 220.660156 124.609375 220.621094 125.3125 220.503906 126.011719 C 220.425781 126.714844 220.269531 127.417969 220.113281 128.121094 C 219.996094 128.550781 219.878906 128.9375 219.761719 129.328125 L 219.566406 129.835938 C 220.464844 130.421875 221.320312 131.085938 222.140625 131.785156 C 223.078125 132.683594 223.933594 133.738281 224.675781 134.828125 C 225.535156 136.15625 226.238281 137.597656 226.703125 139.160156 C 227.132812 140.679688 227.40625 142.28125 227.40625 143.917969 C 227.40625 144.894531 227.289062 145.832031 227.132812 146.765625 C 226.976562 147.703125 226.742188 148.640625 226.394531 149.535156 C 226.121094 150.355469 225.769531 151.097656 225.378906 151.839844 C 225.027344 152.460938 224.636719 153.085938 224.167969 153.710938 L 224.207031 154.375 C 224.207031 156.636719 223.777344 158.78125 222.960938 160.734375 C 222.101562 162.761719 220.890625 164.59375 219.332031 166.117188 C 216.328125 169.121094 212.191406 170.992188 207.628906 170.992188 C 206.265625 170.992188 204.9375 170.835938 203.648438 170.523438 C 202.363281 170.171875 201.113281 169.703125 199.90625 169.082031 C 198.96875 168.574219 198.070312 167.988281 197.253906 167.324219 C 196.589844 166.816406 195.964844 166.234375 195.417969 165.609375 C 195.066406 165.804688 194.714844 165.960938 194.367188 166.117188 C 193.820312 166.390625 193.234375 166.625 192.6875 166.777344 C 192.101562 166.972656 191.519531 167.128906 190.933594 167.246094 C 190.582031 167.324219 190.230469 167.402344 189.878906 167.441406 L 189.878906 182.851562 C 192.921875 181.136719 196.121094 179.769531 199.554688 178.832031 C 203.300781 177.78125 207.277344 177.195312 211.335938 177.195312 C 213.207031 177.195312 215.078125 177.3125 216.914062 177.546875 C 218.785156 177.820312 220.621094 178.171875 222.453125 178.636719 C 223.933594 179.027344 225.417969 179.496094 226.820312 180.042969 C 227.953125 180.472656 229.046875 180.980469 230.136719 181.484375 C 230.488281 179.964844 230.761719 178.441406 230.996094 176.882812 C 231.230469 175.050781 231.347656 173.136719 231.347656 171.1875 L 231.347656 134.75 C 231.347656 128.859375 230.175781 123.203125 228.03125 118.054688 C 225.808594 112.671875 222.53125 107.835938 218.472656 103.777344 C 214.417969 99.761719 209.578125 96.484375 204.234375 94.257812 C 199.085938 92.113281 193.429688 90.90625 187.5 90.90625 C 181.609375 90.90625 175.953125 92.113281 170.804688 94.257812 C 165.421875 96.484375 160.582031 99.761719 156.527344 103.777344 C 152.507812 107.835938 149.230469 112.671875 147.007812 118.054688 C 144.863281 123.203125 143.652344 128.859375 143.652344 134.75 L 143.652344 171.1875 C 143.652344 173.136719 143.808594 175.050781 144.042969 176.882812 C 144.238281 178.441406 144.511719 179.964844 144.902344 181.484375 C 146.070312 180.941406 147.242188 180.394531 148.488281 179.964844 C 150.011719 179.378906 151.570312 178.871094 153.171875 178.480469 C 154.886719 178.054688 156.644531 177.742188 158.398438 177.507812 C 160.152344 177.3125 161.910156 177.195312 163.664062 177.195312 C 165.886719 177.195312 168.152344 177.390625 170.375 177.703125 C 172.597656 178.054688 174.78125 178.597656 176.929688 179.261719 C 178.566406 179.808594 180.203125 180.433594 181.765625 181.171875 C 182.9375 181.679688 184.027344 182.265625 185.121094 182.890625 Z M 157.265625 202.863281 C 157.539062 202.746094 157.8125 202.667969 158.085938 202.589844 C 158.554688 202.433594 158.984375 202.316406 159.453125 202.199219 C 160.152344 202.042969 160.855469 201.925781 161.558594 201.847656 C 162.261719 201.769531 162.960938 201.730469 163.664062 201.730469 C 164.484375 201.730469 165.34375 201.769531 166.199219 201.886719 C 167.019531 202.003906 167.839844 202.160156 168.65625 202.394531 C 169.28125 202.589844 169.90625 202.785156 170.53125 203.019531 C 170.84375 203.136719 171.15625 203.292969 171.503906 203.410156 C 171.972656 202.277344 172.558594 201.109375 173.144531 200.015625 C 173.730469 198.921875 174.351562 197.832031 175.054688 196.816406 C 174.507812 196.542969 173.964844 196.308594 173.378906 196.074219 C 172.558594 195.761719 171.699219 195.453125 170.804688 195.21875 C 169.632812 194.867188 168.464844 194.632812 167.292969 194.476562 C 166.121094 194.320312 164.914062 194.242188 163.664062 194.242188 C 162.457031 194.242188 161.246094 194.320312 160.035156 194.476562 C 158.828125 194.632812 157.65625 194.90625 156.488281 195.21875 C 155.589844 195.492188 154.691406 195.800781 153.796875 196.152344 C 153.210938 196.386719 152.625 196.621094 152.078125 196.933594 C 152.664062 197.714844 153.25 198.496094 153.875 199.273438 C 154.730469 200.25 155.628906 201.226562 156.527344 202.160156 Z M 169.867188 207.894531 C 169.554688 207.777344 169.242188 207.621094 168.96875 207.503906 C 168.425781 207.3125 167.917969 207.117188 167.410156 207 C 166.824219 206.84375 166.199219 206.6875 165.578125 206.609375 C 164.953125 206.53125 164.328125 206.492188 163.664062 206.492188 C 163.117188 206.492188 162.613281 206.53125 162.066406 206.570312 L 161.753906 206.609375 C 162.765625 207.386719 163.859375 208.089844 164.953125 208.753906 C 166.277344 209.574219 167.644531 210.273438 169.046875 210.9375 C 169.164062 210.46875 169.242188 210.042969 169.359375 209.574219 C 169.515625 209.027344 169.671875 208.480469 169.867188 207.894531 Z M 149.464844 192.914062 C 150.246094 192.488281 151.066406 192.136719 151.882812 191.785156 C 152.976562 191.316406 154.105469 190.964844 155.199219 190.652344 C 156.566406 190.261719 157.96875 189.949219 159.414062 189.757812 C 160.816406 189.5625 162.261719 189.445312 163.664062 189.445312 C 165.070312 189.445312 166.511719 189.5625 167.917969 189.757812 C 169.320312 189.949219 170.726562 190.222656 172.089844 190.613281 C 173.222656 190.925781 174.316406 191.316406 175.367188 191.746094 C 176.226562 192.097656 177.085938 192.488281 177.902344 192.914062 C 178.644531 192.058594 179.386719 191.199219 180.164062 190.417969 C 181.101562 189.445312 182.078125 188.507812 183.128906 187.648438 L 183.402344 187.375 C 182.3125 186.714844 181.179688 186.128906 180.050781 185.621094 C 178.566406 184.917969 177.046875 184.292969 175.445312 183.789062 C 173.574219 183.203125 171.621094 182.734375 169.632812 182.421875 C 167.683594 182.109375 165.691406 181.953125 163.664062 181.953125 C 162.105469 181.953125 160.503906 182.070312 158.945312 182.265625 C 157.382812 182.460938 155.824219 182.734375 154.300781 183.125 C 152.820312 183.476562 151.335938 183.945312 149.855469 184.488281 C 148.644531 184.996094 147.4375 185.503906 146.265625 186.089844 C 146.695312 187.257812 147.203125 188.429688 147.75 189.601562 C 148.253906 190.730469 148.839844 191.824219 149.464844 192.914062 Z M 193.429688 214.644531 C 194.015625 212.96875 194.792969 211.40625 195.730469 210.003906 C 196.824219 208.402344 198.148438 207 199.671875 205.789062 C 201.308594 204.5 203.144531 203.449219 205.171875 202.785156 C 207.121094 202.082031 209.191406 201.730469 211.335938 201.730469 C 212 201.730469 212.699219 201.769531 213.363281 201.847656 C 214.027344 201.925781 214.730469 202.003906 215.390625 202.160156 C 215.898438 202.277344 216.367188 202.394531 216.835938 202.550781 C 217.148438 202.667969 217.460938 202.746094 217.773438 202.863281 L 218.472656 202.160156 C 219.410156 201.226562 220.269531 200.25 221.125 199.273438 C 221.75 198.496094 222.375 197.714844 222.960938 196.933594 C 222.375 196.621094 221.789062 196.386719 221.203125 196.152344 C 220.308594 195.800781 219.410156 195.492188 218.511719 195.21875 C 217.34375 194.90625 216.171875 194.632812 214.964844 194.476562 C 213.792969 194.320312 212.582031 194.242188 211.335938 194.242188 C 208.058594 194.242188 204.898438 194.828125 201.972656 195.917969 C 198.96875 197.089844 196.199219 198.765625 193.859375 200.875 C 191.675781 202.824219 189.800781 205.125 188.359375 207.699219 C 187.070312 209.925781 186.132812 212.382812 185.589844 214.996094 L 186.054688 215.035156 C 186.484375 215.035156 186.953125 215.035156 187.5 215.035156 C 188.59375 215.035156 189.683594 214.996094 190.738281 214.917969 C 191.636719 214.839844 192.53125 214.761719 193.429688 214.644531 Z M 213.285156 206.609375 L 212.894531 206.570312 C 212.386719 206.53125 211.882812 206.492188 211.335938 206.492188 C 209.734375 206.492188 208.175781 206.765625 206.691406 207.273438 C 205.210938 207.777344 203.84375 208.558594 202.597656 209.535156 C 201.699219 210.234375 200.878906 211.09375 200.140625 212.03125 C 199.789062 212.460938 199.476562 212.96875 199.164062 213.472656 C 201.738281 212.734375 204.195312 211.796875 206.496094 210.664062 C 208.878906 209.535156 211.140625 208.167969 213.285156 206.609375 Z M 180.828125 214.527344 C 181.453125 211.289062 182.585938 208.246094 184.144531 205.476562 C 185.863281 202.394531 188.085938 199.625 190.660156 197.324219 C 193.46875 194.828125 196.746094 192.835938 200.296875 191.472656 C 203.726562 190.183594 207.472656 189.445312 211.335938 189.445312 C 212.777344 189.445312 214.183594 189.5625 215.625 189.757812 C 217.03125 189.949219 218.433594 190.261719 219.800781 190.652344 C 220.929688 190.964844 222.023438 191.316406 223.117188 191.785156 C 223.933594 192.136719 224.753906 192.488281 225.574219 192.914062 C 226.160156 191.824219 226.742188 190.730469 227.289062 189.601562 C 227.796875 188.429688 228.304688 187.257812 228.734375 186.089844 C 227.640625 185.542969 226.511719 185.035156 225.378906 184.605469 C 224.011719 184.0625 222.648438 183.632812 221.242188 183.242188 C 219.605469 182.8125 217.964844 182.5 216.328125 182.265625 C 214.691406 182.070312 213.011719 181.953125 211.335938 181.953125 C 206.652344 181.953125 202.128906 182.8125 197.953125 184.332031 C 193.625 185.933594 189.644531 188.3125 186.210938 191.238281 C 182.898438 194.085938 180.089844 197.441406 177.902344 201.265625 C 175.875 204.773438 174.351562 208.636719 173.535156 212.734375 C 174.742188 213.160156 175.953125 213.511719 177.164062 213.824219 C 178.371094 214.097656 179.582031 214.332031 180.828125 214.527344 Z M 187.5 86.144531 C 194.054688 86.144531 200.335938 87.472656 206.03125 89.851562 C 212 92.308594 217.34375 95.9375 221.828125 100.421875 C 226.316406 104.910156 229.941406 110.253906 232.441406 116.222656 C 234.820312 121.957031 236.105469 128.199219 236.105469 134.75 L 236.105469 171.1875 C 236.105469 177.742188 234.820312 184.023438 232.441406 189.757812 C 229.941406 195.6875 226.316406 201.03125 221.828125 205.554688 C 217.34375 210.042969 212 213.628906 206.03125 216.125 C 200.335938 218.507812 194.054688 219.832031 187.5 219.832031 C 180.945312 219.832031 174.703125 218.507812 168.96875 216.125 C 163 213.628906 157.65625 210.042969 153.171875 205.554688 C 148.683594 201.03125 145.058594 195.6875 142.597656 189.757812 C 140.21875 184.023438 138.894531 177.742188 138.894531 171.1875 L 138.894531 134.75 C 138.894531 128.199219 140.21875 121.957031 142.597656 116.222656 C 145.058594 110.253906 148.683594 104.910156 153.171875 100.421875 C 157.65625 95.9375 163 92.308594 168.96875 89.851562 C 174.703125 87.472656 180.945312 86.144531 187.5 86.144531 Z M 185.121094 162.605469 L 185.121094 159.914062 C 184.027344 157.847656 182.273438 156.207031 180.128906 154.882812 C 178.019531 153.59375 175.5625 152.617188 173.105469 151.917969 L 166.941406 158.664062 L 163.429688 155.464844 L 167.761719 150.707031 C 166.355469 150.472656 165.03125 150.277344 163.820312 150.160156 C 160.621094 149.808594 158.359375 149.808594 158.359375 149.808594 L 157.539062 149.808594 L 157.539062 145.050781 L 158.359375 145.050781 C 158.59375 145.050781 167.410156 145.089844 175.796875 147.859375 L 172.832031 138.300781 L 177.394531 136.898438 L 181.53125 150.277344 C 182.390625 150.746094 183.246094 151.292969 184.027344 151.839844 C 184.417969 152.109375 184.769531 152.382812 185.121094 152.65625 L 185.121094 143.722656 L 175.523438 132.957031 L 167.605469 132.957031 L 162.960938 141.421875 L 158.789062 139.160156 L 162.183594 132.957031 L 159.765625 132.957031 L 159.53125 133.074219 C 158.476562 133.503906 157.460938 134.128906 156.605469 134.867188 C 155.746094 135.609375 154.964844 136.46875 154.339844 137.445312 C 153.71875 138.378906 153.210938 139.433594 152.898438 140.523438 C 152.546875 141.617188 152.390625 142.75 152.390625 143.917969 C 152.390625 144.621094 152.46875 145.324219 152.546875 145.949219 C 152.703125 146.648438 152.859375 147.3125 153.09375 147.9375 C 153.289062 148.5625 153.601562 149.1875 153.914062 149.769531 C 154.261719 150.355469 154.652344 150.902344 155.082031 151.449219 L 155.707031 152.226562 C 155.667969 152.734375 155.628906 153.242188 155.589844 153.789062 L 155.589844 154.375 C 155.589844 156.011719 155.902344 157.535156 156.449219 158.898438 C 157.070312 160.34375 157.929688 161.667969 159.023438 162.761719 C 161.167969 164.90625 164.132812 166.234375 167.410156 166.234375 C 168.386719 166.234375 169.359375 166.117188 170.257812 165.882812 C 171.195312 165.648438 172.050781 165.296875 172.871094 164.867188 C 173.730469 164.4375 174.507812 163.890625 175.25 163.269531 C 175.953125 162.644531 176.578125 161.902344 177.125 161.121094 L 178.527344 159.09375 L 180.476562 160.578125 C 180.984375 160.925781 181.53125 161.277344 182.078125 161.550781 C 182.625 161.824219 183.207031 162.058594 183.792969 162.253906 C 184.183594 162.410156 184.535156 162.488281 184.925781 162.566406 Z M 159.917969 128.199219 L 171.273438 128.199219 L 164.601562 120.667969 L 168.152344 117.507812 L 175.367188 125.585938 L 176.460938 121.058594 L 181.0625 122.152344 L 179.191406 129.914062 L 185.121094 136.546875 L 185.121094 122.113281 L 177.667969 113.414062 L 181.296875 110.332031 L 187.5 117.585938 L 193.703125 110.332031 L 197.332031 113.414062 L 189.878906 122.113281 L 189.878906 136.546875 L 195.808594 129.914062 L 193.9375 122.152344 L 198.539062 121.058594 L 199.671875 125.585938 L 206.886719 117.507812 L 210.4375 120.667969 L 203.726562 128.199219 L 215.078125 128.199219 L 215.234375 127.808594 C 215.351562 127.496094 215.429688 127.222656 215.507812 126.910156 C 215.625 126.441406 215.742188 125.9375 215.78125 125.429688 C 215.859375 124.960938 215.898438 124.453125 215.898438 123.90625 C 215.898438 122.308594 215.546875 120.785156 215.003906 119.382812 C 214.378906 117.9375 213.519531 116.652344 212.425781 115.558594 C 211.335938 114.464844 210.007812 113.570312 208.566406 112.984375 C 207.199219 112.398438 205.679688 112.085938 204.039062 112.085938 C 203.804688 112.085938 203.570312 112.085938 203.414062 112.085938 C 203.222656 112.085938 203.027344 112.125 202.871094 112.125 C 202.675781 112.164062 202.480469 112.164062 202.246094 112.203125 C 202.050781 112.242188 201.855469 112.28125 201.660156 112.320312 L 199.515625 112.75 L 198.890625 110.605469 C 198.539062 109.355469 197.992188 108.1875 197.292969 107.171875 C 196.550781 106.078125 195.691406 105.144531 194.640625 104.363281 C 193.664062 103.621094 192.492188 102.996094 191.285156 102.609375 C 190.113281 102.179688 188.828125 101.984375 187.5 101.984375 C 186.171875 101.984375 184.925781 102.179688 183.714844 102.609375 C 182.507812 102.996094 181.375 103.621094 180.359375 104.363281 C 179.347656 105.144531 178.449219 106.078125 177.707031 107.171875 C 177.007812 108.1875 176.460938 109.355469 176.109375 110.605469 L 175.523438 112.75 L 173.339844 112.320312 C 173.183594 112.28125 172.988281 112.242188 172.753906 112.203125 C 172.519531 112.164062 172.324219 112.164062 172.167969 112.125 C 171.972656 112.125 171.777344 112.085938 171.582031 112.085938 C 171.429688 112.085938 171.195312 112.085938 170.960938 112.085938 C 169.359375 112.085938 167.800781 112.398438 166.433594 112.984375 C 164.992188 113.570312 163.703125 114.464844 162.574219 115.558594 C 161.480469 116.652344 160.621094 117.9375 160.035156 119.382812 C 159.453125 120.785156 159.140625 122.308594 159.140625 123.90625 C 159.140625 124.453125 159.140625 124.960938 159.21875 125.429688 C 159.296875 125.9375 159.375 126.441406 159.492188 126.910156 C 159.570312 127.222656 159.6875 127.496094 159.765625 127.808594 Z M 215.273438 132.957031 L 212.816406 132.957031 L 216.210938 139.160156 L 212.039062 141.421875 L 207.433594 132.957031 L 199.476562 132.957031 L 189.878906 143.722656 L 189.878906 152.65625 C 190.230469 152.382812 190.582031 152.109375 190.972656 151.839844 C 191.789062 151.292969 192.609375 150.746094 193.46875 150.277344 L 197.601562 136.898438 L 202.167969 138.300781 L 199.203125 147.859375 C 203.183594 146.53125 207.277344 145.832031 210.476562 145.480469 C 214.105469 145.050781 216.601562 145.050781 216.640625 145.050781 L 217.460938 145.050781 L 217.5 149.808594 L 216.640625 149.808594 C 216.640625 149.808594 214.378906 149.808594 211.21875 150.160156 C 209.96875 150.277344 208.644531 150.472656 207.238281 150.707031 L 211.570312 155.464844 L 208.058594 158.664062 L 201.894531 151.917969 C 199.4375 152.617188 196.980469 153.59375 194.871094 154.882812 C 192.765625 156.207031 190.972656 157.847656 189.878906 159.914062 L 189.878906 162.605469 L 190.113281 162.566406 C 190.464844 162.488281 190.816406 162.410156 191.207031 162.253906 C 191.789062 162.058594 192.375 161.824219 192.921875 161.550781 C 193.46875 161.277344 194.015625 160.925781 194.523438 160.578125 L 196.472656 159.09375 L 197.875 161.121094 C 198.421875 161.902344 199.046875 162.644531 199.789062 163.269531 C 200.492188 163.890625 201.269531 164.4375 202.128906 164.867188 C 202.949219 165.296875 203.84375 165.648438 204.78125 165.882812 C 205.679688 166.117188 206.613281 166.234375 207.628906 166.234375 C 209.226562 166.234375 210.75 165.882812 212.152344 165.335938 C 213.597656 164.710938 214.886719 163.851562 215.976562 162.761719 C 217.070312 161.667969 217.964844 160.34375 218.550781 158.898438 C 219.136719 157.535156 219.449219 156.011719 219.449219 154.375 L 219.449219 153.789062 C 219.410156 153.242188 219.332031 152.734375 219.292969 152.1875 L 219.917969 151.449219 C 220.347656 150.902344 220.738281 150.355469 221.085938 149.769531 C 221.4375 149.1875 221.710938 148.5625 221.945312 147.9375 C 222.140625 147.3125 222.335938 146.648438 222.453125 145.949219 C 222.570312 145.324219 222.609375 144.621094 222.609375 143.917969 C 222.609375 142.75 222.453125 141.617188 222.140625 140.523438 C 221.789062 139.433594 221.320312 138.378906 220.699219 137.445312 C 220.074219 136.46875 219.292969 135.609375 218.394531 134.867188 C 217.539062 134.128906 216.5625 133.503906 215.507812 133.074219 Z M 215.273438 132.957031 " clip-rule="nonzero"/></clipPath><linearGradient x1="-332.329564" gradientTransform="matrix(0.0390101, 0, 0, 0.0390101, 138.893342, 86.145298)" y1="3021.081154" x2="2826.595548" gradientUnits="userSpaceOnUse" y2="403.847095" id="1040d08911"><stop stop-opacity="1" stop-color="rgb(49.398804%, 85.099792%, 34.098816%)" offset="0"/><stop stop-opacity="1" stop-color="rgb(49.398804%, 85.099792%, 34.098816%)" offset="0.125"/><stop stop-opacity="1" stop-color="rgb(49.398804%, 85.099792%, 34.098816%)" offset="0.15625"/><stop stop-opacity="1" stop-color="rgb(49.398804%, 85.099792%, 34.098816%)" offset="0.171875"/><stop stop-opacity="1" stop-color="rgb(49.406433%, 85.093689%, 34.101868%)" offset="0.179687"/><stop stop-opacity="1" stop-color="rgb(49.655151%, 84.912109%, 34.213257%)" offset="0.183594"/><stop stop-opacity="1" stop-color="rgb(49.89624%, 84.735107%, 34.321594%)" offset="0.1875"/><stop stop-opacity="1" stop-color="rgb(50.137329%, 84.558105%, 34.428406%)" offset="0.191406"/><stop stop-opacity="1" stop-color="rgb(50.379944%, 84.381104%, 34.536743%)" offset="0.195312"/><stop stop-opacity="1" stop-color="rgb(50.621033%, 84.204102%, 34.645081%)" offset="0.199219"/><stop stop-opacity="1" stop-color="rgb(50.862122%, 84.0271%, 34.753418%)" offset="0.203125"/><stop stop-opacity="1" stop-color="rgb(51.10321%, 83.850098%, 34.860229%)" offset="0.207031"/><stop stop-opacity="1" stop-color="rgb(51.345825%, 83.673096%, 34.968567%)" offset="0.210937"/><stop stop-opacity="1" stop-color="rgb(51.586914%, 83.496094%, 35.076904%)" offset="0.214844"/><stop stop-opacity="1" stop-color="rgb(51.828003%, 83.320618%, 35.185242%)" offset="0.21875"/><stop stop-opacity="1" stop-color="rgb(52.069092%, 83.143616%, 35.292053%)" offset="0.222656"/><stop stop-opacity="1" stop-color="rgb(52.311707%, 82.966614%, 35.400391%)" offset="0.226562"/><stop stop-opacity="1" stop-color="rgb(52.552795%, 82.789612%, 35.508728%)" offset="0.230469"/><stop stop-opacity="1" stop-color="rgb(52.79541%, 82.61261%, 35.617065%)" offset="0.234375"/><stop stop-opacity="1" stop-color="rgb(53.036499%, 82.435608%, 35.723877%)" offset="0.238281"/><stop stop-opacity="1" stop-color="rgb(53.277588%, 82.258606%, 35.832214%)" offset="0.242187"/><stop stop-opacity="1" stop-color="rgb(53.518677%, 82.081604%, 35.940552%)" offset="0.246094"/><stop stop-opacity="1" stop-color="rgb(53.761292%, 81.904602%, 36.048889%)" offset="0.25"/><stop stop-opacity="1" stop-color="rgb(54.00238%, 81.7276%, 36.155701%)" offset="0.253906"/><stop stop-opacity="1" stop-color="rgb(54.243469%, 81.552124%, 36.264038%)" offset="0.257812"/><stop stop-opacity="1" stop-color="rgb(54.484558%, 81.375122%, 36.372375%)" offset="0.261719"/><stop stop-opacity="1" stop-color="rgb(54.727173%, 81.19812%, 36.480713%)" offset="0.265625"/><stop stop-opacity="1" stop-color="rgb(54.968262%, 81.021118%, 36.587524%)" offset="0.269531"/><stop stop-opacity="1" stop-color="rgb(55.209351%, 80.844116%, 36.695862%)" offset="0.273438"/><stop stop-opacity="1" stop-color="rgb(55.450439%, 80.667114%, 36.804199%)" offset="0.277344"/><stop stop-opacity="1" stop-color="rgb(55.693054%, 80.490112%, 36.912537%)" offset="0.28125"/><stop stop-opacity="1" stop-color="rgb(55.934143%, 80.31311%, 37.019348%)" offset="0.285156"/><stop stop-opacity="1" stop-color="rgb(56.176758%, 80.136108%, 37.127686%)" offset="0.289062"/><stop stop-opacity="1" stop-color="rgb(56.417847%, 79.959106%, 37.236023%)" offset="0.292969"/><stop stop-opacity="1" stop-color="rgb(56.658936%, 79.782104%, 37.34436%)" offset="0.296875"/><stop stop-opacity="1" stop-color="rgb(56.900024%, 79.605103%, 37.451172%)" offset="0.300781"/><stop stop-opacity="1" stop-color="rgb(57.142639%, 79.429626%, 37.559509%)" offset="0.304687"/><stop stop-opacity="1" stop-color="rgb(57.383728%, 79.252625%, 37.667847%)" offset="0.308594"/><stop stop-opacity="1" stop-color="rgb(57.624817%, 79.075623%, 37.776184%)" offset="0.3125"/><stop stop-opacity="1" stop-color="rgb(57.865906%, 78.898621%, 37.882996%)" offset="0.316406"/><stop stop-opacity="1" stop-color="rgb(58.108521%, 78.721619%, 37.991333%)" offset="0.320312"/><stop stop-opacity="1" stop-color="rgb(58.349609%, 78.544617%, 38.09967%)" offset="0.324219"/><stop stop-opacity="1" stop-color="rgb(58.590698%, 78.367615%, 38.208008%)" offset="0.328125"/><stop stop-opacity="1" stop-color="rgb(58.831787%, 78.190613%, 38.314819%)" offset="0.332031"/><stop stop-opacity="1" stop-color="rgb(59.074402%, 78.013611%, 38.423157%)" offset="0.335938"/><stop stop-opacity="1" stop-color="rgb(59.315491%, 77.836609%, 38.531494%)" offset="0.339844"/><stop stop-opacity="1" stop-color="rgb(59.558105%, 77.659607%, 38.639832%)" offset="0.34375"/><stop stop-opacity="1" stop-color="rgb(59.799194%, 77.482605%, 38.746643%)" offset="0.347656"/><stop stop-opacity="1" stop-color="rgb(60.040283%, 77.307129%, 38.85498%)" offset="0.351562"/><stop stop-opacity="1" stop-color="rgb(60.281372%, 77.130127%, 38.963318%)" offset="0.355469"/><stop stop-opacity="1" stop-color="rgb(60.523987%, 76.953125%, 39.071655%)" offset="0.359375"/><stop stop-opacity="1" stop-color="rgb(60.765076%, 76.776123%, 39.178467%)" offset="0.363281"/><stop stop-opacity="1" stop-color="rgb(61.006165%, 76.599121%, 39.286804%)" offset="0.367187"/><stop stop-opacity="1" stop-color="rgb(61.247253%, 76.422119%, 39.395142%)" offset="0.371094"/><stop stop-opacity="1" stop-color="rgb(61.489868%, 76.245117%, 39.503479%)" offset="0.375"/><stop stop-opacity="1" stop-color="rgb(61.730957%, 76.068115%, 39.610291%)" offset="0.378906"/><stop stop-opacity="1" stop-color="rgb(61.972046%, 75.891113%, 39.718628%)" offset="0.382812"/><stop stop-opacity="1" stop-color="rgb(62.213135%, 75.714111%, 39.826965%)" offset="0.386719"/><stop stop-opacity="1" stop-color="rgb(62.45575%, 75.537109%, 39.935303%)" offset="0.390625"/><stop stop-opacity="1" stop-color="rgb(62.696838%, 75.360107%, 40.042114%)" offset="0.394531"/><stop stop-opacity="1" stop-color="rgb(62.939453%, 75.184631%, 40.150452%)" offset="0.398437"/><stop stop-opacity="1" stop-color="rgb(63.180542%, 75.007629%, 40.258789%)" offset="0.402344"/><stop stop-opacity="1" stop-color="rgb(63.421631%, 74.830627%, 40.367126%)" offset="0.40625"/><stop stop-opacity="1" stop-color="rgb(63.66272%, 74.653625%, 40.473938%)" offset="0.410156"/><stop stop-opacity="1" stop-color="rgb(63.905334%, 74.476624%, 40.582275%)" offset="0.414062"/><stop stop-opacity="1" stop-color="rgb(64.146423%, 74.299622%, 40.690613%)" offset="0.417969"/><stop stop-opacity="1" stop-color="rgb(64.387512%, 74.12262%, 40.79895%)" offset="0.421875"/><stop stop-opacity="1" stop-color="rgb(64.628601%, 73.945618%, 40.905762%)" offset="0.425781"/><stop stop-opacity="1" stop-color="rgb(64.871216%, 73.768616%, 41.014099%)" offset="0.429687"/><stop stop-opacity="1" stop-color="rgb(65.112305%, 73.591614%, 41.122437%)" offset="0.433594"/><stop stop-opacity="1" stop-color="rgb(65.353394%, 73.414612%, 41.230774%)" offset="0.4375"/><stop stop-opacity="1" stop-color="rgb(65.594482%, 73.23761%, 41.337585%)" offset="0.441406"/><stop stop-opacity="1" stop-color="rgb(65.837097%, 73.062134%, 41.445923%)" offset="0.445312"/><stop stop-opacity="1" stop-color="rgb(66.078186%, 72.885132%, 41.55426%)" offset="0.449219"/><stop stop-opacity="1" stop-color="rgb(66.319275%, 72.70813%, 41.662598%)" offset="0.453125"/><stop stop-opacity="1" stop-color="rgb(66.560364%, 72.531128%, 41.769409%)" offset="0.457031"/><stop stop-opacity="1" stop-color="rgb(66.802979%, 72.354126%, 41.877747%)" offset="0.460937"/><stop stop-opacity="1" stop-color="rgb(67.044067%, 72.177124%, 41.986084%)" offset="0.464844"/><stop stop-opacity="1" stop-color="rgb(67.286682%, 72.000122%, 42.094421%)" offset="0.46875"/><stop stop-opacity="1" stop-color="rgb(67.527771%, 71.82312%, 42.201233%)" offset="0.472656"/><stop stop-opacity="1" stop-color="rgb(67.76886%, 71.646118%, 42.30957%)" offset="0.476562"/><stop stop-opacity="1" stop-color="rgb(68.009949%, 71.469116%, 42.417908%)" offset="0.480469"/><stop stop-opacity="1" stop-color="rgb(68.252563%, 71.292114%, 42.526245%)" offset="0.484375"/><stop stop-opacity="1" stop-color="rgb(68.493652%, 71.115112%, 42.633057%)" offset="0.488281"/><stop stop-opacity="1" stop-color="rgb(68.734741%, 70.939636%, 42.741394%)" offset="0.492187"/><stop stop-opacity="1" stop-color="rgb(68.97583%, 70.762634%, 42.849731%)" offset="0.496094"/><stop stop-opacity="1" stop-color="rgb(69.218445%, 70.585632%, 42.958069%)" offset="0.5"/><stop stop-opacity="1" stop-color="rgb(69.459534%, 70.40863%, 43.06488%)" offset="0.503906"/><stop stop-opacity="1" stop-color="rgb(69.700623%, 70.231628%, 43.173218%)" offset="0.507812"/><stop stop-opacity="1" stop-color="rgb(69.941711%, 70.054626%, 43.281555%)" offset="0.511719"/><stop stop-opacity="1" stop-color="rgb(70.184326%, 69.877625%, 43.389893%)" offset="0.515625"/><stop stop-opacity="1" stop-color="rgb(70.425415%, 69.700623%, 43.496704%)" offset="0.519531"/><stop stop-opacity="1" stop-color="rgb(70.66803%, 69.523621%, 43.605042%)" offset="0.523437"/><stop stop-opacity="1" stop-color="rgb(70.909119%, 69.346619%, 43.713379%)" offset="0.527344"/><stop stop-opacity="1" stop-color="rgb(71.150208%, 69.169617%, 43.821716%)" offset="0.53125"/><stop stop-opacity="1" stop-color="rgb(71.391296%, 68.992615%, 43.928528%)" offset="0.535156"/><stop stop-opacity="1" stop-color="rgb(71.633911%, 68.817139%, 44.036865%)" offset="0.539062"/><stop stop-opacity="1" stop-color="rgb(71.875%, 68.640137%, 44.145203%)" offset="0.542969"/><stop stop-opacity="1" stop-color="rgb(72.116089%, 68.463135%, 44.25354%)" offset="0.546875"/><stop stop-opacity="1" stop-color="rgb(72.357178%, 68.286133%, 44.360352%)" offset="0.550781"/><stop stop-opacity="1" stop-color="rgb(72.599792%, 68.109131%, 44.468689%)" offset="0.554687"/><stop stop-opacity="1" stop-color="rgb(72.840881%, 67.932129%, 44.577026%)" offset="0.558594"/><stop stop-opacity="1" stop-color="rgb(73.08197%, 67.755127%, 44.685364%)" offset="0.5625"/><stop stop-opacity="1" stop-color="rgb(73.323059%, 67.578125%, 44.792175%)" offset="0.566406"/><stop stop-opacity="1" stop-color="rgb(73.565674%, 67.401123%, 44.900513%)" offset="0.570312"/><stop stop-opacity="1" stop-color="rgb(73.806763%, 67.224121%, 45.00885%)" offset="0.574219"/><stop stop-opacity="1" stop-color="rgb(74.049377%, 67.047119%, 45.117188%)" offset="0.578125"/><stop stop-opacity="1" stop-color="rgb(74.290466%, 66.870117%, 45.223999%)" offset="0.582031"/><stop stop-opacity="1" stop-color="rgb(74.531555%, 66.694641%, 45.332336%)" offset="0.585938"/><stop stop-opacity="1" stop-color="rgb(74.772644%, 66.517639%, 45.440674%)" offset="0.589844"/><stop stop-opacity="1" stop-color="rgb(75.015259%, 66.340637%, 45.549011%)" offset="0.59375"/><stop stop-opacity="1" stop-color="rgb(75.256348%, 66.163635%, 45.655823%)" offset="0.597656"/><stop stop-opacity="1" stop-color="rgb(75.497437%, 65.986633%, 45.76416%)" offset="0.601562"/><stop stop-opacity="1" stop-color="rgb(75.738525%, 65.809631%, 45.872498%)" offset="0.605469"/><stop stop-opacity="1" stop-color="rgb(75.98114%, 65.632629%, 45.980835%)" offset="0.609375"/><stop stop-opacity="1" stop-color="rgb(76.222229%, 65.455627%, 46.087646%)" offset="0.613281"/><stop stop-opacity="1" stop-color="rgb(76.463318%, 65.278625%, 46.195984%)" offset="0.617187"/><stop stop-opacity="1" stop-color="rgb(76.704407%, 65.101624%, 46.304321%)" offset="0.621094"/><stop stop-opacity="1" stop-color="rgb(76.947021%, 64.926147%, 46.412659%)" offset="0.625"/><stop stop-opacity="1" stop-color="rgb(77.18811%, 64.749146%, 46.51947%)" offset="0.628906"/><stop stop-opacity="1" stop-color="rgb(77.430725%, 64.572144%, 46.627808%)" offset="0.632812"/><stop stop-opacity="1" stop-color="rgb(77.671814%, 64.395142%, 46.736145%)" offset="0.636719"/><stop stop-opacity="1" stop-color="rgb(77.912903%, 64.21814%, 46.844482%)" offset="0.640625"/><stop stop-opacity="1" stop-color="rgb(78.153992%, 64.041138%, 46.951294%)" offset="0.644531"/><stop stop-opacity="1" stop-color="rgb(78.396606%, 63.864136%, 47.059631%)" offset="0.648437"/><stop stop-opacity="1" stop-color="rgb(78.637695%, 63.687134%, 47.167969%)" offset="0.652344"/><stop stop-opacity="1" stop-color="rgb(78.878784%, 63.510132%, 47.276306%)" offset="0.65625"/><stop stop-opacity="1" stop-color="rgb(79.119873%, 63.33313%, 47.383118%)" offset="0.660156"/><stop stop-opacity="1" stop-color="rgb(79.362488%, 63.156128%, 47.491455%)" offset="0.664062"/><stop stop-opacity="1" stop-color="rgb(79.603577%, 62.979126%, 47.599792%)" offset="0.667969"/><stop stop-opacity="1" stop-color="rgb(79.844666%, 62.80365%, 47.70813%)" offset="0.671875"/><stop stop-opacity="1" stop-color="rgb(80.085754%, 62.626648%, 47.814941%)" offset="0.675781"/><stop stop-opacity="1" stop-color="rgb(80.328369%, 62.449646%, 47.923279%)" offset="0.679687"/><stop stop-opacity="1" stop-color="rgb(80.569458%, 62.272644%, 48.031616%)" offset="0.683594"/><stop stop-opacity="1" stop-color="rgb(80.810547%, 62.095642%, 48.139954%)" offset="0.6875"/><stop stop-opacity="1" stop-color="rgb(81.051636%, 61.91864%, 48.246765%)" offset="0.691406"/><stop stop-opacity="1" stop-color="rgb(81.29425%, 61.741638%, 48.355103%)" offset="0.695312"/><stop stop-opacity="1" stop-color="rgb(81.535339%, 61.564636%, 48.46344%)" offset="0.699219"/><stop stop-opacity="1" stop-color="rgb(81.777954%, 61.387634%, 48.571777%)" offset="0.703125"/><stop stop-opacity="1" stop-color="rgb(82.019043%, 61.210632%, 48.678589%)" offset="0.707031"/><stop stop-opacity="1" stop-color="rgb(82.260132%, 61.03363%, 48.786926%)" offset="0.710938"/><stop stop-opacity="1" stop-color="rgb(82.501221%, 60.856628%, 48.895264%)" offset="0.714844"/><stop stop-opacity="1" stop-color="rgb(82.743835%, 60.681152%, 49.003601%)" offset="0.71875"/><stop stop-opacity="1" stop-color="rgb(82.984924%, 60.50415%, 49.110413%)" offset="0.722656"/><stop stop-opacity="1" stop-color="rgb(83.226013%, 60.327148%, 49.21875%)" offset="0.726562"/><stop stop-opacity="1" stop-color="rgb(83.467102%, 60.150146%, 49.327087%)" offset="0.730469"/><stop stop-opacity="1" stop-color="rgb(83.709717%, 59.973145%, 49.435425%)" offset="0.734375"/><stop stop-opacity="1" stop-color="rgb(83.950806%, 59.796143%, 49.542236%)" offset="0.738281"/><stop stop-opacity="1" stop-color="rgb(84.191895%, 59.619141%, 49.650574%)" offset="0.742187"/><stop stop-opacity="1" stop-color="rgb(84.432983%, 59.442139%, 49.758911%)" offset="0.746094"/><stop stop-opacity="1" stop-color="rgb(84.675598%, 59.265137%, 49.867249%)" offset="0.75"/><stop stop-opacity="1" stop-color="rgb(84.916687%, 59.088135%, 49.97406%)" offset="0.753906"/><stop stop-opacity="1" stop-color="rgb(85.159302%, 58.911133%, 50.082397%)" offset="0.757812"/><stop stop-opacity="1" stop-color="rgb(85.400391%, 58.734131%, 50.190735%)" offset="0.761719"/><stop stop-opacity="1" stop-color="rgb(85.641479%, 58.558655%, 50.299072%)" offset="0.765625"/><stop stop-opacity="1" stop-color="rgb(85.882568%, 58.381653%, 50.405884%)" offset="0.769531"/><stop stop-opacity="1" stop-color="rgb(86.125183%, 58.204651%, 50.514221%)" offset="0.773437"/><stop stop-opacity="1" stop-color="rgb(86.366272%, 58.027649%, 50.622559%)" offset="0.777344"/><stop stop-opacity="1" stop-color="rgb(86.607361%, 57.850647%, 50.730896%)" offset="0.78125"/><stop stop-opacity="1" stop-color="rgb(86.84845%, 57.673645%, 50.837708%)" offset="0.785156"/><stop stop-opacity="1" stop-color="rgb(87.091064%, 57.496643%, 50.946045%)" offset="0.789062"/><stop stop-opacity="1" stop-color="rgb(87.332153%, 57.319641%, 51.054382%)" offset="0.792969"/><stop stop-opacity="1" stop-color="rgb(87.573242%, 57.142639%, 51.16272%)" offset="0.796875"/><stop stop-opacity="1" stop-color="rgb(87.814331%, 56.965637%, 51.269531%)" offset="0.800781"/><stop stop-opacity="1" stop-color="rgb(88.056946%, 56.788635%, 51.377869%)" offset="0.804688"/><stop stop-opacity="1" stop-color="rgb(88.298035%, 56.611633%, 51.486206%)" offset="0.808594"/><stop stop-opacity="1" stop-color="rgb(88.540649%, 56.436157%, 51.594543%)" offset="0.8125"/><stop stop-opacity="1" stop-color="rgb(88.769531%, 56.266785%, 51.696777%)" offset="0.816406"/><stop stop-opacity="1" stop-color="rgb(88.999939%, 56.098938%, 51.799011%)" offset="0.820312"/><stop stop-opacity="1" stop-color="rgb(88.999939%, 56.098938%, 51.799011%)" offset="0.828125"/><stop stop-opacity="1" stop-color="rgb(88.999939%, 56.098938%, 51.799011%)" offset="0.84375"/><stop stop-opacity="1" stop-color="rgb(88.999939%, 56.098938%, 51.799011%)" offset="0.875"/><stop stop-opacity="1" stop-color="rgb(88.999939%, 56.098938%, 51.799011%)" offset="1"/></linearGradient></defs><g clip-path="url(#47ed68f26e)"><g clip-path="url(#833d6974f7)"><path fill="url(#1040d08911)" d="M 138.894531 86.144531 L 138.894531 219.644531 L 236.105469 219.644531 L 236.105469 86.144531 Z M 138.894531 86.144531 " fill-rule="nonzero"/></g></g><g fill="#e38f84" fill-opacity="1"><g transform="translate(135.857857, 256.646749)"><g><path d="M 14.5 -18.6875 L 14.21875 -14.3125 L 14.125 -14.28125 C 13.382812 -15.382812 12.132812 -16.097656 10.375 -16.421875 C 9.8125 -16.535156 9.273438 -16.59375 8.765625 -16.59375 C 8.253906 -16.59375 7.816406 -16.546875 7.453125 -16.453125 C 7.097656 -16.367188 6.789062 -16.238281 6.53125 -16.0625 C 5.988281 -15.707031 5.71875 -15.242188 5.71875 -14.671875 C 5.71875 -13.910156 5.953125 -13.34375 6.421875 -12.96875 C 7.015625 -12.507812 8 -12.1875 9.375 -12 C 10.757812 -11.820312 11.867188 -11.570312 12.703125 -11.25 C 13.535156 -10.9375 14.222656 -10.539062 14.765625 -10.0625 C 15.773438 -9.144531 16.28125 -7.851562 16.28125 -6.1875 C 16.28125 -4.007812 15.457031 -2.328125 13.8125 -1.140625 C 12.394531 -0.128906 10.617188 0.375 8.484375 0.375 C 6.753906 0.375 5.046875 0.046875 3.359375 -0.609375 C 2.804688 -0.828125 2.320312 -1.082031 1.90625 -1.375 L 2.0625 -6.34375 L 2.125 -6.375 C 3.351562 -4.257812 5.375 -3.203125 8.1875 -3.203125 C 10.175781 -3.203125 11.492188 -3.679688 12.140625 -4.640625 C 12.359375 -4.960938 12.46875 -5.328125 12.46875 -5.734375 C 12.46875 -6.140625 12.398438 -6.472656 12.265625 -6.734375 C 12.140625 -6.992188 11.929688 -7.21875 11.640625 -7.40625 C 11.054688 -7.78125 10.082031 -8.03125 8.71875 -8.15625 C 7.363281 -8.289062 6.253906 -8.535156 5.390625 -8.890625 C 4.535156 -9.253906 3.847656 -9.695312 3.328125 -10.21875 C 2.398438 -11.175781 1.9375 -12.503906 1.9375 -14.203125 C 1.9375 -15.972656 2.554688 -17.40625 3.796875 -18.5 C 5.054688 -19.601562 6.753906 -20.15625 8.890625 -20.15625 C 11.023438 -20.15625 12.894531 -19.664062 14.5 -18.6875 Z M 14.5 -18.6875 "/></g></g></g><g fill="#e38f84" fill-opacity="1"><g transform="translate(157.866524, 256.646749)"><g><path d="M 12.515625 -3.578125 C 13.128906 -3.578125 13.554688 -3.632812 13.796875 -3.75 L 13.84375 -3.734375 L 13.703125 0 L 2.5625 0 L 2.5625 -19.890625 C 2.820312 -19.867188 3.117188 -19.851562 3.453125 -19.84375 L 4.5 -19.8125 C 5.1875 -19.789062 5.9375 -19.78125 6.75 -19.78125 C 9.019531 -19.78125 11.269531 -19.820312 13.5 -19.90625 C 13.382812 -19.03125 13.328125 -17.863281 13.328125 -16.40625 C 13.328125 -16.25 13.335938 -16.128906 13.359375 -16.046875 L 13.328125 -16.015625 C 12.816406 -16.160156 12.082031 -16.234375 11.125 -16.234375 L 6.4375 -16.234375 L 6.4375 -12.4375 L 9.96875 -12.4375 C 11.0625 -12.4375 11.71875 -12.46875 11.9375 -12.53125 L 11.96875 -8.859375 C 11.5 -8.898438 10.882812 -8.921875 10.125 -8.921875 L 6.4375 -8.921875 L 6.4375 -3.578125 Z M 12.515625 -3.578125 "/></g></g></g><g fill="#e38f84" fill-opacity="1"><g transform="translate(177.391491, 256.646749)"><g><path d="M 11.03125 0.0625 C 10.707031 0.0195312 10.1875 0 9.46875 0 L 7.828125 0 C 7.554688 0 7.3125 0.0078125 7.09375 0.03125 L 7.078125 0 C 7.117188 -0.0703125 7.140625 -0.148438 7.140625 -0.234375 C 7.140625 -0.328125 7.128906 -0.421875 7.109375 -0.515625 C 7.097656 -0.617188 7.054688 -0.796875 6.984375 -1.046875 C 6.921875 -1.304688 6.816406 -1.679688 6.671875 -2.171875 L 6.046875 -4.171875 L 0.5 -19.84375 C 1.113281 -19.800781 1.894531 -19.78125 2.84375 -19.78125 C 3.800781 -19.78125 4.414062 -19.820312 4.6875 -19.90625 L 9.171875 -6.375 L 13.09375 -19.84375 C 13.6875 -19.800781 14.421875 -19.78125 15.296875 -19.78125 C 16.484375 -19.78125 17.175781 -19.820312 17.375 -19.90625 L 11.953125 -4.203125 C 11.953125 -4.203125 11.773438 -3.625 11.421875 -2.46875 C 11.140625 -1.476562 11 -0.835938 11 -0.546875 C 11 -0.253906 11.015625 -0.0664062 11.046875 0.015625 Z M 11.03125 0.0625 "/></g></g></g><g fill="#e38f84" fill-opacity="1"><g transform="translate(199.400158, 256.646749)"><g><path d="M 12.515625 -3.578125 C 13.128906 -3.578125 13.554688 -3.632812 13.796875 -3.75 L 13.84375 -3.734375 L 13.703125 0 L 2.5625 0 L 2.5625 -19.890625 C 2.820312 -19.867188 3.117188 -19.851562 3.453125 -19.84375 L 4.5 -19.8125 C 5.1875 -19.789062 5.9375 -19.78125 6.75 -19.78125 C 9.019531 -19.78125 11.269531 -19.820312 13.5 -19.90625 C 13.382812 -19.03125 13.328125 -17.863281 13.328125 -16.40625 C 13.328125 -16.25 13.335938 -16.128906 13.359375 -16.046875 L 13.328125 -16.015625 C 12.816406 -16.160156 12.082031 -16.234375 11.125 -16.234375 L 6.4375 -16.234375 L 6.4375 -12.4375 L 9.96875 -12.4375 C 11.0625 -12.4375 11.71875 -12.46875 11.9375 -12.53125 L 11.96875 -8.859375 C 11.5 -8.898438 10.882812 -8.921875 10.125 -8.921875 L 6.4375 -8.921875 L 6.4375 -3.578125 Z M 12.515625 -3.578125 "/></g></g></g><g fill="#e38f84" fill-opacity="1"><g transform="translate(218.925125, 256.646749)"><g><path d="M 2.6875 0 C 2.75 -0.332031 2.78125 -0.695312 2.78125 -1.09375 L 2.78125 -19.78125 L 5.75 -19.78125 L 13.640625 -7.375 L 13.640625 -18.78125 C 13.640625 -19.320312 13.59375 -19.65625 13.5 -19.78125 L 17.515625 -19.78125 C 17.460938 -19.382812 17.4375 -18.953125 17.4375 -18.484375 L 17.4375 0 L 14.34375 0 L 6.578125 -11.921875 L 6.578125 0 Z M 2.6875 0 "/></g></g></g><g fill="#e38f84" fill-opacity="1"><g transform="translate(243.402624, 256.646749)"><g/></g></g><g fill="#8d9776" fill-opacity="1"><g transform="translate(138.285809, 284.847432)"><g><path d="M 6.953125 -0.125 C 7.429688 -0.125 7.882812 -0.191406 8.3125 -0.328125 C 8.75 -0.460938 9.128906 -0.625 9.453125 -0.8125 C 9.753906 -0.988281 9.976562 -1.1875 10.125 -1.40625 C 10.269531 -1.625 10.382812 -1.890625 10.46875 -2.203125 L 10.984375 -4.140625 C 11.109375 -4.617188 11.171875 -5 11.171875 -5.28125 C 11.171875 -5.644531 11.039062 -5.890625 10.78125 -6.015625 C 10.519531 -6.140625 10.035156 -6.21875 9.328125 -6.25 L 9.4375 -6.6875 C 10.21875 -6.644531 11.242188 -6.625 12.515625 -6.625 C 13.523438 -6.625 14.296875 -6.644531 14.828125 -6.6875 L 14.71875 -6.25 C 14.363281 -6.21875 14.101562 -6.15625 13.9375 -6.0625 C 13.769531 -5.976562 13.625 -5.816406 13.5 -5.578125 C 13.375 -5.335938 13.238281 -4.929688 13.09375 -4.359375 L 11.921875 0 L 11.484375 0 C 11.523438 -0.175781 11.546875 -0.367188 11.546875 -0.578125 C 11.546875 -1.023438 11.4375 -1.25 11.21875 -1.25 C 11.132812 -1.25 11.035156 -1.226562 10.921875 -1.1875 C 10.816406 -1.144531 10.640625 -1.039062 10.390625 -0.875 C 9.765625 -0.5 9.148438 -0.207031 8.546875 0 C 7.953125 0.207031 7.316406 0.3125 6.640625 0.3125 C 4.847656 0.3125 3.472656 -0.125 2.515625 -1 C 1.566406 -1.875 1.09375 -3.117188 1.09375 -4.734375 C 1.09375 -6.429688 1.507812 -8.144531 2.34375 -9.875 C 3.175781 -11.601562 4.328125 -13.035156 5.796875 -14.171875 C 7.273438 -15.316406 8.921875 -15.890625 10.734375 -15.890625 C 11.617188 -15.890625 12.320312 -15.765625 12.84375 -15.515625 C 13.363281 -15.273438 13.863281 -14.921875 14.34375 -14.453125 C 14.476562 -14.316406 14.601562 -14.25 14.71875 -14.25 C 14.863281 -14.25 15.003906 -14.351562 15.140625 -14.5625 C 15.285156 -14.769531 15.4375 -15.109375 15.59375 -15.578125 L 16.078125 -15.578125 C 15.597656 -14.316406 15.128906 -12.628906 14.671875 -10.515625 L 14.1875 -10.515625 C 14.257812 -11.148438 14.296875 -11.703125 14.296875 -12.171875 C 14.296875 -12.835938 14.191406 -13.367188 13.984375 -13.765625 C 13.679688 -14.316406 13.226562 -14.738281 12.625 -15.03125 C 12.019531 -15.332031 11.347656 -15.484375 10.609375 -15.484375 C 9.097656 -15.484375 7.769531 -14.84375 6.625 -13.5625 C 5.488281 -12.289062 4.625 -10.753906 4.03125 -8.953125 C 3.4375 -7.148438 3.140625 -5.5 3.140625 -4 C 3.140625 -2.6875 3.453125 -1.710938 4.078125 -1.078125 C 4.703125 -0.441406 5.660156 -0.125 6.953125 -0.125 Z M 6.953125 -0.125 "/></g></g></g><g fill="#8d9776" fill-opacity="1"><g transform="translate(157.04904, 284.847432)"><g><path d="M 10.015625 -3.59375 L 10.421875 -3.59375 L 9.875 -1.984375 C 9.582031 -1.171875 9.207031 -0.582031 8.75 -0.21875 C 8.300781 0.132812 7.832031 0.3125 7.34375 0.3125 C 7.070312 0.3125 6.832031 0.257812 6.625 0.15625 C 6.414062 0.0507812 6.253906 -0.0859375 6.140625 -0.265625 C 6.003906 -0.484375 5.9375 -0.738281 5.9375 -1.03125 C 5.9375 -1.34375 5.988281 -1.6875 6.09375 -2.0625 C 6.195312 -2.445312 6.265625 -2.691406 6.296875 -2.796875 L 6.6875 -4.375 C 5.976562 -2.726562 5.257812 -1.535156 4.53125 -0.796875 C 3.8125 -0.0546875 3.054688 0.3125 2.265625 0.3125 C 1.585938 0.3125 1.070312 0.0703125 0.71875 -0.40625 C 0.375 -0.894531 0.203125 -1.546875 0.203125 -2.359375 C 0.203125 -3.546875 0.515625 -4.867188 1.140625 -6.328125 C 1.773438 -7.796875 2.597656 -9.039062 3.609375 -10.0625 C 4.617188 -11.09375 5.644531 -11.609375 6.6875 -11.609375 C 7.082031 -11.609375 7.40625 -11.460938 7.65625 -11.171875 C 7.90625 -10.878906 8.050781 -10.46875 8.09375 -9.9375 L 8.453125 -11.3125 C 9.253906 -11.34375 9.925781 -11.441406 10.46875 -11.609375 L 7.71875 -1.890625 C 7.707031 -1.828125 7.675781 -1.710938 7.625 -1.546875 C 7.582031 -1.378906 7.5625 -1.222656 7.5625 -1.078125 C 7.5625 -0.710938 7.722656 -0.53125 8.046875 -0.53125 C 8.691406 -0.53125 9.257812 -1.273438 9.75 -2.765625 Z M 2.90625 -0.390625 C 3.3125 -0.390625 3.800781 -0.703125 4.375 -1.328125 C 4.945312 -1.960938 5.507812 -2.804688 6.0625 -3.859375 C 6.613281 -4.910156 7.0625 -6.03125 7.40625 -7.21875 L 7.8125 -8.78125 C 7.820312 -8.894531 7.828125 -9.054688 7.828125 -9.265625 C 7.828125 -9.859375 7.71875 -10.328125 7.5 -10.671875 C 7.289062 -11.023438 7 -11.203125 6.625 -11.203125 C 5.988281 -11.203125 5.316406 -10.710938 4.609375 -9.734375 C 3.910156 -8.753906 3.320312 -7.550781 2.84375 -6.125 C 2.375 -4.695312 2.140625 -3.351562 2.140625 -2.09375 C 2.140625 -1.488281 2.203125 -1.050781 2.328125 -0.78125 C 2.460938 -0.519531 2.65625 -0.390625 2.90625 -0.390625 Z M 2.90625 -0.390625 "/></g></g></g><g fill="#8d9776" fill-opacity="1"><g transform="translate(171.80899, 284.847432)"><g><path d="M 8.6875 -11.609375 C 9.082031 -11.609375 9.394531 -11.488281 9.625 -11.25 C 9.863281 -11.019531 9.984375 -10.722656 9.984375 -10.359375 C 9.984375 -9.921875 9.828125 -9.546875 9.515625 -9.234375 C 9.210938 -8.929688 8.859375 -8.78125 8.453125 -8.78125 C 8.179688 -8.78125 7.960938 -8.847656 7.796875 -8.984375 C 7.640625 -9.128906 7.5625 -9.320312 7.5625 -9.5625 C 7.5625 -9.90625 7.648438 -10.191406 7.828125 -10.421875 C 8.003906 -10.660156 8.25 -10.847656 8.5625 -10.984375 C 8.5 -11.035156 8.414062 -11.0625 8.3125 -11.0625 C 7.519531 -11.0625 6.65625 -10.207031 5.71875 -8.5 C 4.789062 -6.789062 3.921875 -4.535156 3.109375 -1.734375 L 2.65625 0 L 0.75 0 L 3.390625 -9.4375 C 3.492188 -9.757812 3.546875 -10.046875 3.546875 -10.296875 C 3.546875 -10.628906 3.390625 -10.796875 3.078125 -10.796875 C 2.753906 -10.796875 2.457031 -10.625 2.1875 -10.28125 C 1.914062 -9.9375 1.640625 -9.363281 1.359375 -8.5625 L 1.078125 -7.75 L 0.65625 -7.75 L 1.203125 -9.34375 C 1.734375 -10.851562 2.625 -11.609375 3.875 -11.609375 C 4.707031 -11.609375 5.125 -11.1875 5.125 -10.34375 C 5.125 -9.925781 5.019531 -9.320312 4.8125 -8.53125 L 4.109375 -5.765625 C 4.898438 -7.890625 5.644531 -9.394531 6.34375 -10.28125 C 7.039062 -11.164062 7.820312 -11.609375 8.6875 -11.609375 Z M 8.6875 -11.609375 "/></g></g></g><g fill="#8d9776" fill-opacity="1"><g transform="translate(184.435316, 284.847432)"><g><path d="M 10.390625 -3.5625 L 10.796875 -3.5625 L 10.296875 -1.953125 C 10.046875 -1.148438 9.6875 -0.570312 9.21875 -0.21875 C 8.75 0.132812 8.257812 0.3125 7.75 0.3125 C 7.289062 0.3125 6.941406 0.195312 6.703125 -0.03125 C 6.472656 -0.269531 6.359375 -0.613281 6.359375 -1.0625 C 6.359375 -1.46875 6.453125 -2.035156 6.640625 -2.765625 L 6.953125 -3.890625 C 6.265625 -2.410156 5.5625 -1.335938 4.84375 -0.671875 C 4.125 -0.015625 3.359375 0.3125 2.546875 0.3125 C 1.828125 0.3125 1.265625 0.0703125 0.859375 -0.40625 C 0.460938 -0.894531 0.265625 -1.625 0.265625 -2.59375 C 0.265625 -3.8125 0.582031 -5.128906 1.21875 -6.546875 C 1.851562 -7.972656 2.71875 -9.171875 3.8125 -10.140625 C 4.90625 -11.117188 6.09375 -11.609375 7.375 -11.609375 C 7.664062 -11.609375 7.9375 -11.515625 8.1875 -11.328125 C 8.4375 -11.140625 8.613281 -10.882812 8.71875 -10.5625 L 9.8125 -14.671875 C 9.875 -14.859375 9.90625 -15.054688 9.90625 -15.265625 C 9.90625 -15.554688 9.789062 -15.769531 9.5625 -15.90625 C 9.332031 -16.050781 8.945312 -16.125 8.40625 -16.125 L 8.53125 -16.59375 C 9.3125 -16.601562 10.015625 -16.679688 10.640625 -16.828125 C 11.265625 -16.972656 11.863281 -17.191406 12.4375 -17.484375 L 8.125 -1.875 C 8.03125 -1.519531 7.984375 -1.269531 7.984375 -1.125 C 7.984375 -0.707031 8.160156 -0.5 8.515625 -0.5 C 8.804688 -0.5 9.078125 -0.664062 9.328125 -1 C 9.578125 -1.34375 9.84375 -1.925781 10.125 -2.75 Z M 3.1875 -0.390625 C 3.625 -0.390625 4.128906 -0.695312 4.703125 -1.3125 C 5.273438 -1.9375 5.835938 -2.765625 6.390625 -3.796875 C 6.953125 -4.828125 7.414062 -5.929688 7.78125 -7.109375 L 8.5625 -9.984375 C 8.46875 -10.367188 8.3125 -10.648438 8.09375 -10.828125 C 7.882812 -11.015625 7.648438 -11.109375 7.390625 -11.109375 C 6.492188 -11.109375 5.648438 -10.632812 4.859375 -9.6875 C 4.066406 -8.738281 3.425781 -7.566406 2.9375 -6.171875 C 2.457031 -4.785156 2.21875 -3.5 2.21875 -2.3125 C 2.21875 -1.03125 2.539062 -0.390625 3.1875 -0.390625 Z M 3.1875 -0.390625 "/></g></g></g><g fill="#8d9776" fill-opacity="1"><g transform="translate(199.613182, 284.847432)"><g><path d="M 9.15625 -10.15625 C 9.15625 -8.96875 8.484375 -7.925781 7.140625 -7.03125 C 5.804688 -6.144531 4.285156 -5.421875 2.578125 -4.859375 C 2.410156 -4.128906 2.328125 -3.421875 2.328125 -2.734375 C 2.328125 -1.316406 2.832031 -0.609375 3.84375 -0.609375 C 5.101562 -0.609375 6.234375 -1.34375 7.234375 -2.8125 L 7.59375 -2.640625 C 7.125 -1.835938 6.488281 -1.144531 5.6875 -0.5625 C 4.882812 0.0195312 4.046875 0.3125 3.171875 0.3125 C 2.253906 0.3125 1.539062 0.046875 1.03125 -0.484375 C 0.519531 -1.015625 0.265625 -1.785156 0.265625 -2.796875 C 0.265625 -3.910156 0.585938 -5.164062 1.234375 -6.5625 C 1.890625 -7.96875 2.773438 -9.160156 3.890625 -10.140625 C 5.003906 -11.117188 6.21875 -11.609375 7.53125 -11.609375 C 8 -11.609375 8.382812 -11.484375 8.6875 -11.234375 C 9 -10.992188 9.15625 -10.632812 9.15625 -10.15625 Z M 7.046875 -11.203125 C 6.578125 -11.203125 6.050781 -10.925781 5.46875 -10.375 C 4.882812 -9.820312 4.335938 -9.085938 3.828125 -8.171875 C 3.328125 -7.265625 2.945312 -6.300781 2.6875 -5.28125 C 4.082031 -5.757812 5.078125 -6.226562 5.671875 -6.6875 C 6.210938 -7.113281 6.632812 -7.628906 6.9375 -8.234375 C 7.238281 -8.847656 7.390625 -9.503906 7.390625 -10.203125 C 7.390625 -10.597656 7.359375 -10.863281 7.296875 -11 C 7.242188 -11.132812 7.160156 -11.203125 7.046875 -11.203125 Z M 7.046875 -11.203125 "/></g></g></g><g fill="#8d9776" fill-opacity="1"><g transform="translate(212.305491, 284.847432)"><g><path d="M 11.65625 -3.5625 L 11.109375 -1.953125 C 10.578125 -0.441406 9.691406 0.3125 8.453125 0.3125 C 7.785156 0.3125 7.320312 0.0976562 7.0625 -0.328125 C 6.945312 -0.503906 6.890625 -0.75 6.890625 -1.0625 C 6.890625 -1.457031 7.015625 -2.023438 7.265625 -2.765625 L 9.34375 -9.0625 C 9.488281 -9.550781 9.5625 -9.910156 9.5625 -10.140625 C 9.5625 -10.648438 9.328125 -10.90625 8.859375 -10.90625 C 8.304688 -10.90625 7.671875 -10.5 6.953125 -9.6875 C 6.242188 -8.875 5.546875 -7.753906 4.859375 -6.328125 C 4.171875 -4.910156 3.578125 -3.335938 3.078125 -1.609375 L 2.6875 0 L 0.765625 0 L 3.40625 -9.4375 C 3.507812 -9.820312 3.5625 -10.09375 3.5625 -10.25 C 3.5625 -10.613281 3.398438 -10.796875 3.078125 -10.796875 C 2.753906 -10.796875 2.46875 -10.632812 2.21875 -10.3125 C 1.96875 -9.988281 1.691406 -9.40625 1.390625 -8.5625 L 1.09375 -7.75 L 0.6875 -7.75 L 1.234375 -9.34375 C 1.765625 -10.851562 2.632812 -11.609375 3.84375 -11.609375 C 4.3125 -11.609375 4.644531 -11.492188 4.84375 -11.265625 C 5.039062 -11.046875 5.140625 -10.726562 5.140625 -10.3125 C 5.140625 -9.914062 5.039062 -9.320312 4.84375 -8.53125 L 4.0625 -5.515625 C 5.007812 -7.734375 5.910156 -9.300781 6.765625 -10.21875 C 7.617188 -11.144531 8.5625 -11.609375 9.59375 -11.609375 C 10.78125 -11.609375 11.375 -11.0625 11.375 -9.96875 C 11.375 -9.476562 11.265625 -8.921875 11.046875 -8.296875 L 8.90625 -1.875 C 8.789062 -1.519531 8.734375 -1.238281 8.734375 -1.03125 C 8.734375 -0.675781 8.910156 -0.5 9.265625 -0.5 C 9.554688 -0.5 9.835938 -0.664062 10.109375 -1 C 10.378906 -1.332031 10.660156 -1.914062 10.953125 -2.75 L 11.234375 -3.5625 Z M 11.65625 -3.5625 "/></g></g></g><g fill="#8d9776" fill-opacity="1"><g transform="translate(228.319208, 284.847432)"><g><path d="M 1.296875 -0.328125 C 1.441406 -0.253906 1.582031 -0.203125 1.71875 -0.171875 C 1.863281 -0.140625 2.0625 -0.125 2.3125 -0.125 C 2.96875 -0.125 3.5 -0.320312 3.90625 -0.71875 C 4.320312 -1.113281 4.53125 -1.671875 4.53125 -2.390625 C 4.53125 -2.867188 4.441406 -3.328125 4.265625 -3.765625 C 4.085938 -4.210938 3.796875 -4.722656 3.390625 -5.296875 C 2.890625 -5.972656 2.523438 -6.523438 2.296875 -6.953125 C 2.066406 -7.390625 1.953125 -7.898438 1.953125 -8.484375 C 1.953125 -9.085938 2.101562 -9.628906 2.40625 -10.109375 C 2.71875 -10.585938 3.132812 -10.957031 3.65625 -11.21875 C 4.175781 -11.476562 4.75 -11.609375 5.375 -11.609375 C 6.132812 -11.609375 6.769531 -11.46875 7.28125 -11.1875 C 7.789062 -10.90625 8.046875 -10.410156 8.046875 -9.703125 C 8.046875 -9.441406 7.960938 -9.1875 7.796875 -8.9375 C 7.628906 -8.6875 7.378906 -8.5625 7.046875 -8.5625 C 6.796875 -8.5625 6.582031 -8.648438 6.40625 -8.828125 C 6.238281 -9.003906 6.15625 -9.222656 6.15625 -9.484375 C 6.15625 -9.953125 6.363281 -10.441406 6.78125 -10.953125 C 6.5 -11.128906 6.128906 -11.21875 5.671875 -11.21875 C 5.117188 -11.21875 4.660156 -11.03125 4.296875 -10.65625 C 3.941406 -10.28125 3.765625 -9.769531 3.765625 -9.125 C 3.765625 -8.75 3.828125 -8.425781 3.953125 -8.15625 C 4.085938 -7.882812 4.332031 -7.484375 4.6875 -6.953125 L 5.078125 -6.375 C 5.515625 -5.707031 5.835938 -5.128906 6.046875 -4.640625 C 6.265625 -4.160156 6.375 -3.660156 6.375 -3.140625 C 6.375 -2.484375 6.203125 -1.890625 5.859375 -1.359375 C 5.515625 -0.835938 5.050781 -0.425781 4.46875 -0.125 C 3.894531 0.164062 3.269531 0.3125 2.59375 0.3125 C 1.757812 0.3125 1.054688 0.132812 0.484375 -0.21875 C -0.0859375 -0.582031 -0.375 -1.132812 -0.375 -1.875 C -0.375 -2.125 -0.300781 -2.347656 -0.15625 -2.546875 C -0.0195312 -2.753906 0.191406 -2.859375 0.484375 -2.859375 C 0.804688 -2.859375 1.046875 -2.722656 1.203125 -2.453125 C 1.367188 -2.191406 1.453125 -1.863281 1.453125 -1.46875 C 1.453125 -1.21875 1.398438 -0.835938 1.296875 -0.328125 Z M 1.296875 -0.328125 "/></g></g></g><g fill="#8d9776" fill-opacity="1"><g transform="translate(239.957677, 284.847432)"><g/></g></g></svg>