<svg xmlns="http://www.w3.org/2000/svg" xmlns:xlink="http://www.w3.org/1999/xlink" width="500" zoomAndPan="magnify" viewBox="0 0 375 374.999991" height="500" preserveAspectRatio="xMidYMid meet" version="1.0"><defs><clipPath id="fa4c243a30"><path d="M 187.5 0 C 83.945312 0 0 83.945312 0 187.5 C 0 291.054688 83.945312 375 187.5 375 C 291.054688 375 375 291.054688 375 187.5 C 375 83.945312 291.054688 0 187.5 0 Z M 187.5 0 " clip-rule="nonzero"/></clipPath><clipPath id="d3ee377973"><path d="M 93 143 L 282 143 L 282 325.617188 L 93 325.617188 Z M 93 143 " clip-rule="nonzero"/></clipPath><clipPath id="8973025180"><path d="M 187 143 L 282 143 L 282 325.617188 L 187 325.617188 Z M 187 143 " clip-rule="nonzero"/></clipPath><clipPath id="bab768f2c2"><path d="M 71.851562 180 L 188 180 L 188 254 L 71.851562 254 Z M 71.851562 180 " clip-rule="nonzero"/></clipPath><clipPath id="88d19b1f07"><path d="M 187 180 L 302.851562 180 L 302.851562 254 L 187 254 Z M 187 180 " clip-rule="nonzero"/></clipPath><clipPath id="6469384c9e"><path d="M 92 49.617188 L 280 49.617188 L 280 150 L 92 150 Z M 92 49.617188 " clip-rule="nonzero"/></clipPath></defs><path fill="#6fb4fa" d="M 374.953125 187.535156 C 374.953125 190.605469 374.875 193.671875 374.726562 196.734375 C 374.574219 199.800781 374.351562 202.859375 374.050781 205.914062 C 373.75 208.964844 373.375 212.011719 372.921875 215.046875 C 372.472656 218.082031 371.949219 221.101562 371.351562 224.113281 C 370.75 227.121094 370.078125 230.117188 369.332031 233.09375 C 368.585938 236.066406 367.769531 239.023438 366.878906 241.960938 C 365.988281 244.898438 365.027344 247.808594 363.992188 250.699219 C 362.957031 253.589844 361.855469 256.449219 360.679688 259.285156 C 359.507812 262.121094 358.261719 264.925781 356.949219 267.699219 C 355.640625 270.472656 354.261719 273.210938 352.8125 275.917969 C 351.367188 278.625 349.855469 281.292969 348.277344 283.925781 C 346.699219 286.554688 345.058594 289.148438 343.355469 291.699219 C 341.648438 294.25 339.882812 296.757812 338.054688 299.222656 C 336.226562 301.6875 334.339844 304.105469 332.394531 306.476562 C 330.449219 308.847656 328.445312 311.171875 326.382812 313.445312 C 324.324219 315.71875 322.207031 317.941406 320.039062 320.109375 C 317.867188 322.28125 315.644531 324.394531 313.371094 326.457031 C 311.097656 328.515625 308.777344 330.519531 306.40625 332.46875 C 304.03125 334.414062 301.613281 336.300781 299.148438 338.128906 C 296.683594 339.957031 294.175781 341.722656 291.625 343.425781 C 289.074219 345.132812 286.484375 346.773438 283.851562 348.351562 C 281.21875 349.929688 278.550781 351.441406 275.84375 352.886719 C 273.136719 354.332031 270.398438 355.710938 267.625 357.023438 C 264.851562 358.335938 262.046875 359.578125 259.210938 360.753906 C 256.375 361.925781 253.515625 363.03125 250.625 364.066406 C 247.738281 365.097656 244.824219 366.0625 241.886719 366.953125 C 238.953125 367.84375 235.996094 368.660156 233.019531 369.40625 C 230.042969 370.152344 227.050781 370.824219 224.039062 371.421875 C 221.03125 372.019531 218.007812 372.546875 214.972656 372.996094 C 211.9375 373.445312 208.894531 373.820312 205.839844 374.121094 C 202.785156 374.421875 199.726562 374.648438 196.664062 374.800781 C 193.597656 374.949219 190.53125 375.023438 187.460938 375.023438 C 184.394531 375.023438 181.328125 374.949219 178.261719 374.800781 C 175.199219 374.648438 172.140625 374.421875 169.085938 374.121094 C 166.03125 373.820312 162.988281 373.445312 159.953125 372.996094 C 156.917969 372.546875 153.894531 372.019531 150.886719 371.421875 C 147.875 370.824219 144.882812 370.152344 141.90625 369.40625 C 138.929688 368.660156 135.972656 367.84375 133.039062 366.953125 C 130.101562 366.0625 127.1875 365.097656 124.300781 364.066406 C 121.410156 363.03125 118.546875 361.925781 115.714844 360.753906 C 112.878906 359.578125 110.074219 358.335938 107.300781 357.023438 C 104.527344 355.710938 101.785156 354.332031 99.082031 352.886719 C 96.375 351.441406 93.707031 349.929688 91.074219 348.351562 C 88.441406 346.773438 85.851562 345.132812 83.300781 343.425781 C 80.746094 341.722656 78.238281 339.957031 75.777344 338.128906 C 73.3125 336.300781 70.894531 334.414062 68.519531 332.46875 C 66.148438 330.519531 63.824219 328.515625 61.550781 326.457031 C 59.277344 324.394531 57.058594 322.28125 54.886719 320.109375 C 52.71875 317.941406 50.601562 315.71875 48.542969 313.445312 C 46.480469 311.171875 44.476562 308.847656 42.53125 306.476562 C 40.585938 304.105469 38.699219 301.6875 36.871094 299.222656 C 35.042969 296.757812 33.277344 294.25 31.570312 291.699219 C 29.867188 289.148438 28.226562 286.554688 26.648438 283.925781 C 25.070312 281.292969 23.558594 278.625 22.113281 275.917969 C 20.664062 273.210938 19.285156 270.472656 17.972656 267.699219 C 16.660156 264.925781 15.417969 262.121094 14.246094 259.285156 C 13.070312 256.449219 11.964844 253.589844 10.933594 250.699219 C 9.898438 247.808594 8.9375 244.898438 8.046875 241.960938 C 7.15625 239.023438 6.335938 236.066406 5.59375 233.09375 C 4.847656 230.117188 4.175781 227.121094 3.574219 224.113281 C 2.976562 221.101562 2.453125 218.082031 2.003906 215.046875 C 1.550781 212.011719 1.175781 208.964844 0.875 205.914062 C 0.574219 202.859375 0.347656 199.800781 0.199219 196.734375 C 0.046875 193.671875 -0.0273438 190.605469 -0.0273438 187.535156 C -0.0273438 184.46875 0.046875 181.402344 0.199219 178.335938 C 0.347656 175.269531 0.574219 172.210938 0.875 169.160156 C 1.175781 166.105469 1.550781 163.058594 2.003906 160.023438 C 2.453125 156.988281 2.976562 153.96875 3.574219 150.957031 C 4.175781 147.949219 4.847656 144.957031 5.59375 141.980469 C 6.335938 139.003906 7.15625 136.046875 8.046875 133.109375 C 8.9375 130.171875 9.898438 127.261719 10.933594 124.371094 C 11.964844 121.484375 13.070312 118.621094 14.246094 115.785156 C 15.417969 112.953125 16.660156 110.148438 17.972656 107.375 C 19.285156 104.597656 20.664062 101.859375 22.113281 99.152344 C 23.558594 96.449219 25.070312 93.777344 26.648438 91.148438 C 28.226562 88.515625 29.867188 85.921875 31.570312 83.371094 C 33.273438 80.820312 35.042969 78.3125 36.871094 75.847656 C 38.699219 73.382812 40.585938 70.964844 42.53125 68.59375 C 44.476562 66.222656 46.480469 63.898438 48.542969 61.625 C 50.601562 59.351562 52.71875 57.128906 54.886719 54.960938 C 57.058594 52.789062 59.277344 50.675781 61.550781 48.613281 C 63.824219 46.554688 66.148438 44.550781 68.519531 42.605469 C 70.890625 40.65625 73.308594 38.769531 75.773438 36.941406 C 78.238281 35.113281 80.746094 33.347656 83.296875 31.644531 C 85.851562 29.9375 88.441406 28.296875 91.074219 26.71875 C 93.707031 25.144531 96.375 23.628906 99.082031 22.183594 C 101.785156 20.738281 104.527344 19.359375 107.300781 18.046875 C 110.074219 16.734375 112.878906 15.492188 115.714844 14.316406 C 118.546875 13.144531 121.410156 12.039062 124.300781 11.003906 C 127.1875 9.972656 130.101562 9.011719 133.035156 8.117188 C 135.972656 7.226562 138.929688 6.410156 141.90625 5.664062 C 144.882812 4.917969 147.875 4.246094 150.882812 3.648438 C 153.894531 3.050781 156.917969 2.523438 159.953125 2.074219 C 162.988281 1.625 166.03125 1.25 169.085938 0.949219 C 172.140625 0.648438 175.199219 0.421875 178.261719 0.273438 C 181.328125 0.121094 184.394531 0.046875 187.460938 0.046875 C 190.53125 0.046875 193.597656 0.121094 196.664062 0.273438 C 199.726562 0.421875 202.785156 0.648438 205.839844 0.949219 C 208.894531 1.25 211.9375 1.625 214.972656 2.074219 C 218.007812 2.523438 221.03125 3.050781 224.039062 3.648438 C 227.050781 4.246094 230.042969 4.917969 233.019531 5.664062 C 235.996094 6.410156 238.953125 7.226562 241.886719 8.117188 C 244.824219 9.011719 247.738281 9.972656 250.625 11.003906 C 253.515625 12.039062 256.375 13.144531 259.210938 14.316406 C 262.046875 15.492188 264.851562 16.734375 267.625 18.046875 C 270.398438 19.359375 273.136719 20.738281 275.84375 22.183594 C 278.550781 23.628906 281.21875 25.144531 283.851562 26.71875 C 286.484375 28.296875 289.074219 29.9375 291.625 31.644531 C 294.175781 33.347656 296.683594 35.113281 299.148438 36.941406 C 301.613281 38.769531 304.03125 40.65625 306.40625 42.605469 C 308.777344 44.550781 311.097656 46.554688 313.371094 48.613281 C 315.644531 50.675781 317.867188 52.789062 320.039062 54.960938 C 322.207031 57.128906 324.324219 59.351562 326.382812 61.625 C 328.445312 63.898438 330.449219 66.222656 332.394531 68.59375 C 334.339844 70.964844 336.226562 73.382812 338.054688 75.847656 C 339.882812 78.3125 341.648438 80.820312 343.355469 83.371094 C 345.058594 85.921875 346.699219 88.515625 348.277344 91.148438 C 349.855469 93.777344 351.367188 96.449219 352.8125 99.152344 C 354.261719 101.859375 355.640625 104.597656 356.949219 107.375 C 358.261719 110.148438 359.507812 112.953125 360.679688 115.785156 C 361.855469 118.621094 362.957031 121.484375 363.992188 124.371094 C 365.027344 127.261719 365.988281 130.171875 366.878906 133.109375 C 367.769531 136.046875 368.585938 139.003906 369.332031 141.980469 C 370.078125 144.957031 370.75 147.949219 371.351562 150.957031 C 371.949219 153.96875 372.472656 156.988281 372.921875 160.023438 C 373.375 163.058594 373.75 166.105469 374.050781 169.160156 C 374.351562 172.210938 374.574219 175.269531 374.726562 178.335938 C 374.875 181.402344 374.953125 184.46875 374.953125 187.535156 Z M 374.953125 187.535156 " fill-opacity="0.85" fill-rule="nonzero"/><path fill="#df8942" d="M 275.222656 79.527344 C 275.222656 75.242188 271.714844 71.734375 267.429688 71.734375 L 103.777344 71.734375 C 99.488281 71.734375 95.984375 75.242188 95.984375 79.527344 L 95.984375 305.523438 C 95.984375 309.8125 99.488281 313.316406 103.777344 313.316406 L 267.429688 313.316406 C 271.714844 313.316406 275.222656 309.8125 275.222656 305.523438 Z M 275.222656 79.527344 " fill-opacity="1" fill-rule="nonzero"/><path fill="#fdbe5d" d="M 275.222656 71.734375 C 275.222656 67.449219 271.714844 63.941406 267.429688 63.941406 L 103.777344 63.941406 C 99.488281 63.941406 95.984375 67.449219 95.984375 71.734375 L 95.984375 297.730469 C 95.984375 302.019531 99.488281 305.523438 103.777344 305.523438 L 267.429688 305.523438 C 271.714844 305.523438 275.222656 302.019531 275.222656 297.730469 Z M 275.222656 71.734375 " fill-opacity="1" fill-rule="nonzero"/><path fill="#df8942" d="M 275.222656 71.734375 C 275.222656 67.449219 271.714844 63.941406 267.429688 63.941406 L 103.777344 63.941406 C 99.488281 63.941406 95.984375 67.449219 95.984375 71.734375 L 103.777344 102.90625 L 267.429688 102.90625 Z M 275.222656 71.734375 " fill-opacity="1" fill-rule="nonzero"/><path fill="#edaf53" d="M 275.222656 71.734375 C 275.222656 67.449219 271.714844 63.941406 267.429688 63.941406 L 103.777344 63.941406 C 99.488281 63.941406 95.984375 67.449219 95.984375 71.734375 L 111.570312 95.113281 L 259.636719 95.113281 Z M 275.222656 71.734375 " fill-opacity="1" fill-rule="nonzero"/><path fill="#ffffff" d="M 173.914062 95.113281 L 181.707031 95.113281 L 181.707031 134.078125 L 173.914062 134.078125 Z M 173.914062 95.113281 " fill-opacity="1" fill-rule="nonzero"/><path fill="#ffffff" d="M 189.5 95.113281 L 197.292969 95.113281 L 197.292969 134.078125 L 189.5 134.078125 Z M 189.5 95.113281 " fill-opacity="1" fill-rule="nonzero"/><path fill="#df8942" d="M 201.1875 134.078125 C 201.1875 142.6875 194.210938 149.664062 185.601562 149.664062 C 176.996094 149.664062 170.015625 142.6875 170.015625 134.078125 C 170.015625 125.472656 176.996094 118.492188 185.601562 118.492188 C 194.210938 118.492188 201.1875 125.472656 201.1875 134.078125 Z M 201.1875 134.078125 " fill-opacity="1" fill-rule="nonzero"/><path fill="#edaf53" d="M 193.394531 134.078125 C 193.394531 138.378906 189.90625 141.871094 185.601562 141.871094 C 181.300781 141.871094 177.808594 138.378906 177.808594 134.078125 C 177.808594 129.777344 181.300781 126.285156 185.601562 126.285156 C 189.90625 126.285156 193.394531 129.777344 193.394531 134.078125 Z M 193.394531 134.078125 " fill-opacity="1" fill-rule="nonzero"/><path fill="#edaf53" d="M 142.742188 235.386719 L 228.464844 235.386719 L 228.464844 243.179688 L 142.742188 243.179688 Z M 142.742188 235.386719 " fill-opacity="1" fill-rule="nonzero"/><path fill="#edaf53" d="M 142.742188 250.972656 L 228.464844 250.972656 L 228.464844 258.765625 L 142.742188 258.765625 Z M 142.742188 250.972656 " fill-opacity="1" fill-rule="nonzero"/><path fill="#edaf53" d="M 142.742188 266.558594 L 228.464844 266.558594 L 228.464844 274.351562 L 142.742188 274.351562 Z M 142.742188 266.558594 " fill-opacity="1" fill-rule="nonzero"/><g clip-path="url(#fa4c243a30)"><rect x="-37.5" width="450" fill="#bfd7b1" y="-37.499999" height="449.999989" fill-opacity="1"/></g><g clip-path="url(#d3ee377973)"><path fill="#a45e26" d="M 187.351562 143.519531 L 281.371094 180.15625 L 281.371094 288.953125 L 187.351562 325.585938 L 93.335938 288.953125 L 93.335938 180.15625 Z M 187.351562 143.519531 " fill-opacity="1" fill-rule="evenodd"/></g><g clip-path="url(#8973025180)"><path fill="#a35623" d="M 187.351562 143.519531 L 281.371094 180.15625 L 281.371094 288.953125 L 187.351562 325.585938 Z M 187.351562 143.519531 " fill-opacity="1" fill-rule="evenodd"/></g><g clip-path="url(#bab768f2c2)"><path fill="#c36a26" d="M 187.351562 216.675781 L 165.96875 253.792969 C 165.96875 253.792969 134.597656 241.570312 71.851562 217.121094 L 93.234375 180.003906 Z M 187.351562 216.675781 " fill-opacity="1" fill-rule="evenodd"/></g><g clip-path="url(#88d19b1f07)"><path fill="#c36a26" d="M 187.351562 216.675781 L 208.734375 253.792969 C 208.734375 253.792969 240.109375 241.570312 302.851562 217.121094 L 281.46875 180.003906 Z M 187.351562 216.675781 " fill-opacity="1" fill-rule="evenodd"/></g><path fill="#9b5d2b" d="M 281.222656 180.097656 L 187.351562 143.519531 L 93.480469 180.097656 L 187.351562 216.675781 Z M 281.222656 180.097656 " fill-opacity="1" fill-rule="evenodd"/><path fill="#824e2b" d="M 281.222656 180.097656 L 187.351562 143.519531 L 187.351562 216.675781 Z M 281.222656 180.097656 " fill-opacity="1" fill-rule="evenodd"/><path fill="#62a4fb" d="M 187.34375 191.917969 C 213.9375 191.917969 235.625 170.179688 235.625 143.53125 C 235.625 116.882812 213.9375 95.148438 187.34375 95.148438 C 160.753906 95.148438 139.0625 116.882812 139.0625 143.53125 C 139.0625 170.179688 160.753906 191.917969 187.34375 191.917969 Z M 187.34375 191.917969 " fill-opacity="1" fill-rule="evenodd"/><path fill="#eff4f7" d="M 205.625 121.46875 C 208.359375 118.726562 212.789062 118.726562 215.523438 121.46875 C 218.253906 124.207031 218.253906 128.648438 215.523438 131.386719 L 181.382812 165.597656 C 178.289062 168.699219 173.175781 168.210938 170.691406 164.644531 L 156.328125 146.535156 C 153.929688 143.507812 154.429688 139.101562 157.449219 136.695312 C 160.46875 134.289062 164.863281 134.792969 167.265625 137.820312 L 177.027344 150.128906 Z M 205.625 121.46875 " fill-opacity="1" fill-rule="evenodd"/><g clip-path="url(#6469384c9e)"><path fill="#fad808" d="M 275.492188 140.296875 C 277.910156 140.296875 279.871094 142.261719 279.871094 144.6875 C 279.871094 147.109375 277.910156 149.074219 275.492188 149.074219 L 254.980469 149.074219 C 252.5625 149.074219 250.601562 147.109375 250.601562 144.6875 C 250.601562 142.261719 252.5625 140.296875 254.980469 140.296875 Z M 182.964844 54.039062 C 182.964844 51.613281 184.925781 49.648438 187.34375 49.648438 C 189.761719 49.648438 191.722656 51.613281 191.722656 54.039062 L 191.722656 74.59375 C 191.722656 77.015625 189.761719 78.980469 187.34375 78.980469 C 184.925781 78.980469 182.964844 77.015625 182.964844 74.59375 Z M 138.757812 67.628906 C 137.558594 65.535156 138.28125 62.863281 140.367188 61.664062 C 142.457031 60.460938 145.121094 61.183594 146.320312 63.273438 L 156.574219 81.074219 C 157.773438 83.167969 157.054688 85.839844 154.96875 87.039062 C 152.878906 88.242188 150.214844 87.523438 149.015625 85.429688 Z M 107.242188 101.574219 C 105.15625 100.363281 104.441406 97.683594 105.652344 95.589844 C 106.859375 93.5 109.535156 92.785156 111.621094 93.996094 L 129.382812 104.273438 C 131.46875 105.484375 132.183594 108.164062 130.972656 110.257812 C 129.765625 112.347656 127.089844 113.0625 125.003906 111.851562 Z M 96.890625 146.765625 C 94.472656 146.765625 92.511719 144.800781 92.511719 142.378906 C 92.511719 139.953125 94.472656 137.988281 96.890625 137.988281 L 117.402344 137.988281 C 119.820312 137.988281 121.78125 139.953125 121.78125 142.378906 C 121.78125 144.800781 119.820312 146.765625 117.402344 146.765625 Z M 228.058594 64.429688 C 229.257812 62.335938 231.925781 61.613281 234.011719 62.816406 C 236.097656 64.019531 236.820312 66.691406 235.621094 68.785156 L 225.363281 86.585938 C 224.164062 88.675781 221.5 89.398438 219.414062 88.195312 C 217.324219 86.992188 216.605469 84.320312 217.804688 82.230469 Z M 261.914062 95.996094 C 264 94.785156 266.675781 95.5 267.882812 97.589844 C 269.09375 99.683594 268.382812 102.363281 266.292969 103.574219 L 248.53125 113.851562 C 246.445312 115.0625 243.769531 114.347656 242.5625 112.257812 C 241.351562 110.164062 242.066406 107.484375 244.152344 106.273438 Z M 261.914062 95.996094 " fill-opacity="1" fill-rule="evenodd"/></g></svg>