<svg xmlns="http://www.w3.org/2000/svg" xmlns:xlink="http://www.w3.org/1999/xlink" width="500" zoomAndPan="magnify" viewBox="0 0 375 374.999991" height="500" preserveAspectRatio="xMidYMid meet" version="1.0"><defs><clipPath id="72970ee63e"><path d="M 187.5 0 C 83.945312 0 0 83.945312 0 187.5 C 0 291.054688 83.945312 375 187.5 375 C 291.054688 375 375 291.054688 375 187.5 C 375 83.945312 291.054688 0 187.5 0 Z M 187.5 0 " clip-rule="nonzero"/></clipPath></defs><path fill="#6fb4fa" d="M 374.953125 187.535156 C 374.953125 190.605469 374.875 193.671875 374.726562 196.734375 C 374.574219 199.800781 374.351562 202.859375 374.050781 205.914062 C 373.75 208.964844 373.375 212.011719 372.921875 215.046875 C 372.472656 218.082031 371.949219 221.101562 371.351562 224.113281 C 370.75 227.121094 370.078125 230.117188 369.332031 233.09375 C 368.585938 236.066406 367.769531 239.023438 366.878906 241.960938 C 365.988281 244.898438 365.027344 247.808594 363.992188 250.699219 C 362.957031 253.589844 361.855469 256.449219 360.679688 259.285156 C 359.507812 262.121094 358.261719 264.925781 356.949219 267.699219 C 355.640625 270.472656 354.261719 273.210938 352.8125 275.917969 C 351.367188 278.625 349.855469 281.292969 348.277344 283.925781 C 346.699219 286.554688 345.058594 289.148438 343.355469 291.699219 C 341.648438 294.25 339.882812 296.757812 338.054688 299.222656 C 336.226562 301.6875 334.339844 304.105469 332.394531 306.476562 C 330.449219 308.847656 328.445312 311.171875 326.382812 313.445312 C 324.324219 315.71875 322.207031 317.941406 320.039062 320.109375 C 317.867188 322.28125 315.644531 324.394531 313.371094 326.457031 C 311.097656 328.515625 308.777344 330.519531 306.40625 332.46875 C 304.03125 334.414062 301.613281 336.300781 299.148438 338.128906 C 296.683594 339.957031 294.175781 341.722656 291.625 343.425781 C 289.074219 345.132812 286.484375 346.773438 283.851562 348.351562 C 281.21875 349.929688 278.550781 351.441406 275.84375 352.886719 C 273.136719 354.332031 270.398438 355.710938 267.625 357.023438 C 264.851562 358.335938 262.046875 359.578125 259.210938 360.753906 C 256.375 361.925781 253.515625 363.03125 250.625 364.066406 C 247.738281 365.097656 244.824219 366.0625 241.886719 366.953125 C 238.953125 367.84375 235.996094 368.660156 233.019531 369.40625 C 230.042969 370.152344 227.050781 370.824219 224.039062 371.421875 C 221.03125 372.019531 218.007812 372.546875 214.972656 372.996094 C 211.9375 373.445312 208.894531 373.820312 205.839844 374.121094 C 202.785156 374.421875 199.726562 374.648438 196.664062 374.800781 C 193.597656 374.949219 190.53125 375.023438 187.460938 375.023438 C 184.394531 375.023438 181.328125 374.949219 178.261719 374.800781 C 175.199219 374.648438 172.140625 374.421875 169.085938 374.121094 C 166.03125 373.820312 162.988281 373.445312 159.953125 372.996094 C 156.917969 372.546875 153.894531 372.019531 150.886719 371.421875 C 147.875 370.824219 144.882812 370.152344 141.90625 369.40625 C 138.929688 368.660156 135.972656 367.84375 133.039062 366.953125 C 130.101562 366.0625 127.1875 365.097656 124.300781 364.066406 C 121.410156 363.03125 118.546875 361.925781 115.714844 360.753906 C 112.878906 359.578125 110.074219 358.335938 107.300781 357.023438 C 104.527344 355.710938 101.785156 354.332031 99.082031 352.886719 C 96.375 351.441406 93.707031 349.929688 91.074219 348.351562 C 88.441406 346.773438 85.851562 345.132812 83.300781 343.425781 C 80.746094 341.722656 78.238281 339.957031 75.777344 338.128906 C 73.3125 336.300781 70.894531 334.414062 68.519531 332.46875 C 66.148438 330.519531 63.824219 328.515625 61.550781 326.457031 C 59.277344 324.394531 57.058594 322.28125 54.886719 320.109375 C 52.71875 317.941406 50.601562 315.71875 48.542969 313.445312 C 46.480469 311.171875 44.476562 308.847656 42.53125 306.476562 C 40.585938 304.105469 38.699219 301.6875 36.871094 299.222656 C 35.042969 296.757812 33.277344 294.25 31.570312 291.699219 C 29.867188 289.148438 28.226562 286.554688 26.648438 283.925781 C 25.070312 281.292969 23.558594 278.625 22.113281 275.917969 C 20.664062 273.210938 19.285156 270.472656 17.972656 267.699219 C 16.660156 264.925781 15.417969 262.121094 14.246094 259.285156 C 13.070312 256.449219 11.964844 253.589844 10.933594 250.699219 C 9.898438 247.808594 8.9375 244.898438 8.046875 241.960938 C 7.15625 239.023438 6.335938 236.066406 5.59375 233.09375 C 4.847656 230.117188 4.175781 227.121094 3.574219 224.113281 C 2.976562 221.101562 2.453125 218.082031 2.003906 215.046875 C 1.550781 212.011719 1.175781 208.964844 0.875 205.914062 C 0.574219 202.859375 0.347656 199.800781 0.199219 196.734375 C 0.046875 193.671875 -0.0273438 190.605469 -0.0273438 187.535156 C -0.0273438 184.46875 0.046875 181.402344 0.199219 178.335938 C 0.347656 175.269531 0.574219 172.210938 0.875 169.160156 C 1.175781 166.105469 1.550781 163.058594 2.003906 160.023438 C 2.453125 156.988281 2.976562 153.96875 3.574219 150.957031 C 4.175781 147.949219 4.847656 144.957031 5.59375 141.980469 C 6.335938 139.003906 7.15625 136.046875 8.046875 133.109375 C 8.9375 130.171875 9.898438 127.261719 10.933594 124.371094 C 11.964844 121.484375 13.070312 118.621094 14.246094 115.785156 C 15.417969 112.953125 16.660156 110.148438 17.972656 107.375 C 19.285156 104.597656 20.664062 101.859375 22.113281 99.152344 C 23.558594 96.449219 25.070312 93.777344 26.648438 91.148438 C 28.226562 88.515625 29.867188 85.921875 31.570312 83.371094 C 33.273438 80.820312 35.042969 78.3125 36.871094 75.847656 C 38.699219 73.382812 40.585938 70.964844 42.53125 68.59375 C 44.476562 66.222656 46.480469 63.898438 48.542969 61.625 C 50.601562 59.351562 52.71875 57.128906 54.886719 54.960938 C 57.058594 52.789062 59.277344 50.675781 61.550781 48.613281 C 63.824219 46.554688 66.148438 44.550781 68.519531 42.605469 C 70.890625 40.65625 73.308594 38.769531 75.773438 36.941406 C 78.238281 35.113281 80.746094 33.347656 83.296875 31.644531 C 85.851562 29.9375 88.441406 28.296875 91.074219 26.71875 C 93.707031 25.144531 96.375 23.628906 99.082031 22.183594 C 101.785156 20.738281 104.527344 19.359375 107.300781 18.046875 C 110.074219 16.734375 112.878906 15.492188 115.714844 14.316406 C 118.546875 13.144531 121.410156 12.039062 124.300781 11.003906 C 127.1875 9.972656 130.101562 9.011719 133.035156 8.117188 C 135.972656 7.226562 138.929688 6.410156 141.90625 5.664062 C 144.882812 4.917969 147.875 4.246094 150.882812 3.648438 C 153.894531 3.050781 156.917969 2.523438 159.953125 2.074219 C 162.988281 1.625 166.03125 1.25 169.085938 0.949219 C 172.140625 0.648438 175.199219 0.421875 178.261719 0.273438 C 181.328125 0.121094 184.394531 0.046875 187.460938 0.046875 C 190.53125 0.046875 193.597656 0.121094 196.664062 0.273438 C 199.726562 0.421875 202.785156 0.648438 205.839844 0.949219 C 208.894531 1.25 211.9375 1.625 214.972656 2.074219 C 218.007812 2.523438 221.03125 3.050781 224.039062 3.648438 C 227.050781 4.246094 230.042969 4.917969 233.019531 5.664062 C 235.996094 6.410156 238.953125 7.226562 241.886719 8.117188 C 244.824219 9.011719 247.738281 9.972656 250.625 11.003906 C 253.515625 12.039062 256.375 13.144531 259.210938 14.316406 C 262.046875 15.492188 264.851562 16.734375 267.625 18.046875 C 270.398438 19.359375 273.136719 20.738281 275.84375 22.183594 C 278.550781 23.628906 281.21875 25.144531 283.851562 26.71875 C 286.484375 28.296875 289.074219 29.9375 291.625 31.644531 C 294.175781 33.347656 296.683594 35.113281 299.148438 36.941406 C 301.613281 38.769531 304.03125 40.65625 306.40625 42.605469 C 308.777344 44.550781 311.097656 46.554688 313.371094 48.613281 C 315.644531 50.675781 317.867188 52.789062 320.039062 54.960938 C 322.207031 57.128906 324.324219 59.351562 326.382812 61.625 C 328.445312 63.898438 330.449219 66.222656 332.394531 68.59375 C 334.339844 70.964844 336.226562 73.382812 338.054688 75.847656 C 339.882812 78.3125 341.648438 80.820312 343.355469 83.371094 C 345.058594 85.921875 346.699219 88.515625 348.277344 91.148438 C 349.855469 93.777344 351.367188 96.449219 352.8125 99.152344 C 354.261719 101.859375 355.640625 104.597656 356.949219 107.375 C 358.261719 110.148438 359.507812 112.953125 360.679688 115.785156 C 361.855469 118.621094 362.957031 121.484375 363.992188 124.371094 C 365.027344 127.261719 365.988281 130.171875 366.878906 133.109375 C 367.769531 136.046875 368.585938 139.003906 369.332031 141.980469 C 370.078125 144.957031 370.75 147.949219 371.351562 150.957031 C 371.949219 153.96875 372.472656 156.988281 372.921875 160.023438 C 373.375 163.058594 373.75 166.105469 374.050781 169.160156 C 374.351562 172.210938 374.574219 175.269531 374.726562 178.335938 C 374.875 181.402344 374.953125 184.46875 374.953125 187.535156 Z M 374.953125 187.535156 " fill-opacity="0.85" fill-rule="nonzero"/><path fill="#df8942" d="M 275.222656 79.527344 C 275.222656 75.242188 271.714844 71.734375 267.429688 71.734375 L 103.777344 71.734375 C 99.488281 71.734375 95.984375 75.242188 95.984375 79.527344 L 95.984375 305.523438 C 95.984375 309.8125 99.488281 313.316406 103.777344 313.316406 L 267.429688 313.316406 C 271.714844 313.316406 275.222656 309.8125 275.222656 305.523438 Z M 275.222656 79.527344 " fill-opacity="1" fill-rule="nonzero"/><path fill="#fdbe5d" d="M 275.222656 71.734375 C 275.222656 67.449219 271.714844 63.941406 267.429688 63.941406 L 103.777344 63.941406 C 99.488281 63.941406 95.984375 67.449219 95.984375 71.734375 L 95.984375 297.730469 C 95.984375 302.019531 99.488281 305.523438 103.777344 305.523438 L 267.429688 305.523438 C 271.714844 305.523438 275.222656 302.019531 275.222656 297.730469 Z M 275.222656 71.734375 " fill-opacity="1" fill-rule="nonzero"/><path fill="#df8942" d="M 275.222656 71.734375 C 275.222656 67.449219 271.714844 63.941406 267.429688 63.941406 L 103.777344 63.941406 C 99.488281 63.941406 95.984375 67.449219 95.984375 71.734375 L 103.777344 102.90625 L 267.429688 102.90625 Z M 275.222656 71.734375 " fill-opacity="1" fill-rule="nonzero"/><path fill="#edaf53" d="M 275.222656 71.734375 C 275.222656 67.449219 271.714844 63.941406 267.429688 63.941406 L 103.777344 63.941406 C 99.488281 63.941406 95.984375 67.449219 95.984375 71.734375 L 111.570312 95.113281 L 259.636719 95.113281 Z M 275.222656 71.734375 " fill-opacity="1" fill-rule="nonzero"/><path fill="#ffffff" d="M 173.914062 95.113281 L 181.707031 95.113281 L 181.707031 134.078125 L 173.914062 134.078125 Z M 173.914062 95.113281 " fill-opacity="1" fill-rule="nonzero"/><path fill="#ffffff" d="M 189.5 95.113281 L 197.292969 95.113281 L 197.292969 134.078125 L 189.5 134.078125 Z M 189.5 95.113281 " fill-opacity="1" fill-rule="nonzero"/><path fill="#df8942" d="M 201.1875 134.078125 C 201.1875 142.6875 194.210938 149.664062 185.601562 149.664062 C 176.996094 149.664062 170.015625 142.6875 170.015625 134.078125 C 170.015625 125.472656 176.996094 118.492188 185.601562 118.492188 C 194.210938 118.492188 201.1875 125.472656 201.1875 134.078125 Z M 201.1875 134.078125 " fill-opacity="1" fill-rule="nonzero"/><path fill="#edaf53" d="M 193.394531 134.078125 C 193.394531 138.378906 189.90625 141.871094 185.601562 141.871094 C 181.300781 141.871094 177.808594 138.378906 177.808594 134.078125 C 177.808594 129.777344 181.300781 126.285156 185.601562 126.285156 C 189.90625 126.285156 193.394531 129.777344 193.394531 134.078125 Z M 193.394531 134.078125 " fill-opacity="1" fill-rule="nonzero"/><path fill="#edaf53" d="M 142.742188 235.386719 L 228.464844 235.386719 L 228.464844 243.179688 L 142.742188 243.179688 Z M 142.742188 235.386719 " fill-opacity="1" fill-rule="nonzero"/><path fill="#edaf53" d="M 142.742188 250.972656 L 228.464844 250.972656 L 228.464844 258.765625 L 142.742188 258.765625 Z M 142.742188 250.972656 " fill-opacity="1" fill-rule="nonzero"/><path fill="#edaf53" d="M 142.742188 266.558594 L 228.464844 266.558594 L 228.464844 274.351562 L 142.742188 274.351562 Z M 142.742188 266.558594 " fill-opacity="1" fill-rule="nonzero"/><g clip-path="url(#72970ee63e)"><rect x="-37.5" width="450" fill="#bfd7b1" y="-37.499999" height="449.999989" fill-opacity="1"/></g><path fill="#4b4e3b" d="M 100.492188 259.398438 C 96.519531 259.398438 93.300781 256.179688 93.300781 252.207031 L 93.300781 101.210938 C 93.300781 97.238281 96.519531 94.019531 100.492188 94.019531 L 208.347656 94.019531 C 212.320312 94.019531 215.539062 97.238281 215.539062 101.210938 L 215.539062 122.78125 C 215.539062 126.753906 212.320312 129.972656 208.347656 129.972656 C 204.375 129.972656 201.15625 126.753906 201.15625 122.78125 L 201.15625 108.402344 L 107.683594 108.402344 L 107.683594 252.207031 C 107.683594 256.179688 104.46875 259.398438 100.492188 259.398438 Z M 100.492188 259.398438 " fill-opacity="1" fill-rule="nonzero"/><path fill="#4b4e3b" d="M 208.347656 259.398438 L 165.207031 259.398438 C 161.230469 259.398438 158.015625 256.179688 158.015625 252.207031 C 158.015625 248.238281 161.230469 245.015625 165.207031 245.015625 L 201.15625 245.015625 L 201.15625 230.636719 C 201.15625 226.664062 204.375 223.445312 208.347656 223.445312 C 212.320312 223.445312 215.539062 226.664062 215.539062 230.636719 L 215.539062 252.207031 C 215.539062 256.179688 212.320312 259.398438 208.347656 259.398438 Z M 208.347656 259.398438 " fill-opacity="1" fill-rule="nonzero"/><path fill="#4b4e3b" d="M 109.410156 263.433594 C 108.511719 263.433594 107.597656 263.261719 106.714844 262.90625 L 98.433594 259.554688 C 94.757812 258.0625 92.980469 253.871094 94.46875 250.191406 C 95.957031 246.507812 100.148438 244.753906 103.828125 246.222656 L 112.105469 249.570312 C 115.785156 251.0625 117.5625 255.253906 116.074219 258.933594 C 114.945312 261.734375 112.253906 263.433594 109.410156 263.433594 Z M 109.410156 263.433594 " fill-opacity="1" fill-rule="nonzero"/><path fill="#4b4e3b" d="M 158.015625 280.96875 C 157.214844 280.96875 156.414062 280.835938 155.648438 280.570312 L 127.015625 270.574219 C 123.265625 269.265625 121.285156 265.164062 122.589844 261.414062 C 123.902344 257.667969 128.03125 255.699219 131.746094 256.992188 L 150.824219 263.652344 L 150.824219 130.585938 L 98.351562 112.125 C 94.609375 110.808594 92.636719 106.703125 93.957031 102.957031 C 95.269531 99.210938 99.363281 97.25 103.125 98.558594 L 160.402344 118.710938 C 163.28125 119.726562 165.207031 122.445312 165.207031 125.496094 L 165.207031 273.777344 C 165.207031 276.105469 164.074219 278.292969 162.179688 279.640625 C 160.945312 280.515625 159.488281 280.96875 158.015625 280.96875 Z M 158.015625 280.96875 " fill-opacity="1" fill-rule="nonzero"/><path fill="#4b4e3b" d="M 273.058594 180.304688 L 179.585938 180.304688 C 175.613281 180.304688 172.394531 177.085938 172.394531 173.113281 C 172.394531 169.144531 175.613281 165.925781 179.585938 165.925781 L 273.058594 165.925781 C 277.035156 165.925781 280.25 169.144531 280.25 173.113281 C 280.25 177.085938 277.035156 180.304688 273.058594 180.304688 Z M 273.058594 180.304688 " fill-opacity="1" fill-rule="nonzero"/><path fill="#4b4e3b" d="M 249.195312 207.910156 C 247.394531 207.910156 245.605469 207.242188 244.207031 205.902344 C 241.34375 203.144531 241.257812 198.597656 244.011719 195.734375 L 267.878906 170.9375 C 270.632812 168.070312 275.179688 167.988281 278.046875 170.742188 C 280.910156 173.496094 280.996094 178.046875 278.242188 180.910156 L 254.375 205.707031 C 252.964844 207.171875 251.082031 207.910156 249.195312 207.910156 Z M 249.195312 207.910156 " fill-opacity="1" fill-rule="nonzero"/><path fill="#4b4e3b" d="M 273.777344 180.953125 C 271.886719 180.953125 270.007812 180.214844 268.59375 178.75 L 244.734375 153.949219 C 241.980469 151.085938 242.066406 146.535156 244.929688 143.78125 C 247.796875 141.03125 252.347656 141.113281 255.097656 143.976562 L 278.957031 168.777344 C 281.710938 171.640625 281.628906 176.191406 278.761719 178.945312 C 277.363281 180.285156 275.574219 180.953125 273.777344 180.953125 Z M 273.777344 180.953125 " fill-opacity="1" fill-rule="nonzero"/><path fill="#4b4e3b" d="M 136.445312 194.683594 C 132.46875 194.683594 129.253906 191.464844 129.253906 187.496094 L 129.253906 180.304688 C 129.253906 176.332031 132.46875 173.113281 136.445312 173.113281 C 140.417969 173.113281 143.632812 176.332031 143.632812 180.304688 L 143.632812 187.496094 C 143.632812 191.464844 140.417969 194.683594 136.445312 194.683594 Z M 136.445312 194.683594 " fill-opacity="1" fill-rule="nonzero"/></svg>