<?xml version="1.0" encoding="UTF-8"?>
<!DOCTYPE svg
PUBLIC "-//W3C//DTD SVG 1.1//EN"
       "http://www.w3.org/Graphics/SVG/1.1/DTD/svg11.dtd">
<svg viewBox="132 19 1068 536" width="936px" height="517px" xmlns="http://www.w3.org/2000/svg" version="1.1">
   <line x1="585" y1="371" x2="575" y2="371" style="stroke:#cb0;stroke-width:1;"/>
   <line x1="288" y1="66" x2="278" y2="66" style="stroke:#cb0;stroke-width:1;"/>
   <line x1="575" y1="371" x2="288" y2="66" style="stroke:#cb0;stroke-width:1;"/>
   <line x1="577.5" y1="371" x2="581.03553390593" y2="374.53553390593" style="stroke:#cb0;stroke-width:2;"/>
   <line x1="577.5" y1="371" x2="581.03553390593" y2="367.46446609407" style="stroke:#cb0;stroke-width:2;"/>
   <line x1="283" y1="66" x2="286.53553390593" y2="69.535533905933" style="stroke:#cb0;stroke-width:2;"/>
   <line x1="283" y1="66" x2="286.53553390593" y2="62.464466094067" style="stroke:#cb0;stroke-width:2;"/>
   <line x1="895" y1="124" x2="885" y2="124" style="stroke:#c00;stroke-width:1;"/>
   <line x1="729" y1="65" x2="719" y2="65" style="stroke:#c00;stroke-width:1;"/>
   <line x1="885" y1="124" x2="729" y2="65" style="stroke:#c00;stroke-width:1;"/>
   <line x1="887.5" y1="124" x2="891.03553390593" y2="127.53553390593" style="stroke:#c00;stroke-width:2;"/>
   <line x1="887.5" y1="124" x2="891.03553390593" y2="120.46446609407" style="stroke:#c00;stroke-width:2;"/>
   <line x1="724" y1="65" x2="727.53553390593" y2="68.535533905933" style="stroke:#c00;stroke-width:2;"/>
   <line x1="724" y1="65" x2="727.53553390593" y2="61.464466094067" style="stroke:#c00;stroke-width:2;"/>
   <line x1="951" y1="442" x2="941" y2="442" style="stroke:#0b0;stroke-width:1;"/>
   <line x1="941" y1="197" x2="951" y2="197" style="stroke:#0b0;stroke-width:1;"/>
   <line x1="941" y1="442" x2="941" y2="197" style="stroke:#0b0;stroke-width:1;"/>
   <line x1="943.5" y1="442" x2="947.03553390593" y2="445.53553390593" style="stroke:#0b0;stroke-width:2;"/>
   <line x1="943.5" y1="442" x2="947.03553390593" y2="438.46446609407" style="stroke:#0b0;stroke-width:2;"/>
   <line x1="946" y1="197" x2="942.46446609407" y2="200.53553390593" style="stroke:#0b0;stroke-width:2;"/>
   <line x1="946" y1="197" x2="942.46446609407" y2="193.46446609407" style="stroke:#0b0;stroke-width:2;"/>
   <line x1="951" y1="462" x2="941" y2="462" style="stroke:#bbb;stroke-width:1;"/>
   <line x1="709" y1="196" x2="699" y2="196" style="stroke:#bbb;stroke-width:1;"/>
   <line x1="941" y1="462" x2="709" y2="196" style="stroke:#bbb;stroke-width:1;"/>
   <line x1="943.5" y1="462" x2="947.03553390593" y2="465.53553390593" style="stroke:#bbb;stroke-width:2;"/>
   <line x1="943.5" y1="462" x2="947.03553390593" y2="458.46446609407" style="stroke:#bbb;stroke-width:2;"/>
   <line x1="704" y1="196" x2="707.53553390593" y2="199.53553390593" style="stroke:#bbb;stroke-width:2;"/>
   <line x1="704" y1="196" x2="707.53553390593" y2="192.46446609407" style="stroke:#bbb;stroke-width:2;"/>
   <line x1="589" y1="236" x2="579" y2="236" style="stroke:#0bf;stroke-width:1;"/>
   <line x1="288" y1="66" x2="278" y2="66" style="stroke:#0bf;stroke-width:1;"/>
   <line x1="579" y1="236" x2="288" y2="66" style="stroke:#0bf;stroke-width:1;"/>
   <line x1="581.5" y1="236" x2="585.03553390593" y2="239.53553390593" style="stroke:#0bf;stroke-width:2;"/>
   <line x1="581.5" y1="236" x2="585.03553390593" y2="232.46446609407" style="stroke:#0bf;stroke-width:2;"/>
   <line x1="283" y1="66" x2="286.53553390593" y2="69.535533905933" style="stroke:#0bf;stroke-width:2;"/>
   <line x1="283" y1="66" x2="286.53553390593" y2="62.464466094067" style="stroke:#0bf;stroke-width:2;"/>
   <line x1="590" y1="125" x2="580" y2="125" style="stroke:#b0b;stroke-width:1;"/>
   <line x1="288" y1="66" x2="278" y2="66" style="stroke:#b0b;stroke-width:1;"/>
   <line x1="580" y1="125" x2="288" y2="66" style="stroke:#b0b;stroke-width:1;"/>
   <line x1="582.5" y1="125" x2="586.03553390593" y2="128.53553390593" style="stroke:#b0b;stroke-width:2;"/>
   <line x1="582.5" y1="125" x2="586.03553390593" y2="121.46446609407" style="stroke:#b0b;stroke-width:2;"/>
   <line x1="283" y1="66" x2="286.53553390593" y2="69.535533905933" style="stroke:#b0b;stroke-width:2;"/>
   <line x1="283" y1="66" x2="286.53553390593" y2="62.464466094067" style="stroke:#b0b;stroke-width:2;"/>
   <line x1="147" y1="481" x2="137" y2="481" style="stroke:#cb0;stroke-width:1;"/>
   <line x1="140" y1="66" x2="150" y2="66" style="stroke:#cb0;stroke-width:1;"/>
   <line x1="137" y1="481" x2="140" y2="66" style="stroke:#cb0;stroke-width:1;"/>
   <line x1="139.5" y1="481" x2="143.03553390593" y2="484.53553390593" style="stroke:#cb0;stroke-width:2;"/>
   <line x1="139.5" y1="481" x2="143.03553390593" y2="477.46446609407" style="stroke:#cb0;stroke-width:2;"/>
   <line x1="145" y1="66" x2="141.46446609407" y2="69.535533905933" style="stroke:#cb0;stroke-width:2;"/>
   <line x1="145" y1="66" x2="141.46446609407" y2="62.464466094067" style="stroke:#cb0;stroke-width:2;"/>
   <rect width="148" height="20" x="585" y="321" style="fill:#007;stroke:black;"/>
   <text width="148" height="20" x="590" y="335" style="fill:#fff;" font-family="Arial" font-size="16px"> endereco_completo</text>
   <rect width="148" height="20" x="585" y="341" style="fill:#aea;stroke:black;"/>
   <text width="148" height="20" x="590" y="355" style="fill:black;" font-family="Arial" font-size="16px">idEndereco</text>
   <rect width="148" height="20" x="585" y="361" style="fill:none;stroke:black;"/>
   <text width="148" height="20" x="590" y="375" style="fill:black;" font-family="Arial" font-size="16px">idUsuario</text>
   <rect width="148" height="20" x="585" y="381" style="fill:none;stroke:black;"/>
   <text width="148" height="20" x="590" y="395" style="fill:black;" font-family="Arial" font-size="16px">logradouro</text>
   <rect width="148" height="20" x="585" y="401" style="fill:none;stroke:black;"/>
   <text width="148" height="20" x="590" y="415" style="fill:black;" font-family="Arial" font-size="16px">numero</text>
   <rect width="148" height="20" x="585" y="421" style="fill:none;stroke:black;"/>
   <text width="148" height="20" x="590" y="435" style="fill:black;" font-family="Arial" font-size="16px">complemento</text>
   <rect width="148" height="20" x="585" y="441" style="fill:none;stroke:black;"/>
   <text width="148" height="20" x="590" y="455" style="fill:black;" font-family="Arial" font-size="16px">bairro</text>
   <rect width="148" height="20" x="585" y="461" style="fill:none;stroke:black;"/>
   <text width="148" height="20" x="590" y="475" style="fill:black;" font-family="Arial" font-size="16px">cidade</text>
   <rect width="148" height="20" x="585" y="481" style="fill:none;stroke:black;"/>
   <text width="148" height="20" x="590" y="495" style="fill:black;" font-family="Arial" font-size="16px">estado</text>
   <rect width="148" height="20" x="585" y="501" style="fill:none;stroke:black;"/>
   <text width="148" height="20" x="590" y="515" style="fill:black;" font-family="Arial" font-size="16px">cep</text>
   <rect width="148" height="20" x="895" y="34" style="fill:#007;stroke:black;"/>
   <text width="148" height="20" x="900" y="48" style="fill:#fff;" font-family="Arial" font-size="16px"> historico_login</text>
   <rect width="148" height="20" x="895" y="54" style="fill:#aea;stroke:black;"/>
   <text width="148" height="20" x="900" y="68" style="fill:black;" font-family="Arial" font-size="16px">id</text>
   <rect width="148" height="20" x="895" y="74" style="fill:none;stroke:black;"/>
   <text width="148" height="20" x="900" y="88" style="fill:black;" font-family="Arial" font-size="16px">horarioLogin</text>
   <rect width="148" height="20" x="895" y="94" style="fill:none;stroke:black;"/>
   <text width="148" height="20" x="900" y="108" style="fill:black;" font-family="Arial" font-size="16px">id_usuario</text>
   <rect width="148" height="20" x="895" y="114" style="fill:none;stroke:black;"/>
   <text width="148" height="20" x="900" y="128" style="fill:black;" font-family="Arial" font-size="16px">id_pergunta_secreta</text>
   <rect width="89" height="20" x="951" y="372" style="fill:#007;stroke:black;"/>
   <text width="89" height="20" x="956" y="386" style="fill:#fff;" font-family="Arial" font-size="16px"> item_pedido</text>
   <rect width="89" height="20" x="951" y="392" style="fill:#aea;stroke:black;"/>
   <text width="89" height="20" x="956" y="406" style="fill:black;" font-family="Arial" font-size="16px">id</text>
   <rect width="89" height="20" x="951" y="412" style="fill:none;stroke:black;"/>
   <text width="89" height="20" x="956" y="426" style="fill:black;" font-family="Arial" font-size="16px">quantidade</text>
   <rect width="89" height="20" x="951" y="432" style="fill:none;stroke:black;"/>
   <text width="89" height="20" x="956" y="446" style="fill:black;" font-family="Arial" font-size="16px">id_produto</text>
   <rect width="89" height="20" x="951" y="452" style="fill:none;stroke:black;"/>
   <text width="89" height="20" x="956" y="466" style="fill:black;" font-family="Arial" font-size="16px">id_pedido</text>
   <rect width="110" height="20" x="589" y="166" style="fill:#007;stroke:black;"/>
   <text width="110" height="20" x="594" y="180" style="fill:#fff;" font-family="Arial" font-size="16px"> pedido</text>
   <rect width="110" height="20" x="589" y="186" style="fill:#aea;stroke:black;"/>
   <text width="110" height="20" x="594" y="200" style="fill:black;" font-family="Arial" font-size="16px">idPedido</text>
   <rect width="110" height="20" x="589" y="206" style="fill:none;stroke:black;"/>
   <text width="110" height="20" x="594" y="220" style="fill:black;" font-family="Arial" font-size="16px">horarioPedido</text>
   <rect width="110" height="20" x="589" y="226" style="fill:none;stroke:black;"/>
   <text width="110" height="20" x="594" y="240" style="fill:black;" font-family="Arial" font-size="16px">id_cliente</text>
   <rect width="110" height="20" x="589" y="246" style="fill:none;stroke:black;"/>
   <text width="110" height="20" x="594" y="260" style="fill:black;" font-family="Arial" font-size="16px">status</text>
   <rect width="129" height="20" x="590" y="35" style="fill:#007;stroke:black;"/>
   <text width="129" height="20" x="595" y="49" style="fill:#fff;" font-family="Arial" font-size="16px"> pergunta_secreta</text>
   <rect width="129" height="20" x="590" y="55" style="fill:#aea;stroke:black;"/>
   <text width="129" height="20" x="595" y="69" style="fill:black;" font-family="Arial" font-size="16px">id</text>
   <rect width="129" height="20" x="590" y="75" style="fill:none;stroke:black;"/>
   <text width="129" height="20" x="595" y="89" style="fill:black;" font-family="Arial" font-size="16px">pergunta</text>
   <rect width="129" height="20" x="590" y="95" style="fill:none;stroke:black;"/>
   <text width="129" height="20" x="595" y="109" style="fill:black;" font-family="Arial" font-size="16px">resposta</text>
   <rect width="129" height="20" x="590" y="115" style="fill:none;stroke:black;"/>
   <text width="129" height="20" x="595" y="129" style="fill:black;" font-family="Arial" font-size="16px">id_usuario</text>
   <rect width="102" height="20" x="951" y="167" style="fill:#007;stroke:black;"/>
   <text width="102" height="20" x="956" y="181" style="fill:#fff;" font-family="Arial" font-size="16px"> produto</text>
   <rect width="102" height="20" x="951" y="187" style="fill:#aea;stroke:black;"/>
   <text width="102" height="20" x="956" y="201" style="fill:black;" font-family="Arial" font-size="16px">idProduto</text>
   <rect width="102" height="20" x="951" y="207" style="fill:none;stroke:black;"/>
   <text width="102" height="20" x="956" y="221" style="fill:black;" font-family="Arial" font-size="16px">nome</text>
   <rect width="102" height="20" x="951" y="227" style="fill:none;stroke:black;"/>
   <text width="102" height="20" x="956" y="241" style="fill:black;" font-family="Arial" font-size="16px">preco</text>
   <rect width="102" height="20" x="951" y="247" style="fill:none;stroke:black;"/>
   <text width="102" height="20" x="956" y="261" style="fill:black;" font-family="Arial" font-size="16px">descricao</text>
   <rect width="102" height="20" x="951" y="267" style="fill:none;stroke:black;"/>
   <text width="102" height="20" x="956" y="281" style="fill:black;" font-family="Arial" font-size="16px">categoria</text>
   <rect width="102" height="20" x="951" y="287" style="fill:none;stroke:black;"/>
   <text width="102" height="20" x="956" y="301" style="fill:black;" font-family="Arial" font-size="16px">subcategoria</text>
   <rect width="102" height="20" x="951" y="307" style="fill:none;stroke:black;"/>
   <text width="102" height="20" x="956" y="321" style="fill:black;" font-family="Arial" font-size="16px">imagem</text>
   <rect width="114" height="20" x="147" y="411" style="fill:#007;stroke:black;"/>
   <text width="114" height="20" x="152" y="425" style="fill:#fff;" font-family="Arial" font-size="16px"> tentativas_login</text>
   <rect width="114" height="20" x="147" y="431" style="fill:#aea;stroke:black;"/>
   <text width="114" height="20" x="152" y="445" style="fill:black;" font-family="Arial" font-size="16px">id</text>
   <rect width="114" height="20" x="147" y="451" style="fill:none;stroke:black;"/>
   <text width="114" height="20" x="152" y="465" style="fill:black;" font-family="Arial" font-size="16px">data_tentativa</text>
   <rect width="114" height="20" x="147" y="471" style="fill:none;stroke:black;"/>
   <text width="114" height="20" x="152" y="485" style="fill:black;" font-family="Arial" font-size="16px">id_usuario</text>
   <rect width="128" height="20" x="150" y="36" style="fill:#007;stroke:black;"/>
   <text width="128" height="20" x="155" y="50" style="fill:#fff;" font-family="Arial" font-size="16px"> usuario</text>
   <rect width="128" height="20" x="150" y="56" style="fill:#aea;stroke:black;"/>
   <text width="128" height="20" x="155" y="70" style="fill:black;" font-family="Arial" font-size="16px">idUsuario</text>
   <rect width="128" height="20" x="150" y="76" style="fill:none;stroke:black;"/>
   <text width="128" height="20" x="155" y="90" style="fill:black;" font-family="Arial" font-size="16px">nome_completo</text>
   <rect width="128" height="20" x="150" y="96" style="fill:none;stroke:black;"/>
   <text width="128" height="20" x="155" y="110" style="fill:black;" font-family="Arial" font-size="16px">data_nascimento</text>
   <rect width="128" height="20" x="150" y="116" style="fill:none;stroke:black;"/>
   <text width="128" height="20" x="155" y="130" style="fill:black;" font-family="Arial" font-size="16px">sexo</text>
   <rect width="128" height="20" x="150" y="136" style="fill:none;stroke:black;"/>
   <text width="128" height="20" x="155" y="150" style="fill:black;" font-family="Arial" font-size="16px">nome_materno</text>
   <rect width="128" height="20" x="150" y="156" style="fill:none;stroke:black;"/>
   <text width="128" height="20" x="155" y="170" style="fill:black;" font-family="Arial" font-size="16px">cpf</text>
   <rect width="128" height="20" x="150" y="176" style="fill:none;stroke:black;"/>
   <text width="128" height="20" x="155" y="190" style="fill:black;" font-family="Arial" font-size="16px">email</text>
   <rect width="128" height="20" x="150" y="196" style="fill:none;stroke:black;"/>
   <text width="128" height="20" x="155" y="210" style="fill:black;" font-family="Arial" font-size="16px">telefone_celular</text>
   <rect width="128" height="20" x="150" y="216" style="fill:none;stroke:black;"/>
   <text width="128" height="20" x="155" y="230" style="fill:black;" font-family="Arial" font-size="16px">user_name</text>
   <rect width="128" height="20" x="150" y="236" style="fill:none;stroke:black;"/>
   <text width="128" height="20" x="155" y="250" style="fill:black;" font-family="Arial" font-size="16px">senha</text>
   <rect width="128" height="20" x="150" y="256" style="fill:none;stroke:black;"/>
   <text width="128" height="20" x="155" y="270" style="fill:black;" font-family="Arial" font-size="16px">tipo_usuario</text>
   <rect width="128" height="20" x="150" y="276" style="fill:none;stroke:black;"/>
   <text width="128" height="20" x="155" y="290" style="fill:black;" font-family="Arial" font-size="16px">ativado</text>
</svg>
