<svg xmlns="http://www.w3.org/2000/svg" xmlns:xlink="http://www.w3.org/1999/xlink" width="500" zoomAndPan="magnify" viewBox="0 0 375 374.999991" height="500" preserveAspectRatio="xMidYMid meet" version="1.0"><defs><clipPath id="8ac5243e07"><path d="M 187.5 0 C 83.945312 0 0 83.945312 0 187.5 C 0 291.054688 83.945312 375 187.5 375 C 291.054688 375 375 291.054688 375 187.5 C 375 83.945312 291.054688 0 187.5 0 Z M 187.5 0 " clip-rule="nonzero"/></clipPath><clipPath id="7cabf30a4c"><path d="M 55 75.707031 L 279.480469 75.707031 L 279.480469 299.207031 L 55 299.207031 Z M 55 75.707031 " clip-rule="nonzero"/></clipPath></defs><path fill="#6fb4fa" d="M 374.953125 187.535156 C 374.953125 190.605469 374.875 193.671875 374.726562 196.734375 C 374.574219 199.800781 374.351562 202.859375 374.050781 205.914062 C 373.75 208.964844 373.375 212.011719 372.921875 215.046875 C 372.472656 218.082031 371.949219 221.101562 371.351562 224.113281 C 370.75 227.121094 370.078125 230.117188 369.332031 233.09375 C 368.585938 236.066406 367.769531 239.023438 366.878906 241.960938 C 365.988281 244.898438 365.027344 247.808594 363.992188 250.699219 C 362.957031 253.589844 361.855469 256.449219 360.679688 259.285156 C 359.507812 262.121094 358.261719 264.925781 356.949219 267.699219 C 355.640625 270.472656 354.261719 273.210938 352.8125 275.917969 C 351.367188 278.625 349.855469 281.292969 348.277344 283.925781 C 346.699219 286.554688 345.058594 289.148438 343.355469 291.699219 C 341.648438 294.25 339.882812 296.757812 338.054688 299.222656 C 336.226562 301.6875 334.339844 304.105469 332.394531 306.476562 C 330.449219 308.847656 328.445312 311.171875 326.382812 313.445312 C 324.324219 315.71875 322.207031 317.941406 320.039062 320.109375 C 317.867188 322.28125 315.644531 324.394531 313.371094 326.457031 C 311.097656 328.515625 308.777344 330.519531 306.40625 332.46875 C 304.03125 334.414062 301.613281 336.300781 299.148438 338.128906 C 296.683594 339.957031 294.175781 341.722656 291.625 343.425781 C 289.074219 345.132812 286.484375 346.773438 283.851562 348.351562 C 281.21875 349.929688 278.550781 351.441406 275.84375 352.886719 C 273.136719 354.332031 270.398438 355.710938 267.625 357.023438 C 264.851562 358.335938 262.046875 359.578125 259.210938 360.753906 C 256.375 361.925781 253.515625 363.03125 250.625 364.066406 C 247.738281 365.097656 244.824219 366.0625 241.886719 366.953125 C 238.953125 367.84375 235.996094 368.660156 233.019531 369.40625 C 230.042969 370.152344 227.050781 370.824219 224.039062 371.421875 C 221.03125 372.019531 218.007812 372.546875 214.972656 372.996094 C 211.9375 373.445312 208.894531 373.820312 205.839844 374.121094 C 202.785156 374.421875 199.726562 374.648438 196.664062 374.800781 C 193.597656 374.949219 190.53125 375.023438 187.460938 375.023438 C 184.394531 375.023438 181.328125 374.949219 178.261719 374.800781 C 175.199219 374.648438 172.140625 374.421875 169.085938 374.121094 C 166.03125 373.820312 162.988281 373.445312 159.953125 372.996094 C 156.917969 372.546875 153.894531 372.019531 150.886719 371.421875 C 147.875 370.824219 144.882812 370.152344 141.90625 369.40625 C 138.929688 368.660156 135.972656 367.84375 133.039062 366.953125 C 130.101562 366.0625 127.1875 365.097656 124.300781 364.066406 C 121.410156 363.03125 118.546875 361.925781 115.714844 360.753906 C 112.878906 359.578125 110.074219 358.335938 107.300781 357.023438 C 104.527344 355.710938 101.785156 354.332031 99.082031 352.886719 C 96.375 351.441406 93.707031 349.929688 91.074219 348.351562 C 88.441406 346.773438 85.851562 345.132812 83.300781 343.425781 C 80.746094 341.722656 78.238281 339.957031 75.777344 338.128906 C 73.3125 336.300781 70.894531 334.414062 68.519531 332.46875 C 66.148438 330.519531 63.824219 328.515625 61.550781 326.457031 C 59.277344 324.394531 57.058594 322.28125 54.886719 320.109375 C 52.71875 317.941406 50.601562 315.71875 48.542969 313.445312 C 46.480469 311.171875 44.476562 308.847656 42.53125 306.476562 C 40.585938 304.105469 38.699219 301.6875 36.871094 299.222656 C 35.042969 296.757812 33.277344 294.25 31.570312 291.699219 C 29.867188 289.148438 28.226562 286.554688 26.648438 283.925781 C 25.070312 281.292969 23.558594 278.625 22.113281 275.917969 C 20.664062 273.210938 19.285156 270.472656 17.972656 267.699219 C 16.660156 264.925781 15.417969 262.121094 14.246094 259.285156 C 13.070312 256.449219 11.964844 253.589844 10.933594 250.699219 C 9.898438 247.808594 8.9375 244.898438 8.046875 241.960938 C 7.15625 239.023438 6.335938 236.066406 5.59375 233.09375 C 4.847656 230.117188 4.175781 227.121094 3.574219 224.113281 C 2.976562 221.101562 2.453125 218.082031 2.003906 215.046875 C 1.550781 212.011719 1.175781 208.964844 0.875 205.914062 C 0.574219 202.859375 0.347656 199.800781 0.199219 196.734375 C 0.046875 193.671875 -0.0273438 190.605469 -0.0273438 187.535156 C -0.0273438 184.46875 0.046875 181.402344 0.199219 178.335938 C 0.347656 175.269531 0.574219 172.210938 0.875 169.160156 C 1.175781 166.105469 1.550781 163.058594 2.003906 160.023438 C 2.453125 156.988281 2.976562 153.96875 3.574219 150.957031 C 4.175781 147.949219 4.847656 144.957031 5.59375 141.980469 C 6.335938 139.003906 7.15625 136.046875 8.046875 133.109375 C 8.9375 130.171875 9.898438 127.261719 10.933594 124.371094 C 11.964844 121.484375 13.070312 118.621094 14.246094 115.785156 C 15.417969 112.953125 16.660156 110.148438 17.972656 107.375 C 19.285156 104.597656 20.664062 101.859375 22.113281 99.152344 C 23.558594 96.449219 25.070312 93.777344 26.648438 91.148438 C 28.226562 88.515625 29.867188 85.921875 31.570312 83.371094 C 33.273438 80.820312 35.042969 78.3125 36.871094 75.847656 C 38.699219 73.382812 40.585938 70.964844 42.53125 68.59375 C 44.476562 66.222656 46.480469 63.898438 48.542969 61.625 C 50.601562 59.351562 52.71875 57.128906 54.886719 54.960938 C 57.058594 52.789062 59.277344 50.675781 61.550781 48.613281 C 63.824219 46.554688 66.148438 44.550781 68.519531 42.605469 C 70.890625 40.65625 73.308594 38.769531 75.773438 36.941406 C 78.238281 35.113281 80.746094 33.347656 83.296875 31.644531 C 85.851562 29.9375 88.441406 28.296875 91.074219 26.71875 C 93.707031 25.144531 96.375 23.628906 99.082031 22.183594 C 101.785156 20.738281 104.527344 19.359375 107.300781 18.046875 C 110.074219 16.734375 112.878906 15.492188 115.714844 14.316406 C 118.546875 13.144531 121.410156 12.039062 124.300781 11.003906 C 127.1875 9.972656 130.101562 9.011719 133.035156 8.117188 C 135.972656 7.226562 138.929688 6.410156 141.90625 5.664062 C 144.882812 4.917969 147.875 4.246094 150.882812 3.648438 C 153.894531 3.050781 156.917969 2.523438 159.953125 2.074219 C 162.988281 1.625 166.03125 1.25 169.085938 0.949219 C 172.140625 0.648438 175.199219 0.421875 178.261719 0.273438 C 181.328125 0.121094 184.394531 0.046875 187.460938 0.046875 C 190.53125 0.046875 193.597656 0.121094 196.664062 0.273438 C 199.726562 0.421875 202.785156 0.648438 205.839844 0.949219 C 208.894531 1.25 211.9375 1.625 214.972656 2.074219 C 218.007812 2.523438 221.03125 3.050781 224.039062 3.648438 C 227.050781 4.246094 230.042969 4.917969 233.019531 5.664062 C 235.996094 6.410156 238.953125 7.226562 241.886719 8.117188 C 244.824219 9.011719 247.738281 9.972656 250.625 11.003906 C 253.515625 12.039062 256.375 13.144531 259.210938 14.316406 C 262.046875 15.492188 264.851562 16.734375 267.625 18.046875 C 270.398438 19.359375 273.136719 20.738281 275.84375 22.183594 C 278.550781 23.628906 281.21875 25.144531 283.851562 26.71875 C 286.484375 28.296875 289.074219 29.9375 291.625 31.644531 C 294.175781 33.347656 296.683594 35.113281 299.148438 36.941406 C 301.613281 38.769531 304.03125 40.65625 306.40625 42.605469 C 308.777344 44.550781 311.097656 46.554688 313.371094 48.613281 C 315.644531 50.675781 317.867188 52.789062 320.039062 54.960938 C 322.207031 57.128906 324.324219 59.351562 326.382812 61.625 C 328.445312 63.898438 330.449219 66.222656 332.394531 68.59375 C 334.339844 70.964844 336.226562 73.382812 338.054688 75.847656 C 339.882812 78.3125 341.648438 80.820312 343.355469 83.371094 C 345.058594 85.921875 346.699219 88.515625 348.277344 91.148438 C 349.855469 93.777344 351.367188 96.449219 352.8125 99.152344 C 354.261719 101.859375 355.640625 104.597656 356.949219 107.375 C 358.261719 110.148438 359.507812 112.953125 360.679688 115.785156 C 361.855469 118.621094 362.957031 121.484375 363.992188 124.371094 C 365.027344 127.261719 365.988281 130.171875 366.878906 133.109375 C 367.769531 136.046875 368.585938 139.003906 369.332031 141.980469 C 370.078125 144.957031 370.75 147.949219 371.351562 150.957031 C 371.949219 153.96875 372.472656 156.988281 372.921875 160.023438 C 373.375 163.058594 373.75 166.105469 374.050781 169.160156 C 374.351562 172.210938 374.574219 175.269531 374.726562 178.335938 C 374.875 181.402344 374.953125 184.46875 374.953125 187.535156 Z M 374.953125 187.535156 " fill-opacity="0.85" fill-rule="nonzero"/><path fill="#df8942" d="M 275.222656 79.527344 C 275.222656 75.242188 271.714844 71.734375 267.429688 71.734375 L 103.777344 71.734375 C 99.488281 71.734375 95.984375 75.242188 95.984375 79.527344 L 95.984375 305.523438 C 95.984375 309.8125 99.488281 313.316406 103.777344 313.316406 L 267.429688 313.316406 C 271.714844 313.316406 275.222656 309.8125 275.222656 305.523438 Z M 275.222656 79.527344 " fill-opacity="1" fill-rule="nonzero"/><path fill="#fdbe5d" d="M 275.222656 71.734375 C 275.222656 67.449219 271.714844 63.941406 267.429688 63.941406 L 103.777344 63.941406 C 99.488281 63.941406 95.984375 67.449219 95.984375 71.734375 L 95.984375 297.730469 C 95.984375 302.019531 99.488281 305.523438 103.777344 305.523438 L 267.429688 305.523438 C 271.714844 305.523438 275.222656 302.019531 275.222656 297.730469 Z M 275.222656 71.734375 " fill-opacity="1" fill-rule="nonzero"/><path fill="#df8942" d="M 275.222656 71.734375 C 275.222656 67.449219 271.714844 63.941406 267.429688 63.941406 L 103.777344 63.941406 C 99.488281 63.941406 95.984375 67.449219 95.984375 71.734375 L 103.777344 102.90625 L 267.429688 102.90625 Z M 275.222656 71.734375 " fill-opacity="1" fill-rule="nonzero"/><path fill="#edaf53" d="M 275.222656 71.734375 C 275.222656 67.449219 271.714844 63.941406 267.429688 63.941406 L 103.777344 63.941406 C 99.488281 63.941406 95.984375 67.449219 95.984375 71.734375 L 111.570312 95.113281 L 259.636719 95.113281 Z M 275.222656 71.734375 " fill-opacity="1" fill-rule="nonzero"/><path fill="#ffffff" d="M 173.914062 95.113281 L 181.707031 95.113281 L 181.707031 134.078125 L 173.914062 134.078125 Z M 173.914062 95.113281 " fill-opacity="1" fill-rule="nonzero"/><path fill="#ffffff" d="M 189.5 95.113281 L 197.292969 95.113281 L 197.292969 134.078125 L 189.5 134.078125 Z M 189.5 95.113281 " fill-opacity="1" fill-rule="nonzero"/><path fill="#df8942" d="M 201.1875 134.078125 C 201.1875 142.6875 194.210938 149.664062 185.601562 149.664062 C 176.996094 149.664062 170.015625 142.6875 170.015625 134.078125 C 170.015625 125.472656 176.996094 118.492188 185.601562 118.492188 C 194.210938 118.492188 201.1875 125.472656 201.1875 134.078125 Z M 201.1875 134.078125 " fill-opacity="1" fill-rule="nonzero"/><path fill="#edaf53" d="M 193.394531 134.078125 C 193.394531 138.378906 189.90625 141.871094 185.601562 141.871094 C 181.300781 141.871094 177.808594 138.378906 177.808594 134.078125 C 177.808594 129.777344 181.300781 126.285156 185.601562 126.285156 C 189.90625 126.285156 193.394531 129.777344 193.394531 134.078125 Z M 193.394531 134.078125 " fill-opacity="1" fill-rule="nonzero"/><path fill="#edaf53" d="M 142.742188 235.386719 L 228.464844 235.386719 L 228.464844 243.179688 L 142.742188 243.179688 Z M 142.742188 235.386719 " fill-opacity="1" fill-rule="nonzero"/><path fill="#edaf53" d="M 142.742188 250.972656 L 228.464844 250.972656 L 228.464844 258.765625 L 142.742188 258.765625 Z M 142.742188 250.972656 " fill-opacity="1" fill-rule="nonzero"/><path fill="#edaf53" d="M 142.742188 266.558594 L 228.464844 266.558594 L 228.464844 274.351562 L 142.742188 274.351562 Z M 142.742188 266.558594 " fill-opacity="1" fill-rule="nonzero"/><g clip-path="url(#8ac5243e07)"><rect x="-37.5" width="450" fill="#bfd7b1" y="-37.499999" height="449.999989" fill-opacity="1"/></g><g clip-path="url(#7cabf30a4c)"><path fill="#e2ece1" d="M 108.09375 75.707031 L 108.09375 151.859375 L 108.109375 151.859375 C 101.699219 167.25 101.769531 184.570312 108.09375 199.839844 L 108.09375 228.335938 C 106.523438 227.578125 104.597656 227.902344 103.371094 229.253906 L 58.773438 278.40625 C 54.683594 282.910156 55.042969 289.871094 59.601562 293.941406 C 61.707031 295.835938 64.375 296.753906 67.003906 296.753906 C 70.03125 296.753906 73.058594 295.546875 75.253906 293.132812 L 108.09375 256.921875 L 108.09375 299.207031 L 279.289062 299.207031 L 279.289062 75.707031 Z M 108.09375 75.707031 " fill-opacity="1" fill-rule="nonzero"/></g><path fill="#e2ece1" d="M 120.648438 219.089844 L 110.507812 230.261719 L 109.066406 228.964844 C 108.757812 228.695312 108.433594 228.496094 108.09375 228.335938 L 108.09375 199.839844 C 110.972656 206.796875 115.171875 213.339844 120.648438 219.089844 Z M 120.648438 219.089844 " fill-opacity="1" fill-rule="nonzero"/><path fill="#e15c63" d="M 241.550781 220.546875 L 252.035156 220.546875 L 252.035156 282.460938 L 241.550781 282.460938 Z M 241.550781 220.546875 " fill-opacity="1" fill-rule="nonzero"/><path fill="#ffc05a" d="M 220.3125 236.515625 L 230.8125 236.515625 L 230.8125 282.460938 L 220.3125 282.460938 Z M 220.3125 236.515625 " fill-opacity="1" fill-rule="nonzero"/><path fill="#e15c63" d="M 212.152344 175.847656 C 212.152344 180.390625 211.46875 184.769531 210.226562 188.898438 L 174.902344 170.910156 L 174.902344 131.527344 C 196.085938 135.347656 212.152344 153.734375 212.152344 175.847656 Z M 212.152344 175.847656 " fill-opacity="1" fill-rule="nonzero"/><path fill="#8bcb8f" d="M 199.09375 249.585938 L 209.59375 249.585938 L 209.59375 282.460938 L 199.09375 282.460938 Z M 199.09375 249.585938 " fill-opacity="1" fill-rule="nonzero"/><path fill="#c2e6f9" d="M 131.132812 169.015625 C 130.679688 171.234375 130.464844 173.503906 130.464844 175.847656 C 130.464844 182.734375 132.410156 189.1875 135.796875 194.648438 L 166.742188 175.847656 L 166.742188 211.859375 C 180.488281 211.859375 192.429688 204.289062 198.589844 193.152344 L 166.742188 175.847656 L 166.742188 139.835938 C 159.25 139.835938 152.277344 142.089844 146.496094 145.964844 C 138.640625 151.226562 132.96875 159.445312 131.132812 169.015625 Z M 166.742188 121.667969 C 196.914062 121.667969 221.359375 145.929688 221.359375 175.847656 C 221.359375 205.785156 196.914062 230.046875 166.742188 230.046875 C 136.589844 230.046875 112.144531 205.785156 112.144531 175.847656 C 112.144531 145.929688 136.589844 121.667969 166.742188 121.667969 Z M 210.226562 188.898438 C 211.46875 184.769531 212.152344 180.390625 212.152344 175.847656 C 212.152344 153.730469 196.085938 135.347656 174.902344 131.527344 L 174.902344 170.910156 Z M 158.402344 220.132812 L 159.5 189.511719 L 133.507812 206.523438 C 139.992188 213.445312 148.640625 218.332031 158.402344 220.132812 Z M 158.402344 220.132812 " fill-opacity="1" fill-rule="nonzero"/><path fill="#8bcb8f" d="M 166.742188 175.847656 L 198.589844 193.152344 C 192.429688 204.289062 180.488281 211.859375 166.742188 211.859375 Z M 166.742188 175.847656 " fill-opacity="1" fill-rule="nonzero"/><path fill="#52a7d7" d="M 177.875 269.953125 L 188.359375 269.953125 L 188.359375 282.460938 L 177.875 282.460938 Z M 177.875 269.953125 " fill-opacity="1" fill-rule="nonzero"/><path fill="#f48ca7" d="M 167.140625 238.789062 L 167.140625 282.460938 L 156.636719 282.460938 L 156.636719 237.976562 C 160.113281 238.535156 163.625 238.804688 167.140625 238.789062 Z M 167.140625 238.789062 " fill-opacity="1" fill-rule="nonzero"/><path fill="#ffa25a" d="M 166.742188 139.835938 L 166.742188 175.847656 L 146.496094 145.964844 C 152.277344 142.089844 159.25 139.835938 166.742188 139.835938 Z M 166.742188 139.835938 " fill-opacity="1" fill-rule="nonzero"/><path fill="#52a7d7" d="M 146.496094 145.964844 L 166.742188 175.847656 L 131.132812 169.015625 C 132.96875 159.445312 138.640625 151.226562 146.496094 145.964844 Z M 146.496094 145.964844 " fill-opacity="1" fill-rule="nonzero"/><path fill="#f48ca7" d="M 166.742188 175.847656 L 135.796875 194.648438 C 132.410156 189.1875 130.464844 182.734375 130.464844 175.847656 C 130.464844 173.503906 130.679688 171.234375 131.132812 169.015625 Z M 166.742188 175.847656 " fill-opacity="1" fill-rule="nonzero"/><path fill="#ffc05a" d="M 159.5 189.511719 L 158.402344 220.132812 C 148.640625 218.332031 139.992188 213.445312 133.507812 206.523438 Z M 159.5 189.511719 " fill-opacity="1" fill-rule="nonzero"/><path fill="#ffa25a" d="M 135.417969 249.585938 L 145.917969 249.585938 L 145.917969 282.460938 L 135.417969 282.460938 Z M 135.417969 249.585938 " fill-opacity="1" fill-rule="nonzero"/><path fill="#93b2b8" d="M 128.25 225.867188 L 118.109375 237.039062 L 110.507812 230.261719 L 120.648438 219.089844 C 121.800781 220.296875 123.023438 221.484375 124.304688 222.621094 C 125.582031 223.757812 126.898438 224.855469 128.25 225.867188 Z M 128.25 225.867188 " fill-opacity="1" fill-rule="nonzero"/><path fill="#e15c63" d="M 119.546875 238.339844 C 121.207031 239.816406 121.332031 242.339844 119.835938 243.980469 L 108.09375 256.921875 L 75.253906 293.132812 C 73.058594 295.546875 70.03125 296.753906 67.003906 296.753906 C 64.375 296.753906 61.707031 295.835938 59.601562 293.941406 C 55.042969 289.871094 54.683594 282.910156 58.773438 278.40625 L 103.371094 229.253906 C 104.597656 227.902344 106.523438 227.578125 108.09375 228.335938 C 108.433594 228.496094 108.757812 228.695312 109.066406 228.964844 L 110.507812 230.261719 L 118.109375 237.039062 Z M 119.546875 238.339844 " fill-opacity="1" fill-rule="nonzero"/><path fill="#4d727a" d="M 258.695312 280.660156 L 124.644531 280.660156 C 123.648438 280.660156 122.84375 281.464844 122.84375 282.460938 C 122.84375 283.457031 123.648438 284.261719 124.644531 284.261719 L 258.695312 284.261719 C 259.691406 284.261719 260.5 283.457031 260.5 282.460938 C 260.5 281.464844 259.691406 280.660156 258.695312 280.660156 Z M 258.695312 280.660156 " fill-opacity="1" fill-rule="nonzero"/><path fill="#93b2b8" d="M 252.085938 103.191406 L 144.421875 103.191406 C 143.429688 103.191406 142.621094 102.386719 142.621094 101.390625 C 142.621094 100.394531 143.429688 99.585938 144.421875 99.585938 L 252.085938 99.585938 C 253.082031 99.585938 253.886719 100.394531 253.886719 101.390625 C 253.886719 102.386719 253.082031 103.191406 252.085938 103.191406 Z M 252.085938 103.191406 " fill-opacity="1" fill-rule="nonzero"/><path fill="#93b2b8" d="M 252.085938 125.054688 L 201.597656 125.054688 C 200.601562 125.054688 199.792969 124.25 199.792969 123.253906 C 199.792969 122.257812 200.601562 121.449219 201.597656 121.449219 L 252.085938 121.449219 C 253.082031 121.449219 253.886719 122.257812 253.886719 123.253906 C 253.886719 124.25 253.082031 125.054688 252.085938 125.054688 Z M 252.085938 125.054688 " fill-opacity="1" fill-rule="nonzero"/><path fill="#93b2b8" d="M 252.085938 141.636719 L 218.78125 141.636719 C 217.785156 141.636719 216.980469 140.832031 216.980469 139.835938 C 216.980469 138.839844 217.785156 138.035156 218.78125 138.035156 L 252.085938 138.035156 C 253.082031 138.035156 253.886719 138.839844 253.886719 139.835938 C 253.886719 140.832031 253.082031 141.636719 252.085938 141.636719 Z M 252.085938 141.636719 " fill-opacity="1" fill-rule="nonzero"/><path fill="#93b2b8" d="M 252.085938 155.734375 L 226.238281 155.734375 C 225.242188 155.734375 224.425781 154.925781 224.425781 153.929688 C 224.425781 152.9375 225.226562 152.128906 226.21875 152.128906 L 252.085938 152.128906 C 253.082031 152.128906 253.886719 152.9375 253.886719 153.929688 C 253.886719 154.925781 253.082031 155.734375 252.085938 155.734375 Z M 252.085938 155.734375 " fill-opacity="1" fill-rule="nonzero"/><path fill="#93b2b8" d="M 252.085938 169.808594 L 229.679688 169.808594 C 228.683594 169.808594 227.875 169.003906 227.875 168.007812 C 227.875 167.011719 228.683594 166.207031 229.679688 166.207031 L 252.085938 166.207031 C 253.082031 166.207031 253.886719 167.011719 253.886719 168.007812 C 253.886719 169.003906 253.082031 169.808594 252.085938 169.808594 Z M 252.085938 169.808594 " fill-opacity="1" fill-rule="nonzero"/><path fill="#93b2b8" d="M 252.085938 183.886719 L 229.875 183.886719 C 228.882812 183.886719 228.074219 183.078125 228.074219 182.085938 C 228.074219 181.089844 228.882812 180.28125 229.875 180.28125 L 252.085938 180.28125 C 253.082031 180.28125 253.886719 181.089844 253.886719 182.085938 C 253.886719 183.078125 253.082031 183.886719 252.085938 183.886719 Z M 252.085938 183.886719 " fill-opacity="1" fill-rule="nonzero"/><path fill="#4d727a" d="M 229.679688 168.007812 C 231.894531 185.507812 226.726562 203.839844 213.882812 217.96875 C 201.453125 231.667969 184.359375 238.679688 167.140625 238.789062 C 163.625 238.804688 160.113281 238.535156 156.636719 237.976562 C 146.566406 236.390625 136.804688 232.355469 128.25 225.867188 C 126.898438 224.855469 125.582031 223.757812 124.304688 222.621094 C 123.023438 221.484375 121.800781 220.296875 120.648438 219.089844 C 115.171875 213.339844 110.972656 206.796875 108.09375 199.839844 C 101.769531 184.570312 101.699219 167.25 108.109375 151.859375 C 110.792969 145.371094 114.632812 139.242188 119.621094 133.742188 C 140.875 110.3125 175.839844 106.417969 201.597656 123.253906 C 204.246094 124.964844 206.785156 126.914062 209.199219 129.074219 C 212.875 132.355469 216.082031 135.980469 218.78125 139.835938 C 221.898438 144.269531 224.382812 149.011719 226.222656 153.929688 L 226.238281 153.929688 C 227.933594 158.492188 229.085938 163.214844 229.679688 168.007812 Z M 221.359375 175.847656 C 221.359375 145.929688 196.914062 121.667969 166.742188 121.667969 C 136.589844 121.667969 112.144531 145.929688 112.144531 175.847656 C 112.144531 205.785156 136.589844 230.046875 166.742188 230.046875 C 196.914062 230.046875 221.359375 205.785156 221.359375 175.847656 Z M 221.359375 175.847656 " fill-opacity="1" fill-rule="nonzero"/></svg>